<svg width="160" height="160" viewBox="0 0 160 160" fill="none" xmlns="http://www.w3.org/2000/svg">
<g clip-path="url(#clip0_214_95)">
<path d="M83.8814 1.01289C84.111 1.09648 84.3405 1.18008 84.577 1.2662C85.3341 1.54247 86.0898 1.82212 86.8455 2.10168C87.3835 2.29849 87.9216 2.49501 88.4599 2.69124C89.301 2.99795 90.142 3.30485 90.9826 3.61266C93.6817 4.60089 96.3884 5.56993 99.0971 6.53514C100.166 6.91597 101.234 7.29746 102.302 7.67892C103.109 7.96709 103.916 8.25517 104.724 8.54322C107.128 9.40134 109.531 10.2605 111.935 11.1195C113.268 11.5958 114.601 12.0721 115.934 12.5484C116.467 12.7389 117.001 12.9295 117.534 13.12C117.93 13.2615 117.93 13.2615 118.334 13.4058C133.532 18.8364 133.532 18.8364 134.331 19.1222C134.865 19.3129 135.399 19.5036 135.933 19.6944C137.258 20.1678 138.583 20.6414 139.908 21.1149C142.404 22.0067 144.899 22.8982 147.395 23.7891C148.572 24.2092 149.749 24.6294 150.925 25.0496C151.486 25.2496 152.046 25.4495 152.606 25.6494C153.384 25.9268 154.161 26.2044 154.939 26.4821C155.278 26.6032 155.278 26.6032 155.625 26.7268C157.085 27.2485 158.539 27.7832 159.99 28.3256C160.054 30.4053 159.804 32.4297 159.545 34.4906C159.497 34.8841 159.448 35.2776 159.4 35.6711C159.268 36.7484 159.134 37.8255 158.999 38.9026C158.884 39.8273 158.77 40.7521 158.655 41.677C158.247 44.9859 157.834 48.2944 157.421 51.6029C157.355 52.1302 157.289 52.6576 157.223 53.1849C156.609 58.1059 155.993 63.0267 155.375 67.9473C155.231 69.0854 155.088 70.2236 154.945 71.3618C154.892 71.7861 154.892 71.7861 154.838 72.219C154.261 76.8085 153.692 81.3988 153.125 85.9894C152.543 90.7029 151.955 95.4156 151.36 100.128C151.026 102.773 150.695 105.419 150.371 108.066C150.096 110.318 149.815 112.569 149.526 114.82C149.379 115.969 149.234 117.117 149.098 118.267C148.973 119.319 148.839 120.37 148.699 121.421C148.65 121.801 148.604 122.182 148.561 122.563C148.238 125.416 148.238 125.416 147.473 126.202C146.974 126.498 146.518 126.694 145.961 126.876C145.604 127.062 145.604 127.062 145.24 127.253C145.018 127.362 144.796 127.471 144.568 127.583C144.188 127.771 144.188 127.771 143.801 127.963C143.534 128.095 143.267 128.227 142.992 128.362C140.92 129.391 138.862 130.437 136.824 131.521C134.392 132.811 131.925 134.032 129.448 135.245C127.346 136.276 125.258 137.325 123.195 138.423C120.795 139.701 118.358 140.907 115.911 142.105C113.809 143.136 111.721 144.184 109.658 145.283C107.258 146.561 104.821 147.766 102.375 148.965C100.272 149.996 98.1843 151.044 96.1212 152.142C93.5405 153.516 90.9193 154.813 88.2872 156.099C86.8031 156.825 85.3251 157.555 83.8699 158.33C83.6439 158.45 83.4179 158.57 83.1851 158.693C82.7787 158.911 82.3741 159.131 81.9719 159.355C81.7952 159.449 81.6186 159.543 81.4366 159.64C81.2882 159.722 81.1399 159.803 80.987 159.888C80.0203 160.168 79.202 159.879 78.3053 159.509C78.0604 159.385 77.8154 159.262 77.563 159.134C77.1477 158.926 77.1477 158.926 76.724 158.714C76.4265 158.562 76.129 158.411 75.8315 158.259C75.5204 158.102 75.2091 157.945 74.8978 157.789C72.8106 156.735 70.7427 155.652 68.6806 154.556C66.482 153.395 64.2476 152.3 62.0109 151.204C59.682 150.062 57.3779 148.89 55.0929 147.673C53.0805 146.608 51.0373 145.601 48.9889 144.597C46.4879 143.371 44.0097 142.12 41.5562 140.813C39.5438 139.748 37.5006 138.741 35.4522 137.737C32.9512 136.512 30.473 135.26 28.0195 133.954C26.0071 132.888 23.9639 131.881 21.9155 130.877C19.4831 129.685 17.0638 128.478 14.6703 127.219C14.4328 127.094 14.1953 126.969 13.9506 126.841C12.3518 125.994 12.3518 125.994 12.0706 125.733C11.9856 125.232 11.9159 124.729 11.852 124.225C11.8313 124.065 11.8107 123.905 11.7894 123.74C11.7196 123.197 11.6514 122.653 11.5832 122.109C11.5333 121.719 11.4833 121.328 11.4333 120.937C11.2954 119.857 11.1588 118.778 11.0225 117.698C10.8754 116.536 10.7271 115.373 10.579 114.211C10.2888 111.931 9.99967 109.652 9.711 107.372C9.47633 105.519 9.24128 103.665 9.00595 101.812C8.95579 101.417 8.95579 101.417 8.90462 101.015C8.8367 100.48 8.76877 99.9448 8.70085 99.41C8.06304 94.3872 7.4266 89.3643 6.79059 84.3414C6.20865 79.7458 5.62509 75.1504 5.04073 70.5551C4.44111 65.8397 3.84255 61.1242 3.24515 56.4086C2.9096 53.7599 2.57363 51.1113 2.23657 48.4629C1.94949 46.207 1.66341 43.951 1.37862 41.6948C1.23329 40.5437 1.0875 39.3926 0.940466 38.2416C0.805802 37.1874 0.672465 36.133 0.540172 35.0786C0.492149 34.6976 0.443653 34.3168 0.394616 33.936C0.153217 32.0593 -0.0493384 30.2198 0.0106362 28.3256C7.75386 25.5311 15.5028 22.7509 23.2572 19.9834C25.6614 19.1252 28.0652 18.2661 30.469 17.4071C31.8018 16.9307 33.1348 16.4545 34.4677 15.9782C35.001 15.7877 35.5342 15.5971 36.0675 15.4066C48.0055 11.1409 59.9435 6.87516 71.8816 2.60946C72.1364 2.51833 72.3912 2.42721 72.6537 2.33332C73.1434 2.1585 73.6333 1.98424 74.1235 1.8106C75.107 1.46167 76.0871 1.11088 77.0546 0.725175C77.4662 0.564296 77.4662 0.564296 77.8861 0.400167C78.2145 0.26507 78.2145 0.26507 78.5495 0.127243C80.4243 -0.280464 82.1555 0.366198 83.8814 1.01289Z" fill="#DD0031"/>
<path d="M79.8283 0C80.724 0.122847 81.5393 0.273948 82.3821 0.580636C82.5831 0.652996 82.7841 0.725356 82.9911 0.799909C83.2071 0.879198 83.4231 0.958487 83.6456 1.04018C83.9922 1.16552 83.9922 1.16552 84.3458 1.29339C84.8476 1.47504 85.3492 1.65729 85.8506 1.84006C86.9348 2.23529 88.0202 2.62758 89.1055 3.02008C89.6755 3.22623 90.2454 3.43254 90.8152 3.63899C93.7927 4.71744 96.7764 5.78092 99.7608 6.84286C100.297 7.03386 100.834 7.22487 101.37 7.4159C102.448 7.79992 103.526 8.18386 104.605 8.56775C107.014 9.42555 109.423 10.2844 111.832 11.1431C113.168 11.6192 114.504 12.0953 115.839 12.5714C116.374 12.7619 116.908 12.9524 117.443 13.1429C117.707 13.2371 117.972 13.3314 118.244 13.4286C133.475 18.8571 133.475 18.8571 134.276 19.1428C134.811 19.3335 135.346 19.5241 135.881 19.7148C137.209 20.1881 138.537 20.6614 139.865 21.1348C142.366 22.0263 144.867 22.9175 147.368 23.808C148.547 24.228 149.727 24.648 150.906 25.0681C151.467 25.268 152.029 25.4678 152.59 25.6676C153.369 25.9449 154.149 26.2225 154.928 26.5C155.155 26.5808 155.382 26.6615 155.616 26.7447C157.079 27.2661 158.536 27.8007 159.99 28.3429C160.054 30.4218 159.804 32.4455 159.544 34.5056C159.496 34.8989 159.447 35.2923 159.399 35.6857C159.266 36.7626 159.132 37.8393 158.997 38.9159C158.881 39.8403 158.767 40.7648 158.653 41.6893C158.243 44.9971 157.83 48.3044 157.415 51.6116C157.349 52.1388 157.283 52.6659 157.217 53.1931C156.602 58.1122 155.985 63.0313 155.365 67.95C155.221 69.0877 155.078 70.2255 154.935 71.3632C154.899 71.646 154.863 71.9288 154.827 72.2201C154.249 76.808 153.678 81.3966 153.11 85.9855C152.527 90.6973 151.938 95.4082 151.341 100.119C151.006 102.763 150.675 105.408 150.351 108.054C150.075 110.305 149.793 112.556 149.504 114.806C149.356 115.954 149.211 117.102 149.074 118.252C148.949 119.303 148.815 120.354 148.675 121.404C148.626 121.784 148.579 122.165 148.537 122.546C148.213 125.398 148.213 125.398 147.446 126.183C146.946 126.48 146.489 126.675 145.931 126.857C145.692 126.981 145.454 127.106 145.208 127.233C144.986 127.343 144.764 127.452 144.535 127.564C144.154 127.752 144.154 127.752 143.766 127.944C143.499 128.076 143.231 128.207 142.956 128.343C140.879 129.371 138.817 130.416 136.774 131.5C134.337 132.79 131.865 134.01 129.383 135.223C127.275 136.254 125.183 137.302 123.116 138.4C120.71 139.677 118.268 140.883 115.817 142.081C113.709 143.111 111.617 144.159 109.55 145.257C107.145 146.534 104.702 147.74 102.251 148.938C100.144 149.969 98.0515 151.016 95.9839 152.114C93.398 153.487 90.7706 154.781 88.1353 156.07C85.9813 157.124 83.8391 158.194 81.7175 159.304C80.3734 160 80.3734 160 79.8283 160C79.8283 139.785 79.8283 119.57 79.8283 98.7429C86.8282 98.7429 93.8282 98.7429 101.04 98.7429C101.804 100.301 102.548 101.844 103.229 103.431C103.315 103.632 103.402 103.833 103.492 104.04C103.774 104.694 104.055 105.348 104.336 106.003C104.534 106.46 104.731 106.918 104.928 107.376C105.444 108.572 105.959 109.769 106.474 110.966C107.094 112.406 107.715 113.846 108.336 115.286C109.276 117.467 110.214 119.648 111.153 121.829C117.258 121.904 123.362 121.979 129.652 122.057C128.94 120.572 128.227 119.087 127.494 117.557C127.144 116.828 126.794 116.098 126.444 115.369C125.446 113.288 124.448 111.208 123.449 109.128C121.368 104.795 119.296 100.459 117.243 96.1156C115.841 93.1487 114.421 90.1896 112.989 87.2347C111.626 84.42 110.283 81.5978 108.949 78.7714C107.483 75.6678 105.998 72.573 104.493 69.4857C103.005 66.4315 101.535 63.3702 100.084 60.3C98.5125 56.9718 96.93 53.648 95.3365 50.3286C95.1805 50.0036 95.1805 50.0036 95.0213 49.672C94.1384 47.8326 93.2547 45.9936 92.3709 44.1546C91.8793 43.1317 91.3879 42.1088 90.8967 41.0857C90.8177 40.9211 90.7386 40.7564 90.6572 40.5868C89.7254 38.6459 88.7988 36.703 87.8791 34.7571C87.7878 34.564 87.6965 34.3708 87.6025 34.1718C87.2313 33.3864 86.8602 32.6009 86.4893 31.8153C85.4238 29.5594 84.3489 27.3078 83.2554 25.0634C83.1524 24.852 83.0494 24.6406 82.9433 24.4228C82.4468 23.4042 81.9489 22.3863 81.4495 21.369C81.271 21.004 81.0926 20.6391 80.9141 20.2741C80.8324 20.1086 80.7507 19.9431 80.6664 19.7726C79.9994 18.4056 79.7921 17.3746 79.8003 15.8806C79.8002 15.6229 79.8002 15.6229 79.8002 15.36C79.8003 14.7936 79.8023 14.2271 79.8042 13.6607C79.8047 13.2674 79.805 12.8741 79.8053 12.4808C79.8062 11.4467 79.8086 10.4126 79.8113 9.37853C79.8139 8.32289 79.815 7.26725 79.8162 6.21161C79.8189 4.14107 79.8231 2.07053 79.8283 0Z" fill="#C3002F"/>
<path d="M79.7768 18C79.9394 18 80.1021 18 80.2696 18C80.3808 18.2355 80.4919 18.471 80.6064 18.7136C82.7132 23.1757 84.8331 27.6316 87 32.0691C88.4015 34.9395 89.7778 37.8177 91.1218 40.7116C92.2158 43.0593 93.3474 45.3905 94.485 47.7204C95.9982 50.8202 97.4933 53.9266 98.9667 57.0428C100.537 60.3637 102.118 63.6802 103.71 66.9923C103.814 67.2085 103.918 67.4247 104.025 67.6475C104.907 69.4828 105.79 71.3178 106.673 73.1528C107.164 74.1734 107.655 75.1941 108.146 76.2149C108.225 76.3792 108.304 76.5435 108.385 76.7127C109.786 79.6275 111.17 82.5491 112.552 85.4714C113.95 88.4236 115.368 91.3664 116.801 94.3037C118.171 97.1103 119.526 99.9215 120.854 102.745C122.091 105.375 123.346 107.996 124.607 110.616C127.682 117.009 127.682 117.009 128.876 119.534C128.974 119.741 129.073 119.948 129.175 120.161C129.8 121.49 129.8 121.49 129.8 122C123.701 122 117.602 122 111.319 122C110.21 119.947 110.21 119.947 109.868 119.151C109.79 118.97 109.712 118.79 109.632 118.604C109.55 118.411 109.468 118.219 109.384 118.021C109.293 117.811 109.203 117.6 109.11 117.383C108.82 116.708 108.531 116.033 108.242 115.357C108.062 114.938 107.882 114.519 107.702 114.1C107.038 112.552 106.375 111.004 105.712 109.456C104.228 105.994 102.744 102.532 101.215 98.9649C87.1472 98.8897 73.0791 98.8144 58.5847 98.7369C58.3407 99.4895 58.0968 100.242 57.8454 101.018C57.5999 101.628 57.3496 102.231 57.0837 102.834C57.0115 103 56.9393 103.167 56.8648 103.338C56.629 103.879 56.3916 104.42 56.1542 104.962C55.9874 105.344 55.8207 105.726 55.6542 106.108C55.217 107.111 54.7785 108.113 54.3397 109.116C53.8976 110.126 53.4567 111.136 53.0157 112.147C52.5174 113.289 52.019 114.431 51.5197 115.572C51.4428 115.748 51.3658 115.924 51.2866 116.105C51.1468 116.425 51.0069 116.745 50.8669 117.064C50.1483 118.707 49.4393 120.354 48.7279 122C42.5477 122 36.3675 122 30 122C30.5544 120.461 30.5544 120.461 30.923 119.697C31.0059 119.524 31.0888 119.352 31.1743 119.174C31.2639 118.989 31.3535 118.804 31.4458 118.614C31.541 118.416 31.6362 118.218 31.7343 118.014C32.0489 117.361 32.3643 116.709 32.6798 116.056C32.9022 115.594 33.1246 115.133 33.3469 114.671C33.8089 113.712 34.2712 112.753 34.7337 111.795C35.6857 109.821 36.6339 107.845 37.582 105.869C37.8877 105.232 38.1935 104.595 38.4993 103.959C39.4289 102.023 40.3582 100.088 41.2863 98.1517C41.8056 97.0685 42.3251 95.9855 42.8446 94.9024C42.9469 94.6892 43.0492 94.476 43.1546 94.2563C44.6918 91.0528 46.2431 87.8553 47.8013 84.6604C49.2925 81.6014 50.7559 78.5317 52.2087 75.4568C53.6653 72.375 55.1476 69.3046 56.6441 66.2392C58.0504 63.3576 59.4337 60.4672 60.8025 57.5702C62.3511 54.2924 63.9237 51.0256 65.5152 47.7655C67.0161 44.69 68.4891 41.6038 69.9498 38.5118C71.4271 35.386 72.9307 32.2719 74.4483 29.1627C76.2575 25.455 78.0266 21.7318 79.7768 18Z" fill="#FEFEFE"/>
<path d="M79.7559 51.8C79.917 51.8 80.0781 51.8 80.244 51.8C82.9925 57.9612 85.7393 64.1229 88.4698 70.291C89.0519 71.6056 89.6357 72.9195 90.2203 74.2332C90.6502 75.1997 91.0793 76.1666 91.5083 77.1335C91.7155 77.6 91.923 78.0664 92.1309 78.5327C92.42 79.1814 92.7079 79.8305 92.9956 80.4798C93.0814 80.6714 93.1671 80.863 93.2554 81.0605C93.335 81.2407 93.4146 81.4209 93.4966 81.6065C93.5654 81.7612 93.6341 81.9159 93.705 82.0753C93.9776 82.7707 94.1823 83.4879 94.4 84.2C84.896 84.2 75.392 84.2 65.6 84.2C66.0591 82.9123 66.5209 81.6568 67.0672 80.4041C67.1367 80.2434 67.2062 80.0827 67.2779 79.9172C67.5059 79.3908 67.7351 78.8648 67.9644 78.339C68.0445 78.1547 68.1246 77.9704 68.2071 77.7806C69.5655 74.6562 70.9577 71.5458 72.3633 68.4398C74.2054 64.3671 76.005 60.2781 77.8067 56.1897C78.4525 54.725 79.1018 53.2616 79.7559 51.8Z" fill="#DD0132"/>
<path d="M80.2 52C80.8076 52.2883 80.8381 52.4818 81.0908 53.07C81.1693 53.2505 81.2478 53.4309 81.3286 53.6169C81.4131 53.8157 81.4977 54.0146 81.5848 54.2195C81.6744 54.4267 81.7641 54.6339 81.8564 54.8475C82.1531 55.5344 82.4476 56.2222 82.7421 56.9099C82.9494 57.3907 83.1569 57.8713 83.3645 58.352C83.7901 59.3373 84.215 60.3229 84.6394 61.3087C85.4371 63.1595 86.2449 65.0063 87.0538 66.8527C87.4678 67.7981 87.8806 68.7439 88.2937 69.6897C88.9545 71.2024 89.6165 72.7146 90.2794 74.2265C90.7031 75.1933 91.126 76.1605 91.5487 77.1278C91.7529 77.5945 91.9574 78.0611 92.1623 78.5275C92.4474 79.1769 92.7314 79.8266 93.0151 80.4765C93.0997 80.6683 93.1842 80.8601 93.2713 81.0577C93.3498 81.238 93.4282 81.4184 93.5091 81.6042C93.5769 81.759 93.6448 81.9139 93.7146 82.0734C93.9835 82.7694 94.1853 83.4872 94.4 84.2C89.714 84.2 85.028 84.2 80.2 84.2C80.2 73.574 80.2 62.948 80.2 52Z" fill="#C30130"/>
</g>
<defs>
<clipPath id="clip0_214_95">
<rect width="160" height="160" fill="white"/>
</clipPath>
</defs>
</svg>
