<svg width="160" height="160" viewBox="0 0 160 160" fill="none" xmlns="http://www.w3.org/2000/svg">
<path d="M60.4515 13.0392C60.9247 13.0378 61.3979 13.0362 61.8712 13.0344C63.1458 13.0302 64.4203 13.03 65.6949 13.0308C66.7641 13.0311 67.8334 13.0296 68.9026 13.0281C71.4279 13.0246 73.9533 13.0245 76.4787 13.0264C79.0721 13.0283 81.6655 13.0244 84.259 13.0178C86.4964 13.0122 88.7337 13.0104 90.9711 13.0114C92.3027 13.012 93.6342 13.0112 94.9657 13.0068C96.2193 13.0028 97.4728 13.0035 98.7264 13.0076C99.1825 13.0083 99.6386 13.0075 100.095 13.0049C106.935 12.9686 113.18 14.6974 118.184 19.5703C122.392 23.8503 124.572 29.4186 124.785 35.3907C124.641 41.6163 122.241 47.2005 117.993 51.7444C114.642 54.8876 110.693 56.7554 106.25 57.8125C106.522 57.881 106.795 57.9495 107.075 58.02C111.088 59.0883 114.363 60.6572 117.5 63.4375C117.692 63.5999 117.884 63.7622 118.081 63.9295C122.302 67.773 124.329 73.4492 124.756 79.0161C124.959 85.2969 122.726 90.7582 118.689 95.492C114.457 99.9589 108.6 102.286 102.518 102.5C96.1203 102.585 90.4755 99.9757 85.8997 95.6189C83.58 93.1817 81.9431 90.2939 80.9012 87.111C80.7904 86.774 80.6797 86.437 80.5655 86.0898C80.482 85.8333 80.3985 85.5768 80.3125 85.3125C80.3121 85.5289 80.3116 85.7452 80.3111 85.9681C80.2995 91.2507 80.281 96.5333 80.2551 101.816C80.2427 104.371 80.2325 106.925 80.2278 109.48C80.2237 111.709 80.2153 113.937 80.2017 116.166C80.1947 117.344 80.1897 118.522 80.1901 119.701C80.1903 120.814 80.1846 121.927 80.1747 123.04C80.1708 123.635 80.1729 124.23 80.1754 124.825C80.1048 130.778 77.9178 136.203 73.7036 140.421C68.9132 144.877 63.3303 147.01 56.8164 146.941C50.4327 146.588 45.126 143.863 40.7349 139.298C37.0634 134.998 35.1039 129.416 35.2344 123.763C35.7615 117.347 38.2657 111.521 43.125 107.188C46.2422 104.718 49.8617 103.01 53.75 102.188C53.4777 102.119 53.2054 102.051 52.9248 101.98C48.9122 100.912 45.6368 99.3428 42.5 96.5625C42.3083 96.4002 42.1165 96.2378 41.919 96.0706C37.6979 92.2271 35.6712 86.5509 35.2442 80.9839C35.041 74.7031 37.2741 69.2418 41.3111 64.5081C42.9615 62.766 44.7982 61.5002 46.875 60.3125C47.0797 60.1909 47.2843 60.0692 47.4951 59.9439C49.4406 58.8714 51.6155 58.3761 53.75 57.8125C53.2684 57.676 53.2684 57.676 52.7771 57.5366C46.353 55.6604 41.3527 52.2873 38.0411 46.3427C35.066 40.7932 34.6152 34.7898 36.25 28.75C38.2415 22.7942 42.2614 18.2107 47.8125 15.3125C51.9472 13.3873 55.9355 13.0305 60.4515 13.0392ZM80 57.8125C80 63.8969 80 69.9813 80 76.25C80.1031 76.25 80.2063 76.25 80.3125 76.25C80.3774 75.9588 80.4422 75.6675 80.5091 75.3675C81.9304 69.4858 85.0193 64.4618 90.2323 61.2252C92.7314 59.738 95.3283 58.8805 98.125 58.125C98.125 58.0219 98.125 57.9188 98.125 57.8125C92.1438 57.8125 86.1625 57.8125 80 57.8125Z" fill="#A158FF"/>
<path d="M60.4514 13.0392C60.9247 13.0378 61.3979 13.0362 61.8711 13.0344C63.1457 13.0302 64.4203 13.03 65.6949 13.0308C66.7641 13.0311 67.8333 13.0296 68.9025 13.0281C71.4279 13.0246 73.9533 13.0245 76.4786 13.0264C79.0721 13.0283 81.6655 13.0244 84.2589 13.0178C86.4963 13.0122 88.7337 13.0104 90.9711 13.0114C92.3027 13.012 93.6342 13.0112 94.9657 13.0068C96.2193 13.0028 97.4728 13.0035 98.7263 13.0076C99.1824 13.0083 99.6385 13.0075 100.095 13.0049C106.935 12.9686 113.18 14.6974 118.184 19.5703C122.392 23.8503 124.572 29.4186 124.785 35.3907C124.641 41.6163 122.241 47.2005 117.993 51.7444C113.078 56.3539 107.423 57.9621 100.809 57.9338C100.304 57.9351 99.7982 57.9368 99.2927 57.9388C97.9303 57.9431 96.568 57.9414 95.2057 57.9385C93.7736 57.9361 92.3415 57.9383 90.9093 57.9398C88.5053 57.9415 86.1013 57.9392 83.6972 57.9348C80.9259 57.9297 78.1546 57.9313 75.3833 57.9365C72.9951 57.9407 70.607 57.9413 68.2189 57.9389C66.7964 57.9374 65.3739 57.9372 63.9514 57.9403C62.6134 57.943 61.2756 57.9411 59.9376 57.9357C59.4494 57.9345 58.9611 57.9348 58.4729 57.9369C54.6446 57.9517 51.1998 57.5125 47.7734 55.7227C47.5617 55.6139 47.3501 55.5051 47.132 55.393C41.8096 52.5727 38.0602 47.8154 36.1694 42.1179C34.5494 36.0558 35.1829 29.919 38.125 24.375C41.2971 19.1974 45.9995 15.414 51.875 13.75C54.7362 13.1303 57.5336 13.0336 60.4514 13.0392Z" fill="#F14D1D"/>
<path d="M80 13.125C83.9252 13.1057 87.8504 13.0863 91.8945 13.0664C93.1244 13.0579 94.3543 13.0493 95.6214 13.0405C97.1475 13.0363 97.1475 13.0363 97.8666 13.0355C98.3586 13.0341 98.8506 13.0308 99.3425 13.026C106.46 12.9599 112.919 14.4431 118.184 19.5703C122.392 23.8502 124.572 29.4186 124.785 35.3906C124.641 41.6163 122.241 47.2004 117.993 51.7444C112.749 56.6623 106.861 57.9674 99.8975 57.9041C99.3862 57.9027 98.875 57.9017 98.3638 57.9012C96.4873 57.8963 94.6108 57.8832 92.7344 57.8711C88.532 57.8518 84.3297 57.8324 80 57.8125C80 43.0656 80 28.3188 80 13.125Z" fill="#FE7161"/>
<path d="M56.7628 102.117C57.0162 102.117 57.2696 102.116 57.5306 102.116C58.3575 102.117 59.1842 102.122 60.011 102.127C60.5885 102.128 61.166 102.129 61.7435 102.129C63.2554 102.132 64.7673 102.138 66.2793 102.145C67.8253 102.151 69.3713 102.154 70.9174 102.157C73.9449 102.164 76.9725 102.174 80 102.188C80.0291 105.488 80.0513 108.789 80.0648 112.09C80.0713 113.623 80.08 115.157 80.0943 116.69C80.108 118.173 80.1154 119.656 80.1186 121.139C80.1209 121.702 80.1253 122.264 80.1322 122.826C80.2079 129.34 78.749 135.137 74.149 139.975C69.7194 144.409 64.2094 146.792 57.9688 146.953C51.5108 146.885 46.1668 144.477 41.5039 140.098C37.4633 135.897 35.4217 130.392 35.2148 124.609C35.3647 118.119 37.9596 112.145 42.6271 107.632C46.5019 104.176 51.5726 102.066 56.7628 102.117Z" fill="#0ACE82"/>
<path d="M110.625 59.0626C110.95 59.1987 111.274 59.3349 111.609 59.4752C113.831 60.4997 115.674 61.8187 117.5 63.4376C117.692 63.5999 117.883 63.7623 118.081 63.9295C122.302 67.773 124.329 73.4492 124.756 79.0162C124.959 85.297 122.726 90.7583 118.689 95.492C114.457 99.959 108.6 102.287 102.518 102.5C96.1203 102.585 90.4755 99.9757 85.8996 95.619C81.1996 90.6808 79.8307 84.7698 79.9145 78.1605C80.0979 72.2406 82.9926 67.124 87.2265 63.086C93.5469 57.7381 102.855 55.7617 110.625 59.0626Z" fill="#19BBFD"/>
</svg>
