<svg width="160" height="160" viewBox="0 0 160 160" fill="none" xmlns="http://www.w3.org/2000/svg">
<path d="M71 9L9.5 70.5L79.5 138.5L141.5 75L71 9Z" fill="white"/>
<path d="M86.1083 6.39012C86.6334 6.82349 87.108 7.31 87.5877 7.79214C87.7033 7.90739 87.8189 8.0226 87.9345 8.13776C88.2509 8.45311 88.5666 8.76919 88.8821 9.08539C89.226 9.42975 89.5706 9.77342 89.9151 10.1172C90.5184 10.7194 91.1212 11.322 91.7237 11.9249C92.3699 12.5714 93.0164 13.2178 93.6631 13.8638C93.704 13.9047 93.7449 13.9455 93.7871 13.9877C93.9538 14.1542 94.1205 14.3207 94.2872 14.4872C95.9775 16.1755 97.667 17.8645 99.3563 19.5539C99.5895 19.7872 99.8227 20.0204 100.056 20.2537C100.102 20.3 100.149 20.3463 100.196 20.3941C101.224 21.4217 102.252 22.4491 103.279 23.4764C103.514 23.7111 103.749 23.9458 103.984 24.1805C104.078 24.2747 104.172 24.3689 104.267 24.4632C104.313 24.5098 104.36 24.5565 104.408 24.6046C104.503 24.6991 104.597 24.7935 104.692 24.888C107.372 27.5673 110.052 30.2468 112.732 32.9269C112.806 33.0013 112.806 33.0013 112.882 33.0772C113.435 33.6304 113.989 34.1835 114.542 34.7367C114.693 34.8881 114.844 35.0395 114.996 35.1909C115.097 35.2919 115.198 35.3929 115.299 35.4939C118.493 38.6885 121.688 41.8823 124.883 45.0754C125.689 45.8801 126.494 46.6848 127.299 47.4895C127.349 47.539 127.399 47.5886 127.45 47.6396C128.978 49.1671 130.507 50.6947 132.035 52.2227C132.083 52.2706 132.131 52.3186 132.18 52.3681C133.233 53.4213 134.287 54.4746 135.34 55.528C135.717 55.9049 136.094 56.2818 136.471 56.6587C136.564 56.7525 136.658 56.8463 136.752 56.94C138.245 58.4332 139.738 59.9258 141.232 61.418C142.737 62.9211 144.241 64.4248 145.744 65.9294C145.952 66.1375 146.16 66.3455 146.368 66.5536C146.408 66.5944 146.449 66.6352 146.491 66.6772C147.135 67.3219 147.78 67.966 148.425 68.6099C149.06 69.2435 149.695 69.8779 150.328 70.513C150.667 70.8525 151.006 71.1916 151.346 71.5299C151.655 71.8381 151.964 72.1472 152.272 72.457C152.382 72.5678 152.493 72.6782 152.604 72.7883C153.948 74.1208 154.901 75.6089 155.469 77.4218C155.492 77.4931 155.515 77.5645 155.539 77.6379C156.244 80.0799 155.799 82.7355 154.609 84.9374C153.967 86.0983 153.087 87.0137 152.156 87.9422C152.042 88.0567 151.928 88.1712 151.813 88.2857C151.5 88.6001 151.186 88.9139 150.871 89.2277C150.53 89.5693 150.188 89.9113 149.847 90.2533C149.248 90.8525 148.65 91.4514 148.051 92.0501C147.408 92.6923 146.766 93.3347 146.124 93.9773C146.084 94.0179 146.043 94.0586 146.001 94.1004C145.836 94.2659 145.67 94.4314 145.505 94.5969C143.781 96.3222 142.057 98.047 140.333 99.7715C140.147 99.9571 139.962 100.143 139.776 100.328C139.73 100.374 139.684 100.42 139.637 100.468C138.616 101.489 137.595 102.51 136.574 103.531C136.154 103.951 135.734 104.372 135.313 104.792C135.267 104.839 135.22 104.885 135.172 104.933C132.511 107.596 129.849 110.258 127.187 112.92C127.087 113.02 126.988 113.119 126.888 113.219C126.439 113.668 125.989 114.118 125.539 114.568C125.339 114.768 125.138 114.969 124.938 115.169C124.837 115.27 124.737 115.37 124.637 115.47C121.463 118.644 118.29 121.818 115.118 124.993C114.318 125.793 113.519 126.592 112.719 127.392C112.67 127.442 112.621 127.491 112.57 127.542C111.053 129.06 109.535 130.578 108.018 132.096C107.97 132.144 107.922 132.191 107.873 132.24C106.827 133.287 105.781 134.333 104.735 135.379C104.36 135.754 103.986 136.128 103.611 136.502C103.518 136.596 103.425 136.689 103.332 136.782C101.849 138.265 100.366 139.749 98.8831 141.233C97.3897 142.728 95.8958 144.222 94.4012 145.716C94.1945 145.922 93.9878 146.129 93.7812 146.335C93.7406 146.376 93.7001 146.416 93.6584 146.458C93.0178 147.098 92.3778 147.739 91.738 148.38C91.1083 149.01 90.4781 149.641 89.8472 150.27C89.5101 150.607 89.1731 150.944 88.8368 151.281C88.5305 151.589 88.2235 151.895 87.9159 152.201C87.8059 152.311 87.696 152.421 87.5865 152.532C85.5897 154.543 83.1517 155.852 80.2582 155.862C77.0474 155.808 74.673 154.466 72.4505 152.236C72.3353 152.121 72.22 152.006 72.1047 151.891C71.788 151.575 71.4718 151.259 71.1556 150.942C70.8116 150.598 70.4671 150.254 70.1226 149.91C69.519 149.307 68.9156 148.704 68.3125 148.101C67.6654 147.454 67.0182 146.807 66.3708 146.16C66.3299 146.119 66.289 146.078 66.2468 146.036C66.0801 145.869 65.9135 145.703 65.7468 145.536C64.0087 143.8 62.2713 142.063 60.534 140.326C60.347 140.139 60.1601 139.952 59.9732 139.765C59.9268 139.719 59.8804 139.672 59.8326 139.624C58.8042 138.596 57.7757 137.568 56.7472 136.54C56.3236 136.116 55.9 135.693 55.4764 135.269C55.4296 135.223 55.3828 135.176 55.3345 135.128C52.6527 132.447 49.9709 129.766 47.2896 127.084C47.1893 126.984 47.0889 126.884 46.9886 126.783C46.5356 126.33 46.0827 125.877 45.6297 125.424C45.4277 125.222 45.2258 125.02 45.0238 124.818C44.9227 124.717 44.8216 124.616 44.7205 124.515C41.5235 121.318 38.326 118.122 35.1279 114.926C34.3221 114.12 33.5162 113.315 32.7104 112.51C32.6608 112.46 32.6112 112.411 32.5601 112.36C31.0307 110.831 29.5015 109.303 27.9725 107.774C27.9005 107.702 27.9005 107.702 27.8271 107.628C26.7732 106.575 25.7193 105.521 24.6655 104.467C24.2884 104.09 23.9113 103.713 23.5342 103.336C23.4404 103.242 23.3466 103.148 23.2528 103.054C21.7585 101.56 20.2638 100.066 18.7688 98.5724C17.2631 97.068 15.7578 95.563 14.2533 94.0574C14.0452 93.8493 13.8372 93.6411 13.6292 93.433C13.568 93.3718 13.568 93.3718 13.5056 93.3093C12.8606 92.6639 12.215 92.0191 11.5693 91.3744C10.9339 90.7401 10.2991 90.1053 9.66487 89.4698C9.32576 89.1301 8.98641 88.7906 8.64635 88.4519C8.33671 88.1433 8.0278 87.8341 7.71945 87.5243C7.60876 87.4134 7.4978 87.3027 7.38655 87.1923C6.54879 86.3605 5.79891 85.4901 5.25392 84.4336C5.22546 84.3788 5.197 84.3241 5.16767 84.2677C4.00363 81.9527 3.84435 79.204 4.62518 76.7448C5.21409 75.0224 6.23599 73.6593 7.51904 72.3836C7.59784 72.3047 7.6766 72.2257 7.75533 72.1468C7.97039 71.9312 8.18593 71.7162 8.40156 71.5012C8.63658 71.2667 8.87113 71.0318 9.10575 70.7969C9.51653 70.3858 9.92761 69.975 10.3389 69.5644C10.9504 68.9538 11.5615 68.3427 12.1725 67.7316C13.2004 66.7035 14.2287 65.6757 15.2571 64.6482C16.2753 63.631 17.2932 62.6136 18.311 61.5961C18.3743 61.5328 18.4376 61.4695 18.5028 61.4042C18.8244 61.0827 19.1459 60.7613 19.4674 60.4398C21.7441 58.1635 24.0211 55.8875 26.2983 53.6118C28.5104 51.4011 30.7223 49.1903 32.934 46.9792C33.0022 46.9111 33.0704 46.8429 33.1407 46.7727C33.8255 46.0881 34.5103 45.4035 35.1951 44.7189C36.5901 43.3243 37.9851 41.9297 39.3801 40.5352C39.4763 40.439 39.4763 40.439 39.5744 40.3409C43.8565 36.0602 48.1392 31.78 52.4219 27.5C52.7226 27.7541 53.0186 28.0088 53.2972 28.2875C53.3861 28.3763 53.3861 28.3763 53.4769 28.4668C53.5404 28.5305 53.6039 28.5942 53.6692 28.6598C53.738 28.7285 53.8067 28.7971 53.8775 28.8679C54.0671 29.0573 54.2564 29.2469 54.4457 29.4366C54.6503 29.6415 54.8551 29.8463 55.06 30.051C55.4144 30.4054 55.7686 30.7599 56.1228 31.1145C56.6349 31.6272 57.1472 32.1397 57.6595 32.6522C58.4909 33.4837 59.322 34.3153 60.153 35.1471C60.9601 35.9549 61.7673 36.7626 62.5745 37.5702C62.6492 37.6449 62.6492 37.6449 62.7254 37.7212C62.9752 37.9711 63.2251 38.221 63.4749 38.4709C65.546 40.5429 67.6169 42.6151 69.6875 44.6875C69.6718 44.7398 69.6561 44.7921 69.6399 44.846C69.6086 44.95 69.6086 44.95 69.5768 45.0562C69.5562 45.1246 69.5356 45.193 69.5144 45.2636C69.2632 46.1044 69.0145 46.9391 68.9063 47.8125C68.8976 47.8808 68.8889 47.949 68.88 48.0194C68.6623 50.0255 68.9787 52.1565 69.8438 53.9843C69.8708 54.0417 69.8979 54.0991 69.9258 54.1582C70.7166 55.8028 71.8178 57.2554 73.2813 58.3593C73.3437 58.4065 73.4061 58.4536 73.4705 58.5022C74.2685 59.0811 75.1186 59.5141 76.0156 59.9218C76.0156 73.689 76.0156 87.4562 76.0156 101.641C75.2422 102.027 75.2422 102.027 74.4531 102.422C73.6239 102.969 72.8948 103.528 72.1875 104.219C72.1376 104.265 72.0876 104.311 72.0361 104.358C70.001 106.276 68.9128 109.258 68.8184 112.003C68.7698 115.104 69.8756 118.066 72.0313 120.312C72.1599 120.444 72.29 120.575 72.4219 120.703C72.4794 120.763 72.4794 120.763 72.538 120.824C72.8625 121.16 73.2014 121.442 73.584 121.709C73.6414 121.749 73.6988 121.789 73.7579 121.83C75.7011 123.161 77.9306 123.863 80.2881 123.853C80.4424 123.852 80.4424 123.852 80.5999 123.851C81.3865 123.842 82.1264 123.777 82.8906 123.594C82.9744 123.575 82.9744 123.575 83.0598 123.556C84.9659 123.119 86.6936 122.185 88.125 120.859C88.1674 120.82 88.2098 120.781 88.2534 120.741C90.4942 118.658 91.7184 115.766 91.8652 112.728C91.9683 109.607 90.7968 106.671 88.685 104.399C87.7192 103.382 86.6969 102.701 85.4688 102.031C85.4688 88.3929 85.4688 74.7547 85.4688 60.7031C85.7332 60.8353 85.8595 60.9178 86.0603 61.1174C86.1417 61.1978 86.1417 61.1978 86.2248 61.2798C86.3133 61.3684 86.3133 61.3684 86.4037 61.4587C86.4668 61.5213 86.53 61.5839 86.5951 61.6484C86.8074 61.859 87.0191 62.0701 87.2308 62.2812C87.3825 62.4321 87.5344 62.5828 87.6862 62.7335C88.1421 63.1863 88.5972 63.6399 89.0523 64.0935C89.2665 64.3071 89.4809 64.5206 89.6952 64.7341C90.4075 65.4437 91.1195 66.1535 91.831 66.8639C92.0156 67.0482 92.2001 67.2324 92.3847 67.4167C92.4306 67.4625 92.4765 67.5083 92.5237 67.5555C93.2676 68.298 94.0128 69.0393 94.7586 69.78C95.524 70.5402 96.2882 71.3017 97.0514 72.0643C97.4799 72.4925 97.909 72.9202 98.3394 73.3466C98.7058 73.7096 99.071 74.0736 99.4349 74.439C99.6207 74.6255 99.8071 74.8112 99.9946 74.996C100.198 75.1963 100.399 75.3983 100.599 75.601C100.689 75.6883 100.689 75.6882 100.781 75.7773C101.171 76.1779 101.171 76.1779 101.174 76.5463C101.147 76.629 101.121 76.7117 101.094 76.7968C101.066 76.8902 101.038 76.9836 101.009 77.0797C100.976 77.1792 100.942 77.2786 100.908 77.3779C99.9763 80.2372 100.29 83.4031 101.631 86.083C102.065 86.9091 102.586 87.6594 103.203 88.3593C103.268 88.4355 103.333 88.5116 103.4 88.5901C103.924 89.1948 104.506 89.6905 105.156 90.1562C105.2 90.1873 105.243 90.2184 105.288 90.2505C106.507 91.1096 107.855 91.6674 109.297 92.0312C109.349 92.0451 109.401 92.059 109.454 92.0733C111.015 92.4781 112.972 92.4225 114.531 92.0312C114.585 92.0182 114.639 92.0052 114.695 91.9919C117.639 91.2637 120.153 89.3786 121.75 86.8127C123.23 84.3487 123.868 81.1074 123.166 78.2839C123.146 78.2052 123.146 78.2052 123.125 78.125C123.111 78.0682 123.096 78.0115 123.082 77.953C122.688 76.439 122.006 74.9651 121.016 73.75C120.98 73.7055 120.944 73.661 120.907 73.6152C119.515 71.9018 117.796 70.6501 115.703 69.9218C115.653 69.9042 115.603 69.8867 115.551 69.8685C113.308 69.0976 110.857 69.0887 108.596 69.7912C108.341 69.8479 108.217 69.8388 107.969 69.7656C107.813 69.6509 107.812 69.6509 107.658 69.5003C107.569 69.4146 107.569 69.4146 107.479 69.327C107.414 69.2635 107.35 69.2001 107.284 69.1346C107.181 69.0342 107.181 69.0342 107.075 68.9317C106.884 68.7456 106.693 68.5588 106.503 68.3717C106.34 68.2113 106.176 68.0515 106.012 67.8917C105.425 67.3194 104.841 66.7447 104.257 66.1694C104.211 66.124 104.165 66.0786 104.117 66.0318C103.201 65.1294 102.286 64.226 101.373 63.3208C101.172 63.1219 100.971 62.9229 100.771 62.724C100.721 62.6745 100.671 62.6251 100.619 62.5741C99.8114 61.7739 98.9989 60.9785 98.1844 60.185C97.3477 59.3696 96.5157 58.5497 95.6879 57.7253C95.2232 57.2628 94.7567 56.8024 94.2847 56.3472C93.8827 55.9593 93.485 55.5675 93.0923 55.1701C92.8919 54.9675 92.6901 54.7674 92.4825 54.5722C91.2738 53.4323 91.2738 53.4323 91.2342 52.7913C91.2892 52.2644 91.4499 51.789 91.6446 51.299C92.4095 49.1803 91.6362 46.2123 90.7565 44.2495C89.3539 41.4214 86.9618 39.3479 83.9893 38.3056C81.7355 37.5558 79.2924 37.5251 77.0233 38.2287C76.7866 38.2836 76.7066 38.2855 76.4844 38.2031C76.3344 38.0822 76.3344 38.0822 76.1751 37.9226C76.114 37.862 76.053 37.8015 75.9901 37.7391C75.9235 37.6718 75.857 37.6046 75.7884 37.5353C75.7173 37.4644 75.6462 37.3935 75.5729 37.3204C75.3754 37.1234 75.1785 36.9256 74.9818 36.7277C74.7697 36.5146 74.5568 36.3021 74.344 36.0895C73.9754 35.721 73.6072 35.3521 73.2394 34.9828C72.7074 34.449 72.1749 33.9158 71.6421 33.3828C70.7779 32.5181 69.9142 31.6528 69.0508 30.7872C68.212 29.9462 67.3729 29.1055 66.5335 28.2651C66.4818 28.2133 66.4301 28.1615 66.3768 28.1082C66.1173 27.8484 65.8578 27.5886 65.5983 27.3288C63.445 25.1731 61.2925 23.0165 59.1406 20.8593C59.4721 20.4639 59.8181 20.0922 60.1828 19.7275C60.2389 19.6712 60.2949 19.6149 60.3527 19.5568C60.5394 19.3692 60.7264 19.1819 60.9134 18.9946C61.0478 18.8597 61.1822 18.7248 61.3166 18.5899C61.719 18.1859 62.1218 17.7823 62.5247 17.3788C62.6767 17.2264 62.8288 17.074 62.9809 16.9217C63.6524 16.2487 64.3241 15.5758 64.9961 14.9032C65.1602 14.7389 65.3243 14.5747 65.4884 14.4104C65.5292 14.3696 65.57 14.3288 65.612 14.2867C66.2717 13.6263 66.9308 12.9652 67.5896 12.3039C68.2679 11.6231 68.9467 10.9428 69.6261 10.2632C70.0068 9.88231 70.3872 9.50119 70.767 9.1194C71.1247 8.75984 71.4832 8.4011 71.8422 8.04287C71.9731 7.91198 72.1038 7.78083 72.2342 7.64938C73.6706 6.20178 75.1388 5.11663 77.1094 4.53122C77.1632 4.51468 77.2171 4.49814 77.2725 4.48109C80.3188 3.58182 83.6756 4.43747 86.1083 6.39012Z" fill="#F05132"/>
</svg>
