<svg width="160" height="160" viewBox="0 0 160 160" fill="none" xmlns="http://www.w3.org/2000/svg">
<path d="M81.467 0.328885C81.9542 0.492097 82.4352 0.667241 82.9161 0.847936C83.0974 0.914154 83.2788 0.980372 83.4655 1.0486C84.0615 1.26671 84.6563 1.48761 85.2513 1.70849C85.6735 1.86351 86.0958 2.01832 86.5181 2.17292C87.3952 2.49413 88.2718 2.81627 89.1483 3.13908C90.9605 3.80574 92.7768 4.46096 94.5931 5.11625C95.5748 5.47057 96.5563 5.82576 97.5377 6.18085C97.9313 6.32323 98.325 6.46561 98.7186 6.60799C101.08 7.46226 101.08 7.46226 101.671 7.67584C102.064 7.81817 102.458 7.96051 102.851 8.10285C103.837 8.45942 104.823 8.81599 105.809 9.17257C107.56 9.80585 109.31 10.4391 111.061 11.0723C115.832 12.7974 120.602 14.5237 125.372 16.2509C128.686 17.4509 132 18.6504 135.314 19.8492C135.695 19.987 136.076 20.1247 136.457 20.2625C138.239 20.9072 140.022 21.5518 141.805 22.196C142.657 22.5038 143.509 22.8117 144.36 23.1196C144.761 23.2644 145.162 23.4092 145.563 23.5539C146.824 24.0096 148.086 24.4665 149.347 24.9246C149.53 24.9912 149.714 25.0577 149.903 25.1263C150.441 25.3218 150.979 25.518 151.517 25.7145C151.762 25.8035 151.762 25.8035 152.013 25.8943C153.143 26.3085 153.143 26.3085 153.367 26.5326C153.321 28.5225 153.049 30.515 152.819 32.4901C152.784 32.7976 152.749 33.1051 152.714 33.4126C152.618 34.2503 152.521 35.0879 152.424 35.9255C152.32 36.8326 152.215 37.7399 152.111 38.6471C151.931 40.2205 151.75 41.7937 151.568 43.367C151.304 45.6606 151.04 47.9544 150.776 50.2481C150.345 53.9954 149.914 57.7427 149.482 61.4899C149.068 65.085 148.654 68.6802 148.241 72.2754C148.216 72.4948 148.19 72.7141 148.164 72.9401C148.038 74.043 147.911 75.1459 147.784 76.2488C147.533 78.4323 147.282 80.6159 147.03 82.7995C147.006 83.0127 146.981 83.2259 146.956 83.4455C146.602 86.5254 146.247 89.6052 145.893 92.6849C145.848 93.0764 145.802 93.4679 145.757 93.8594C145.56 95.5769 145.362 97.2945 145.164 99.012C144.715 102.908 144.267 106.803 143.821 110.7C143.681 111.926 143.54 113.153 143.4 114.38C143.266 115.546 143.132 116.712 142.999 117.878C142.918 118.593 142.836 119.308 142.754 120.022C142.716 120.353 142.678 120.684 142.64 121.014C142.589 121.466 142.537 121.918 142.485 122.37C142.456 122.622 142.427 122.874 142.398 123.134C142.166 124.978 142.166 124.978 141.7 125.379C141.52 125.474 141.34 125.569 141.154 125.667C140.952 125.776 140.75 125.886 140.541 125.999C140.211 126.17 140.211 126.17 139.874 126.344C139.412 126.593 138.949 126.842 138.486 127.092C138.249 127.218 138.011 127.344 137.774 127.47C136.756 128.016 135.752 128.586 134.749 129.158C134.367 129.374 133.986 129.59 133.604 129.806C133.416 129.913 133.228 130.019 133.034 130.129C132.073 130.673 131.112 131.216 130.151 131.759C129.765 131.976 129.38 132.194 128.995 132.412C126.683 133.719 124.372 135.025 122.06 136.332C121.774 136.493 121.774 136.493 121.483 136.658C121.097 136.876 120.711 137.094 120.326 137.312C119.367 137.854 118.409 138.395 117.451 138.938C115.448 140.071 113.442 141.201 111.432 142.324C109.723 143.279 108.02 144.244 106.322 145.218C104.743 146.122 103.156 147.01 101.567 147.897C100.237 148.641 98.9103 149.392 97.5879 150.151C95.8391 151.154 94.0812 152.14 92.321 153.123C90.821 153.962 89.3274 154.811 87.8368 155.666C86.1867 156.612 84.5272 157.54 82.8663 158.466C82.6646 158.579 82.4629 158.691 82.255 158.807C81.9874 158.956 81.9874 158.956 81.7144 159.108C81.1969 159.392 81.1969 159.392 80.7008 159.748C80.201 160 80.201 160 79.6917 159.965C79.1933 159.798 78.7606 159.604 78.3001 159.351C78.1287 159.257 77.9573 159.163 77.7807 159.067C77.5969 158.964 77.413 158.862 77.2236 158.756C77.0297 158.649 76.8357 158.542 76.6359 158.432C74.993 157.521 73.3721 156.574 71.7532 155.622C70.235 154.731 68.6985 153.881 67.1501 153.044C65.7331 152.277 64.3324 151.484 62.9356 150.681C61.5605 149.892 60.1786 149.115 58.794 148.342C57.0672 147.377 55.3459 146.404 53.6298 145.42C52.3469 144.685 51.0612 143.956 49.7739 143.229C49.4843 143.065 49.4843 143.065 49.189 142.898C48.4173 142.463 47.6456 142.027 46.8737 141.592C44.7068 140.369 42.5427 139.142 40.3837 137.906C38.0521 136.571 35.7124 135.251 33.3668 133.941C30.9531 132.592 28.547 131.23 26.1456 129.859C26.0268 129.792 25.908 129.724 25.7856 129.654C25.1839 129.311 24.5831 128.966 23.9838 128.619C22.8787 127.979 21.7709 127.359 20.6281 126.789C20.432 126.687 20.2359 126.586 20.0339 126.482C19.6726 126.296 19.3075 126.118 18.9383 125.949C18.4254 125.68 18.0851 125.447 17.6884 125.025C17.5398 124.509 17.5398 124.509 17.4646 123.892C17.4346 123.657 17.4045 123.423 17.3736 123.181C17.3448 122.928 17.3161 122.674 17.2864 122.412C17.255 122.154 17.2237 121.896 17.1913 121.631C17.0846 120.745 16.986 119.859 16.8876 118.972C16.8491 118.63 16.8107 118.288 16.7722 117.946C16.6672 117.012 16.5629 116.078 16.4588 115.145C16.346 114.135 16.2325 113.125 16.1192 112.115C15.9228 110.364 15.7269 108.614 15.5312 106.864C15.247 104.322 14.9622 101.78 14.6772 99.2376C14.2131 95.0975 13.7494 90.9572 13.2861 86.8169C12.8391 82.8227 12.3919 78.8284 11.9444 74.8342C11.9032 74.4669 11.9032 74.4669 11.8613 74.0922C11.6688 72.374 11.4763 70.6558 11.2838 68.9376C11.0681 67.0128 10.8524 65.0879 10.6368 63.1631C10.5974 62.8114 10.5974 62.8114 10.5572 62.4527C10.1979 59.2454 9.83869 56.038 9.47967 52.8306C9.33505 51.5387 9.19039 50.2468 9.04574 48.9549C8.93079 47.9283 8.81587 46.9016 8.70101 45.875C8.09646 40.4701 8.09646 40.4701 7.48331 35.0663C7.43777 34.6678 7.3923 34.2693 7.34683 33.8708C7.21575 32.7225 7.08415 31.5742 6.95133 30.4261C6.90776 30.0458 6.86422 29.6655 6.82069 29.2851C6.80121 29.1189 6.78174 28.9527 6.76167 28.7814C6.67599 28.0282 6.61057 27.291 6.63317 26.5326C8.21586 25.8581 9.80847 25.2338 11.4282 24.6545C11.6523 24.5737 11.8764 24.493 12.1073 24.4098C12.5894 24.2361 13.0716 24.0626 13.5539 23.8893C14.8609 23.4198 16.1671 22.9482 17.4733 22.4764C17.6076 22.4279 17.7418 22.3794 17.8802 22.3295C20.5194 21.3762 23.1527 20.407 25.7846 19.4335C29.6745 17.9948 33.5694 16.5717 37.4749 15.1758C37.6919 15.0982 37.909 15.0207 38.1326 14.9407C38.5724 14.7835 39.0123 14.6263 39.4521 14.4691C39.671 14.3909 39.8899 14.3126 40.1154 14.232C40.335 14.1535 40.5547 14.0751 40.781 13.9942C43.3871 13.0622 45.9904 12.1227 48.593 11.1808C48.8359 11.0929 49.0789 11.005 49.3292 10.9145C53.1658 9.5254 56.9954 8.11745 60.8224 6.70205C65.321 5.03903 69.8325 3.41316 74.3483 1.79764C74.8867 1.605 75.4251 1.41221 75.9635 1.21942C76.3354 1.08635 76.7075 0.953585 77.0796 0.820829C77.3006 0.741742 77.5216 0.662655 77.7492 0.581172C77.9423 0.512221 78.1354 0.44327 78.3343 0.372229C79.468 -0.0502211 80.2727 -0.00183476 81.467 0.328885Z" fill="#283593"/>
<path d="M79.799 0C81.0559 0.279322 82.194 0.580101 83.3872 1.02465C83.639 1.11685 83.639 1.11685 83.896 1.21091C84.2586 1.34381 84.621 1.47723 84.9833 1.61113C85.5664 1.82666 86.15 2.04085 86.7338 2.25468C87.3494 2.4802 87.965 2.70581 88.5804 2.93183C90.5687 3.662 92.5602 4.38316 94.5524 5.10256C95.3417 5.38757 96.1308 5.67289 96.92 5.95819C97.5162 6.17376 98.1125 6.38929 98.7088 6.6048C100.484 7.24626 102.258 7.88821 104.033 8.53013C105.02 8.88715 106.007 9.24414 106.994 9.60113C107.189 9.67178 107.384 9.74242 107.585 9.8152C108.744 10.2343 109.903 10.6533 111.061 11.0723C115.832 12.7975 120.602 14.5238 125.372 16.2509C128.686 17.4509 132 18.6505 135.314 19.8492C135.695 19.987 136.076 20.1248 136.457 20.2625C138.239 20.9073 140.022 21.5519 141.805 22.196C142.657 22.5038 143.508 22.8117 144.36 23.1196C144.761 23.2645 145.162 23.4092 145.563 23.554C146.824 24.0097 148.086 24.4665 149.347 24.9246C149.53 24.9912 149.714 25.0578 149.903 25.1264C150.441 25.3218 150.979 25.518 151.517 25.7145C151.762 25.8035 151.762 25.8035 152.013 25.8943C153.143 26.3086 153.143 26.3086 153.367 26.5327C153.321 28.5225 153.049 30.5151 152.819 32.4901C152.784 32.7976 152.749 33.1051 152.714 33.4126C152.618 34.2503 152.521 35.0879 152.424 35.9255C152.319 36.8327 152.215 37.7399 152.111 38.6472C151.931 40.2205 151.749 41.7938 151.568 43.3671C151.304 45.6607 151.04 47.9544 150.776 50.2482C150.345 53.9955 149.914 57.7427 149.482 61.4899C149.068 65.0851 148.654 68.6803 148.241 72.2755C148.216 72.4948 148.19 72.7141 148.164 72.9401C148.038 74.043 147.911 75.1459 147.784 76.2488C147.533 78.4324 147.281 80.616 147.03 82.7995C147.006 83.0127 146.981 83.2259 146.956 83.4456C146.602 86.5254 146.247 89.6052 145.893 92.685C145.848 93.0765 145.802 93.468 145.757 93.8595C145.56 95.577 145.362 97.2945 145.164 99.012C144.715 102.908 144.267 106.804 143.821 110.7C143.681 111.926 143.54 113.153 143.399 114.38C143.266 115.546 143.132 116.712 142.999 117.878C142.918 118.593 142.836 119.308 142.754 120.023C142.716 120.353 142.678 120.684 142.64 121.014C142.589 121.466 142.537 121.918 142.485 122.37C142.442 122.748 142.442 122.748 142.398 123.134C142.166 124.978 142.166 124.978 141.7 125.379C141.52 125.474 141.34 125.569 141.154 125.667C140.952 125.776 140.75 125.886 140.541 125.999C140.321 126.113 140.101 126.227 139.874 126.344C139.412 126.593 138.949 126.842 138.486 127.092C138.249 127.218 138.011 127.344 137.774 127.47C136.756 128.016 135.752 128.586 134.749 129.158C134.367 129.374 133.986 129.59 133.604 129.806C133.416 129.913 133.228 130.019 133.034 130.129C132.073 130.673 131.112 131.216 130.151 131.759C129.765 131.977 129.38 132.194 128.995 132.412C125.528 134.372 125.528 134.372 122.06 136.332C121.87 136.439 121.679 136.547 121.482 136.658C121.097 136.876 120.711 137.094 120.326 137.312C119.367 137.854 118.409 138.395 117.451 138.938C115.448 140.072 113.442 141.201 111.432 142.324C109.723 143.279 108.02 144.244 106.322 145.218C104.743 146.123 103.156 147.01 101.567 147.897C100.237 148.641 98.9103 149.392 97.5879 150.151C95.839 151.154 94.0811 152.14 92.3209 153.123C90.8209 153.962 89.3274 154.811 87.8368 155.667C86.1867 156.612 84.5272 157.54 82.8662 158.466C82.6645 158.579 82.4628 158.691 82.255 158.807C81.9874 158.956 81.9874 158.956 81.7144 159.108C81.3595 159.31 81.0093 159.52 80.663 159.735C80.201 160 80.201 160 79.799 160C79.799 144.81 79.799 129.62 79.799 113.97C80.6042 113.701 80.8284 113.917 81.5805 114.287C81.6972 114.344 81.8138 114.401 81.934 114.459C82.1853 114.582 82.4362 114.706 82.6866 114.83C83.0792 115.026 83.4729 115.219 83.8669 115.411C85.1067 116.017 86.3394 116.636 87.5651 117.27C87.7655 117.373 87.9658 117.476 88.1722 117.582C88.5455 117.775 88.9176 117.97 89.288 118.168C89.4546 118.254 89.6211 118.34 89.7927 118.429C89.9356 118.505 90.0785 118.58 90.2257 118.658C90.9108 118.876 91.422 118.713 92.0496 118.393C92.2375 118.27 92.2375 118.27 92.4293 118.145C92.647 118.004 92.647 118.004 92.8691 117.861C93.103 117.707 93.103 117.707 93.3417 117.55C93.6856 117.328 94.0298 117.107 94.3742 116.886C94.5546 116.77 94.735 116.654 94.9209 116.534C95.8473 115.946 96.7868 115.379 97.7261 114.812C99.3297 113.84 100.924 112.856 102.513 111.859C104.27 110.757 106.036 109.672 107.81 108.597C109.402 107.63 110.982 106.644 112.56 105.654C114.183 104.637 115.817 103.637 117.455 102.644C117.806 102.431 118.157 102.218 118.507 102.005C118.83 101.809 119.153 101.614 119.476 101.42C119.622 101.331 119.768 101.242 119.918 101.151C120.046 101.074 120.174 100.997 120.306 100.918C120.636 100.714 120.636 100.714 120.804 100.302C120.642 100.252 120.48 100.203 120.312 100.152C119.449 99.8469 118.639 99.4666 117.814 99.0704C117.56 98.9492 117.56 98.9492 117.301 98.8256C116.149 98.2741 115.006 97.7077 113.866 97.132C112.602 96.4963 111.326 95.8865 110.05 95.2764C108.58 94.5731 107.112 93.8678 105.653 93.1407C105.524 93.0767 105.395 93.0127 105.263 92.9468C104.723 92.6759 104.222 92.3961 103.719 92.0603C103.962 91.33 104.134 91.2706 104.781 90.8888C104.964 90.7793 105.147 90.6699 105.336 90.5571C105.536 90.4396 105.736 90.3221 105.942 90.201C106.368 89.9469 106.793 89.6925 107.218 89.4378C107.438 89.3066 107.658 89.1753 107.884 89.0401C108.916 88.4184 109.935 87.7772 110.955 87.1357C112.568 86.1231 114.188 85.1222 115.817 84.1332C116.008 84.0165 116.2 83.8998 116.398 83.7796C117.215 83.2832 118.033 82.7878 118.853 82.2951C119.093 82.1498 119.333 82.0046 119.573 81.8593C119.771 81.7401 119.97 81.6209 120.174 81.4981C120.626 81.2412 120.626 81.2412 120.804 80.804C120.575 80.7383 120.575 80.7383 120.342 80.6712C119.302 80.295 118.33 79.8024 117.341 79.3114C117.12 79.2029 116.9 79.0944 116.673 78.9825C116.081 78.6913 115.49 78.3994 114.9 78.1073C113.812 77.5698 112.723 77.0347 111.635 76.4989C111.399 76.3829 111.164 76.267 110.921 76.1475C108.461 74.9363 105.993 73.743 103.518 72.5628C103.518 72.4302 103.518 72.2975 103.518 72.1608C103.921 71.8678 103.921 71.8678 104.491 71.524C104.702 71.3958 104.913 71.2675 105.13 71.1354C105.48 70.9257 105.48 70.9257 105.829 70.7161C106.19 70.4972 106.551 70.2778 106.912 70.0583C107.159 69.908 107.406 69.7579 107.654 69.6079C108.828 68.8957 109.993 68.1678 111.156 67.4372C112.885 66.3536 114.619 65.2781 116.357 64.2085C116.677 64.0111 116.677 64.0111 117.005 63.8097C118.266 63.0341 119.532 62.2665 120.804 61.5075C118.146 60.0659 115.438 58.7361 112.715 57.4231C112.568 57.3518 112.42 57.2806 112.268 57.2071C112.116 57.1343 111.965 57.0614 111.809 56.9863C109.821 56.0265 107.838 55.054 105.854 54.0829C103.029 52.7002 100.202 51.3209 97.3715 49.9484C95.585 49.0819 93.7999 48.2125 92.0163 47.3398C91.8203 47.2439 91.6243 47.1481 91.4224 47.0493C90.4685 46.5825 89.5147 46.1155 88.5611 45.6482C85.6465 44.2212 82.7231 42.8149 79.799 41.407C79.799 27.7427 79.799 14.0784 79.799 0Z" fill="#1A237E"/>
<path d="M69.2957 36.0756C70.1879 36.4933 71.0703 36.9254 71.9472 37.3743C73.4619 38.1475 74.9888 38.8907 76.524 39.6222C78.7981 40.7061 81.0612 41.8113 83.322 42.9226C84.4458 43.4751 85.5701 44.0267 86.6944 44.5782C86.9162 44.6871 87.1379 44.7959 87.3664 44.908C89.1885 45.8016 91.013 46.6901 92.8392 47.5753C95.4969 48.8636 98.1511 50.1591 100.804 51.4572C103.628 52.8391 106.454 54.2178 109.283 55.5901C113.194 57.4875 117.1 59.3974 121.005 61.3064C120.501 61.8289 119.992 62.1877 119.369 62.5658C119.161 62.6935 118.952 62.8211 118.736 62.9525C118.511 63.0892 118.285 63.2259 118.053 63.3667C117.574 63.6584 117.096 63.9507 116.618 64.243C116.497 64.3171 116.375 64.3912 116.25 64.4675C115.083 65.1807 113.923 65.9058 112.764 66.6331C110.798 67.8657 108.823 69.0843 106.844 70.2959C105.608 71.0516 105.608 71.0516 104.399 71.8505C103.92 72.1607 103.92 72.1607 103.518 72.1607C103.518 72.2934 103.518 72.426 103.518 72.5627C103.685 72.6139 103.852 72.6651 104.024 72.7179C104.801 72.992 105.529 73.334 106.266 73.6981C106.417 73.7714 106.567 73.8448 106.721 73.9204C107.216 74.1623 107.71 74.4052 108.204 74.6481C108.548 74.8171 108.893 74.986 109.238 75.1548C109.967 75.5112 110.695 75.868 111.423 76.2251C113.153 77.0737 114.886 77.9178 116.619 78.7624C117.505 79.1943 118.391 79.6265 119.277 80.0588C119.575 80.2043 119.874 80.3499 120.172 80.4955C120.38 80.5973 120.589 80.699 120.804 80.8039C120.539 81.6002 120.216 81.6968 119.501 82.1214C119.387 82.1893 119.274 82.2572 119.158 82.3271C118.786 82.5496 118.413 82.7697 118.04 82.9898C117.782 83.1441 117.524 83.2986 117.266 83.4533C116.875 83.6876 116.483 83.9219 116.092 84.1554C114.98 84.8191 113.876 85.4965 112.776 86.1808C112.609 86.2846 112.442 86.3884 112.27 86.4953C111.935 86.7031 111.6 86.911 111.266 87.119C110.541 87.569 109.816 88.018 109.091 88.4668C108.731 88.6897 108.371 88.9129 108.011 89.1362C107.24 89.6151 106.467 90.0916 105.687 90.5574C105.563 90.632 105.439 90.7067 105.311 90.7836C104.989 90.9766 104.666 91.1679 104.343 91.359C104.203 91.4577 104.063 91.5565 103.92 91.6582C103.92 91.7908 103.92 91.9235 103.92 92.0602C104.234 92.2063 104.234 92.2063 104.554 92.3554C106.57 93.297 108.566 94.2738 110.553 95.2763C113.229 96.6257 115.917 97.9473 118.624 99.2336C119.355 99.5811 120.082 99.9356 120.804 100.301C120.559 101.037 120.373 101.101 119.72 101.487C119.534 101.599 119.348 101.71 119.156 101.825C118.954 101.944 118.751 102.063 118.543 102.186C118.117 102.44 117.691 102.695 117.266 102.95C117.05 103.078 116.834 103.207 116.612 103.34C115.683 103.896 114.763 104.466 113.844 105.038C113.495 105.254 113.145 105.471 112.796 105.688C112.538 105.848 112.538 105.848 112.276 106.011C111.421 106.541 110.566 107.071 109.711 107.6C109.539 107.707 109.368 107.813 109.191 107.922C107.547 108.94 105.899 109.953 104.252 110.966C102.732 111.901 101.215 112.839 99.6987 113.779C98.0179 114.82 96.3336 115.856 94.649 116.891C94.4402 117.019 94.2313 117.148 94.0162 117.28C93.8178 117.401 93.6194 117.522 93.415 117.647C93.0689 117.862 92.7264 118.084 92.3898 118.314C92.2512 118.408 92.1127 118.502 91.97 118.599C91.8545 118.681 91.739 118.763 91.6201 118.848C91.0763 119.068 90.8138 118.971 90.2512 118.794C89.6455 118.528 89.0578 118.23 88.4689 117.929C88.2954 117.841 88.1219 117.754 87.9432 117.664C87.5724 117.477 87.2019 117.289 86.8316 117.101C85.8695 116.613 84.9055 116.128 83.9416 115.643C83.6594 115.501 83.6594 115.501 83.3715 115.356C82.0123 114.672 80.6472 114.004 79.2713 113.354C77.7619 112.641 76.2652 111.906 74.7739 111.156C72.6418 110.084 70.494 109.048 68.3386 108.024C65.5402 106.693 62.7451 105.357 59.9784 103.961C58.9101 103.422 57.841 102.885 56.7713 102.349C56.6497 102.288 56.528 102.227 56.4027 102.164C54.5925 101.258 52.7726 100.374 50.9433 99.5062C49.3633 98.7548 47.7995 97.9732 46.2367 97.1867C44.2354 96.1821 42.216 95.2166 40.1925 94.2577C39.9261 94.1308 39.6609 94.0012 39.397 93.8692C39.397 93.7366 39.397 93.6039 39.397 93.4672C39.6958 93.2448 39.6958 93.2448 40.1209 92.9993C40.2795 92.9062 40.4381 92.8132 40.6015 92.7174C40.7761 92.6166 40.9507 92.5158 41.1306 92.4119C42.6519 91.5173 44.1544 90.5999 45.6407 89.6481C45.8261 89.5295 46.0116 89.4109 46.2027 89.2887C46.5719 89.0523 46.9411 88.8159 47.3103 88.5794C48.1129 88.066 48.918 87.5563 49.7236 87.0476C49.8735 86.953 50.0233 86.8583 50.1777 86.7608C52.2749 85.4382 54.3789 84.1265 56.4824 82.814C51.9429 80.3765 47.3273 78.0629 42.6615 75.8766C41.5467 75.3516 40.4665 74.7828 39.397 74.1707C40.1368 73.316 41.0578 72.8222 42.0226 72.2612C42.3884 72.0451 42.7541 71.8287 43.1195 71.6119C43.3044 71.5022 43.4893 71.3925 43.6798 71.2794C44.4881 70.7944 45.285 70.2922 46.0804 69.7863C46.3952 69.5864 46.7101 69.3864 47.025 69.1864C47.1875 69.0832 47.3501 68.9799 47.5176 68.8736C50.4881 66.9925 53.4772 65.1416 56.4824 63.3165C55.9185 62.8684 55.3642 62.5383 54.7126 62.2329C54.423 62.0959 54.423 62.0959 54.1276 61.9561C53.918 61.8578 53.7084 61.7595 53.4925 61.6582C51.3912 60.6619 49.3077 59.6348 47.2308 58.5888C45.2979 57.6158 43.3548 56.6686 41.39 55.7611C41.1268 55.6377 41.1268 55.6377 40.8582 55.5118C40.63 55.4064 40.63 55.4064 40.3971 55.2988C39.9884 55.0687 39.7102 54.8188 39.397 54.4722C41.7494 52.9164 44.1089 51.3839 46.5358 49.9465C47.9605 49.1001 49.3584 48.2152 50.7541 47.3217C52.1345 46.4382 53.5213 45.5655 54.912 44.6984C56.4951 43.711 58.0753 42.7194 59.6517 41.7214C60.5379 41.1609 61.4259 40.6031 62.3155 40.0478C62.5238 39.9177 62.7322 39.7876 62.9469 39.6536C63.3652 39.3928 63.7839 39.1325 64.2029 38.8728C65.0862 38.3239 65.9641 37.773 66.8192 37.1811C66.9475 37.0934 67.0759 37.0058 67.208 36.9155C67.5343 36.6904 67.8573 36.4605 68.18 36.2303C68.7437 35.9798 68.7437 35.9798 69.2957 36.0756Z" fill="#5B6ABF"/>
<path d="M69.2957 36.0756C70.1879 36.4933 71.0703 36.9254 71.9472 37.3743C73.4619 38.1475 74.9888 38.8907 76.524 39.6222C78.7981 40.7061 81.0612 41.8113 83.322 42.9226C84.4458 43.4751 85.5701 44.0267 86.6944 44.5782C86.9162 44.6871 87.1379 44.7959 87.3664 44.908C89.1885 45.8016 91.013 46.6901 92.8392 47.5753C95.4969 48.8636 98.1511 50.1591 100.804 51.4572C103.628 52.8391 106.454 54.2178 109.283 55.5901C113.194 57.4875 117.1 59.3974 121.005 61.3064C120.501 61.8289 119.992 62.1877 119.369 62.5658C119.161 62.6935 118.952 62.8211 118.736 62.9525C118.511 63.0892 118.285 63.2259 118.053 63.3667C117.574 63.6584 117.096 63.9507 116.618 64.243C116.497 64.3171 116.375 64.3912 116.25 64.4675C115.083 65.1807 113.923 65.9058 112.764 66.6331C110.875 67.8171 108.978 68.9879 107.078 70.1546C105.42 71.1733 103.769 72.2026 102.121 73.2358C100.409 74.3077 98.6898 75.3683 96.9655 76.4202C95.9451 77.0442 94.9336 77.676 93.9392 78.3408C93.765 78.4559 93.5909 78.5711 93.4114 78.6897C93.09 78.9034 92.7707 79.1204 92.4542 79.3413C92.3128 79.4348 92.1714 79.5282 92.0257 79.6246C91.9053 79.7073 91.7849 79.7899 91.6608 79.8751C90.6847 80.1761 89.5564 79.3809 88.6935 78.9611C88.5643 78.8985 88.4352 78.8359 88.3022 78.7713C87.8794 78.5661 87.4573 78.3596 87.0352 78.1532C86.7383 78.0086 86.4414 77.8641 86.1445 77.7196C84.0549 76.701 81.9743 75.6648 79.8972 74.6209C78.1161 73.7259 76.3259 72.8535 74.5245 72.0003C72.9215 71.2381 71.3345 70.4452 69.7487 69.6481C67.998 68.7681 66.2437 67.8983 64.4723 67.0602C62.3805 66.0701 60.3127 65.0343 58.2447 63.9956C56.2973 63.0178 54.3434 62.0579 52.3736 61.1258C50.6537 60.309 48.9526 59.4556 47.2521 58.5995C45.3121 57.623 43.3621 56.672 41.3901 55.7611C41.2146 55.6788 41.0391 55.5966 40.8582 55.5118C40.63 55.4064 40.63 55.4064 40.3971 55.2988C39.9884 55.0687 39.7102 54.8188 39.397 54.4722C41.7494 52.9164 44.1089 51.3839 46.5358 49.9465C47.9605 49.1001 49.3584 48.2152 50.7541 47.3217C52.1345 46.4382 53.5213 45.5655 54.912 44.6984C56.4951 43.711 58.0753 42.7194 59.6517 41.7214C60.5379 41.1609 61.4259 40.6031 62.3155 40.0478C62.5238 39.9177 62.7322 39.7876 62.9469 39.6536C63.3652 39.3928 63.7839 39.1325 64.2029 38.8728C65.0862 38.3239 65.9641 37.773 66.8192 37.1811C66.9475 37.0934 67.0759 37.0058 67.208 36.9155C67.5343 36.6904 67.8573 36.4605 68.18 36.2303C68.7437 35.9798 68.7437 35.9798 69.2957 36.0756Z" fill="#E7E9F5"/>
<path d="M58.9452 63.961C59.2795 64.1661 59.612 64.3742 59.943 64.5847C60.896 65.1637 61.9007 65.6388 62.902 66.1278C63.3912 66.3679 63.8779 66.6129 64.3647 66.8578C65.7075 67.5331 67.0588 68.1883 68.4171 68.8317C70.2133 69.6828 71.993 70.5647 73.7688 71.4573C75.6976 72.4268 77.6335 73.3774 79.5849 74.3006C81.6783 75.296 83.7472 76.3406 85.8168 77.3845C86.495 77.7264 87.1749 78.0647 87.8559 78.4011C88.2363 78.5906 88.6143 78.7842 88.9924 78.978C89.338 79.1493 89.338 79.1493 89.6906 79.324C89.9924 79.4766 89.9924 79.4766 90.3002 79.6323C90.8447 79.8484 90.8447 79.8484 91.3625 79.6675C91.8949 79.3776 92.4157 79.0798 92.931 78.7603C93.243 78.5676 93.243 78.5676 93.5613 78.371C93.8941 78.1637 93.8941 78.1637 94.2337 77.9523C94.4653 77.8088 94.697 77.6653 94.9287 77.5218C95.5287 77.1501 96.1281 76.7773 96.7271 76.4041C97.0788 76.185 97.4307 75.9662 97.7826 75.7474C98.8292 75.0964 99.8753 74.4446 100.92 73.7909C101.094 73.6832 101.268 73.5756 101.447 73.4646C101.84 73.2107 102.203 72.9403 102.572 72.6539C103.116 72.3619 103.116 72.3619 103.651 72.496C104.437 72.8101 105.193 73.1659 105.952 73.5412C106.191 73.658 106.191 73.658 106.434 73.7771C106.957 74.0333 107.48 74.2905 108.003 74.5478C108.367 74.7263 108.731 74.9047 109.095 75.0831C109.858 75.4569 110.62 75.8311 111.383 76.2055C113.136 77.0655 114.891 77.9206 116.646 78.7761C117.528 79.2059 118.409 79.6359 119.291 80.066C119.587 80.2103 119.883 80.3546 120.178 80.4988C120.385 80.5996 120.591 80.7003 120.804 80.8041C120.539 81.6003 120.216 81.6969 119.501 82.1216C119.387 82.1895 119.274 82.2574 119.158 82.3273C118.786 82.5498 118.413 82.7698 118.04 82.99C117.782 83.1443 117.524 83.2988 117.266 83.4534C116.875 83.6878 116.483 83.922 116.092 84.1556C114.98 84.8193 113.876 85.4967 112.776 86.1809C112.607 86.2859 112.438 86.3909 112.264 86.499C111.927 86.708 111.591 86.917 111.254 87.1262C110.405 87.6537 109.556 88.1799 108.706 88.7061C108.534 88.8124 108.363 88.9187 108.186 89.0282C106.542 90.046 104.894 91.059 103.247 92.072C101.895 92.9034 100.545 93.737 99.196 94.5729C98.8589 94.7815 98.5218 94.9901 98.1847 95.1987C97.475 95.6379 96.7659 96.078 96.0572 96.5187C95.5796 96.8155 95.1015 97.1115 94.6233 97.4075C94.2789 97.621 93.9349 97.8353 93.591 98.0497C93.3802 98.18 93.1694 98.3103 92.9522 98.4446C92.7654 98.5606 92.5786 98.6766 92.3861 98.7961C91.3976 99.3579 91.3976 99.3579 90.8543 99.4975C90.2944 99.3295 90.2944 99.3295 89.6789 99.0201C89.448 98.9063 89.2172 98.7926 88.9794 98.6753C88.7291 98.5474 88.4788 98.4195 88.2286 98.2915C87.9681 98.1615 87.7074 98.0319 87.4465 97.9026C86.7701 97.5663 86.0958 97.2258 85.422 96.8843C84.7996 96.5694 84.1755 96.2577 83.5513 95.9462C82.8426 95.5922 82.1339 95.2379 81.426 94.8822C80.0034 94.168 78.5743 93.4704 77.1357 92.789C75.2631 91.9019 73.4091 90.9805 71.5578 90.0503C69.5347 89.0338 67.5058 88.0346 65.4593 87.0658C63.8629 86.3071 62.2827 85.5174 60.7035 84.7237C58.9611 83.8479 57.2153 82.9821 55.4522 82.1483C53.2759 81.1185 51.1253 80.0391 48.974 78.9583C46.874 77.9036 44.7693 76.8631 42.6409 75.8665C41.5329 75.345 40.4599 74.779 39.397 74.1709C40.1368 73.3161 41.0578 72.8224 42.0226 72.2614C42.3884 72.0453 42.7541 71.8288 43.1195 71.612C43.3044 71.5023 43.4893 71.3926 43.6798 71.2796C44.4881 70.7946 45.285 70.2923 46.0804 69.7865C47.1244 69.1231 48.169 68.461 49.218 67.8055C49.4205 67.6787 49.623 67.552 49.8316 67.4214C50.244 67.1648 50.6577 66.9101 51.0725 66.6573C52.0503 66.058 52.9864 65.4488 53.8858 64.7362C55.7419 63.3039 56.8222 62.7406 58.9452 63.961Z" fill="#9EA7D9"/>
</svg>
