<svg width="160" height="160" viewBox="0 0 160 160" fill="none" xmlns="http://www.w3.org/2000/svg">
<g clip-path="url(#clip0_219_180)">
<path d="M93.5062 1.22273C93.9385 1.31128 93.9385 1.31128 94.3794 1.40161C96.4885 1.84412 98.5811 2.34064 100.669 2.87294C100.886 2.92745 101.102 2.98196 101.325 3.03813C113.024 6.04519 124.409 12.1611 133.178 20.4752C133.521 20.7692 133.865 21.0615 134.211 21.3519C137.061 23.8336 139.675 26.5714 141.994 29.5514C142.229 29.8412 142.464 30.1305 142.701 30.4195C145.957 34.4315 148.67 38.7423 151.085 43.3032C151.181 43.4823 151.278 43.6614 151.377 43.8459C153.135 47.1208 154.491 50.5437 155.768 54.0296C155.847 54.243 155.926 54.4565 156.007 54.6765C158.324 61.0741 159.713 68.1418 159.901 74.9323C159.91 75.2522 159.91 75.2522 159.92 75.5787C160.112 82.1658 160.049 88.5115 158.7 94.9828C158.543 95.7387 158.404 96.4946 158.274 97.2553C156.56 106.844 152.132 116.899 146.456 124.803C146.115 125.279 145.782 125.76 145.45 126.243C143.878 128.508 142.17 130.627 140.341 132.69C140.218 132.828 140.096 132.966 139.969 133.109C137.097 136.33 134.106 139.381 130.698 142.041C130.398 142.283 130.097 142.526 129.797 142.768C122.164 148.912 113.505 153.21 104.251 156.343C103.859 156.48 103.468 156.617 103.077 156.754C100.908 157.48 98.7242 157.985 96.485 158.44C96.2221 158.493 95.9591 158.547 95.6882 158.602C94.779 158.778 93.8683 158.938 92.9553 159.093C92.7511 159.129 92.5469 159.164 92.3366 159.201C88.763 159.811 85.287 160.035 81.6637 159.996C80.8624 159.987 80.0614 159.984 79.2601 159.983C75.3119 159.967 71.4058 159.853 67.5063 159.179C67.2275 159.131 66.9488 159.084 66.6616 159.034C51.8182 156.402 38.4938 149.961 27.1117 140.116C26.8538 139.895 26.8538 139.895 26.5907 139.67C23.461 136.971 20.551 134.031 18.0203 130.765C17.7791 130.465 17.5373 130.167 17.295 129.869C15.4619 127.6 13.7927 125.254 12.2349 122.788C12.1246 122.615 12.0142 122.441 11.9006 122.262C8.3776 116.654 5.7667 110.636 3.69449 104.361C3.61286 104.118 3.53122 103.874 3.44711 103.623C2.36745 100.37 1.61352 97.1004 1.08401 93.715C0.973291 93.0212 0.853472 92.3311 0.728336 91.6399C0.125282 88.1725 -0.0152451 84.7792 0.00529288 81.2636C0.0097092 80.3689 0.00531461 79.4745 4.66199e-05 78.5797C-0.00568169 73.2351 0.516148 67.9855 1.7488 62.7791C1.81468 62.4847 1.88056 62.1903 1.94843 61.8869C5.81363 45.0164 15.8047 28.6296 29.5911 17.9999C29.946 17.7203 30.3007 17.4406 30.6555 17.1608C33.3234 15.0735 36.072 13.1727 38.958 11.399C39.2549 11.214 39.5518 11.0289 39.8577 10.8382C48.1596 5.87763 57.3218 2.94847 66.7831 1.22273C67.1091 1.16317 67.4351 1.10361 67.771 1.04224C75.8732 -0.315854 85.4662 -0.438862 93.5062 1.22273Z" fill="#CC6699"/>
<path d="M121.083 18.619C121.364 18.7428 121.645 18.8666 121.934 18.9942C126.335 21.101 130.113 24.7061 131.888 29.4295C132.09 30.1182 132.265 30.8009 132.417 31.5033C132.465 31.6782 132.513 31.8532 132.563 32.0335C134.03 38.9016 131.611 46.4762 128.166 52.2937C126.469 55.0373 124.5 57.4605 122.31 59.7956C121.989 60.1402 121.675 60.4919 121.363 60.8451C114.998 67.8648 105.366 71.6296 96.4314 73.377C95.8835 73.4888 95.8835 73.4888 95.3244 73.6028C92.3905 74.1743 89.5476 74.3943 86.564 74.37C85.8728 74.3653 85.1821 74.3701 84.4909 74.3756C80.8093 74.3806 77.3659 73.9847 74.0469 72.2058C73.8032 72.0895 73.5596 71.9732 73.3086 71.8534C70.3354 70.3453 68.0281 68.0577 66.5691 64.9698C66.3612 64.1629 66.4672 63.6324 66.6798 62.8354C67.1801 62.6169 67.1801 62.6169 67.8132 62.5426C68.3223 63.0081 68.3223 63.0081 68.8757 63.6956C72.0738 67.1742 76.6278 68.3678 81.1325 68.5157C93.5819 68.6872 106.36 63.2574 115.363 54.4263C119.721 50.0064 123.553 43.996 123.721 37.5244C123.668 34.7214 123.049 32.3426 121.083 30.332C115.499 25.5133 107.025 25.4826 100.163 26.0001C82.7973 27.687 64.5636 37.2029 51.6623 49.0727C51.4168 49.2875 51.1714 49.5022 50.9185 49.7235C46.8759 53.3204 43.5143 57.9011 41.7451 63.1282C41.6549 63.3823 41.5646 63.6363 41.4717 63.898C40.0617 68.4039 40.9029 72.9095 42.8962 77.0739C43.9381 78.9658 45.2506 80.5002 46.7246 82.0326C47.1163 82.4416 47.4996 82.8592 47.8825 83.277C49.689 85.2154 51.6316 86.8655 53.6979 88.4902C54.5609 89.172 55.4134 89.8674 56.2667 90.5621C56.4332 90.6975 56.5997 90.8328 56.7712 90.9723C57.0933 91.2341 57.4152 91.496 57.7371 91.758C58.1307 92.0782 58.5246 92.3977 58.9187 92.7171C60.3191 93.8617 61.6888 95.0411 63.0494 96.2356C63.2233 96.3854 63.3973 96.5353 63.5765 96.6896C64.499 97.496 65.2016 98.2665 65.9006 99.2919C66.3136 99.8125 66.3136 99.8125 66.9631 100.024C68.2517 99.9541 69.4799 99.5788 70.7131 99.2096C77.7433 97.1878 86.8267 98.169 93.2614 101.58C97.8607 104.276 100.921 107.97 102.65 113.121C102.815 113.84 102.898 114.514 102.948 115.251C102.974 115.591 103 115.931 103.027 116.281C103.162 119.643 102.466 122.111 100.381 124.713C98.8616 126.338 96.8843 128.063 94.6284 128.188C94.3818 128.17 94.1353 128.153 93.8813 128.135C93.8005 127.462 93.8005 127.462 93.8813 126.671C94.4314 126.172 94.4314 126.172 95.1741 125.719C97.0002 124.488 98.2471 123.08 99.1055 120.997C99.587 117.791 99.2751 115.028 97.5294 112.286C94.119 107.616 88.8999 105.52 83.4432 104.689C79.7113 104.17 75.9092 104.142 72.204 104.874C71.4967 105.002 71.4967 105.002 70.3633 105.002C70.4623 105.32 70.5613 105.638 70.6633 105.965C70.7936 106.388 70.9238 106.812 71.054 107.235C71.1192 107.444 71.1844 107.652 71.2516 107.867C73.3255 114.639 71.9876 122.654 69.0086 128.953C65.3906 136.084 59.1541 140.632 51.8958 143.129C48.1092 144.233 42.287 144.464 38.6282 142.776C36.0286 141.103 34.6613 138.455 33.8467 135.474C32.8236 130.542 34.0926 125.63 36.6448 121.4C41.4297 114.484 48.9601 109.8 56.0011 105.697C56.3106 105.517 56.6202 105.336 56.9391 105.15C57.2304 104.983 57.5217 104.815 57.8218 104.643C58.082 104.493 58.3422 104.343 58.6102 104.189C59.2313 103.872 59.7696 103.675 60.4461 103.538C60.4461 103.345 60.4461 103.151 60.4461 102.952C60.2788 102.871 60.1114 102.789 59.939 102.705C59.3582 102.391 58.8766 102.057 58.3597 101.644C58.1808 101.502 58.0019 101.361 57.8175 101.215C57.6272 101.063 57.4368 100.912 57.2407 100.756C55.7537 99.5875 54.253 98.4634 52.6894 97.4069C42.6783 90.6221 31.0425 82.3314 28.1443 69.5703C27.4667 65.1369 29.2875 60.5293 31.2612 56.6861C31.3489 56.5121 31.4366 56.3382 31.527 56.1589C33.6152 52.0545 36.3723 48.5974 39.4783 45.266C39.6578 45.0725 39.8373 44.879 40.0223 44.6796C42.4521 42.0741 44.9073 39.6095 47.7337 37.4677C48.3071 37.0328 48.8749 36.5906 49.4431 36.1484C61.1899 27.1 76.2763 19.2296 90.7496 16.3905C91.1429 16.3134 91.5354 16.2318 91.927 16.1463C101.301 14.1376 112.294 14.6524 121.083 18.619Z" fill="#FEFDFE"/>
<path d="M64.2754 108C64.7929 110.093 65.0127 112.009 64.9994 114.166C64.9981 114.46 64.9968 114.755 64.9955 115.058C64.9386 118.593 64.3428 121.886 62.71 125.031C62.5663 125.323 62.4226 125.616 62.2746 125.917C59.2941 131.605 54.5879 135.519 48.6211 137.563C46.5577 138.076 44.4426 138.289 42.4963 137.342C41.525 136.397 41.1841 135.567 41.0018 134.209C40.9173 128.521 43.8114 124.008 47.3687 119.89C47.646 119.565 47.646 119.565 47.9289 119.233C51.3008 115.536 55.6859 112.856 59.9005 110.304C60.9759 109.65 62.037 108.971 63.1013 108.297C63.6493 108 63.6493 108 64.2754 108Z" fill="#CC6799"/>
</g>
<defs>
<clipPath id="clip0_219_180">
<rect width="160" height="160" fill="white"/>
</clipPath>
</defs>
</svg>
