<svg width="160" height="160" viewBox="0 0 160 160" fill="none" xmlns="http://www.w3.org/2000/svg">
<path d="M0 0C52.8 0 105.6 0 160 0C160 52.8 160 105.6 160 160C107.2 160 54.4 160 0 160C0 107.2 0 54.4 0 0Z" fill="#3178C6"/>
<path d="M133.086 74.6485C133.171 74.6555 133.171 74.6555 133.258 74.6626C134.318 74.7511 135.377 74.8578 136.421 75.0684C136.561 75.0961 136.702 75.1238 136.843 75.1514C136.913 75.1653 136.983 75.1792 137.055 75.1935C137.26 75.2333 137.464 75.2709 137.669 75.3077C139.618 75.6595 141.469 76.2241 143.339 76.8657C143.502 76.9216 143.665 76.9768 143.828 77.0313C143.828 81.8524 143.828 86.6735 143.828 91.6407C143.54 91.5253 143.321 91.4162 143.066 91.2485C140.805 89.7622 138.283 88.8153 135.703 88.0469C135.628 88.0245 135.553 88.0021 135.476 87.979C130.262 86.4516 123.622 86.0004 118.734 88.6698C117.585 89.3297 116.659 90.2567 116.016 91.4063C115.986 91.4578 115.956 91.5092 115.925 91.5622C115.32 92.6694 115.283 94.1887 115.625 95.3907C116.451 98.1848 119.039 99.8909 121.474 101.216C121.929 101.459 122.387 101.696 122.847 101.93C123.016 102.016 123.185 102.103 123.353 102.191C124.936 103.008 126.585 103.699 128.228 104.385C129.324 104.843 130.409 105.316 131.482 105.825C131.727 105.941 131.972 106.056 132.217 106.171C134.844 107.408 137.38 108.846 139.639 110.679C139.758 110.775 139.877 110.869 139.996 110.963C141.257 111.986 142.511 113.194 143.438 114.531C143.494 114.611 143.494 114.611 143.551 114.693C145.07 116.872 146.075 119.182 146.563 121.797C146.578 121.88 146.594 121.963 146.611 122.049C146.832 123.285 146.902 124.508 146.895 125.762C146.894 125.834 146.894 125.906 146.894 125.98C146.89 127.04 146.863 128.089 146.719 129.141C146.711 129.2 146.704 129.26 146.696 129.322C146.271 132.648 145.09 135.746 142.969 138.359C142.912 138.429 142.912 138.429 142.854 138.501C142.028 139.514 141.119 140.456 140.078 141.25C140.037 141.282 139.995 141.315 139.952 141.348C136.359 144.131 132.06 145.436 127.65 146.223C127.521 146.246 127.393 146.27 127.264 146.293C126.102 146.504 124.924 146.606 123.747 146.706C123.601 146.718 123.455 146.731 123.31 146.744C118.008 147.207 112.388 146.915 107.189 145.756C106.948 145.702 106.706 145.65 106.464 145.599C104.057 145.076 101.66 144.311 99.4531 143.203C99.3863 143.176 99.3195 143.148 99.2506 143.12C99.0625 142.969 99.0625 142.969 99.0144 142.696C99.0128 142.58 99.0133 142.464 99.0155 142.347C99.015 142.251 99.015 142.251 99.0145 142.153C99.0139 141.938 99.016 141.723 99.0182 141.508C99.0183 141.354 99.0182 141.2 99.018 141.046C99.0179 140.627 99.0202 140.209 99.0229 139.79C99.0253 139.353 99.0256 138.915 99.026 138.478C99.0273 137.65 99.0305 136.821 99.0344 135.993C99.0387 135.05 99.0409 134.107 99.0429 133.164C99.0469 131.224 99.0538 129.284 99.0625 127.344C99.1617 127.418 99.2609 127.492 99.3601 127.567C99.4153 127.608 99.4705 127.649 99.5274 127.692C99.7391 127.851 99.9475 128.015 100.156 128.179C104.128 131.247 108.87 133.292 113.828 134.063C113.9 134.074 113.972 134.085 114.046 134.097C114.266 134.13 114.487 134.163 114.707 134.194C114.771 134.204 114.834 134.213 114.9 134.223C116.061 134.38 117.238 134.391 118.408 134.39C118.473 134.39 118.537 134.39 118.603 134.389C121.493 134.382 124.397 134.022 126.953 132.578C127.03 132.535 127.108 132.492 127.187 132.448C128.564 131.627 129.599 130.362 130.049 128.817C130.446 127.211 130.118 125.474 129.297 124.063C127.034 120.52 122.488 118.687 118.775 117.114C118.527 117.008 118.28 116.903 118.032 116.797C117.342 116.503 116.651 116.209 115.96 115.917C114.581 115.332 113.215 114.734 111.875 114.063C111.799 114.025 111.723 113.987 111.645 113.948C108.874 112.559 106.388 110.8 104.141 108.672C104.053 108.589 104.053 108.589 103.963 108.504C103.61 108.161 103.298 107.793 102.99 107.409C102.876 107.267 102.76 107.127 102.642 106.988C100.862 104.897 99.7363 102.27 99.1406 99.6094C99.121 99.5229 99.121 99.5229 99.101 99.4346C98.0492 94.6379 98.7936 89.0757 101.411 84.9122C101.795 84.3172 102.206 83.7498 102.656 83.2032C102.691 83.1603 102.726 83.1174 102.762 83.0731C103.616 82.0311 104.551 81.0516 105.625 80.2344C105.675 80.1955 105.725 80.1566 105.776 80.1166C107.931 78.4379 110.391 77.2143 112.969 76.3282C113.033 76.306 113.097 76.2838 113.163 76.2609C114.152 75.9211 115.162 75.6758 116.18 75.4426C116.379 75.397 116.577 75.3502 116.775 75.3028C122.079 74.051 127.691 74.2053 133.086 74.6485Z" fill="#FEFEFE"/>
<path d="M36.875 75.9375C55.3344 75.9375 73.7937 75.9375 92.8125 75.9375C92.8125 80.1656 92.8125 84.3938 92.8125 88.75C86.1867 88.75 79.5609 88.75 72.7344 88.75C72.7344 107.622 72.7344 126.494 72.7344 145.938C67.5008 145.938 62.2672 145.938 56.875 145.938C56.875 127.066 56.875 108.194 56.875 88.75C50.275 88.75 43.675 88.75 36.875 88.75C36.875 84.5219 36.875 80.2937 36.875 75.9375Z" fill="white"/>
</svg>
