<svg width="160" height="160" viewBox="0 0 160 160" fill="none" xmlns="http://www.w3.org/2000/svg">
<g clip-path="url(#clip0_214_128)">
<path d="M20.0035 -0.0515506C20.215 -0.0522518 20.4265 -0.052953 20.6444 -0.0536755C21.3506 -0.0555311 22.0568 -0.0545554 22.7631 -0.0535819C23.2755 -0.0543295 23.788 -0.0552499 24.3004 -0.056328C25.4134 -0.0583837 26.5264 -0.0589575 27.6393 -0.0585456C29.2944 -0.0579344 30.9496 -0.0596029 32.6047 -0.0616954C35.7332 -0.0655604 38.8617 -0.066689 41.9903 -0.0669183C44.4068 -0.0671022 46.8234 -0.0679262 49.24 -0.0691985C49.9361 -0.0695575 50.6322 -0.0699135 51.3283 -0.0702685C51.5014 -0.0703569 51.6744 -0.0704453 51.8527 -0.0705364C56.7196 -0.0729975 61.5865 -0.0745767 66.4534 -0.0743991C66.6369 -0.0743929 66.8203 -0.0743866 67.0093 -0.0743802C67.9389 -0.074347 68.8686 -0.0743073 69.7983 -0.0742663C69.9829 -0.0742583 70.1675 -0.0742504 70.3578 -0.0742421C70.7311 -0.074226 71.1045 -0.0742092 71.4779 -0.074192C77.2852 -0.0739469 83.0925 -0.0769485 88.8999 -0.082421C95.4276 -0.0885699 101.955 -0.0920072 108.483 -0.0916357C109.18 -0.0916059 109.876 -0.0915864 110.573 -0.091574C110.744 -0.0915693 110.916 -0.0915647 111.092 -0.0915599C113.848 -0.0915476 116.604 -0.0940982 119.36 -0.0975469C122.131 -0.100943 124.902 -0.101329 127.674 -0.0987032C129.319 -0.0972288 130.963 -0.0979464 132.608 -0.10188C133.839 -0.104574 135.069 -0.103048 136.3 -0.0999308C136.796 -0.0993177 137.292 -0.10004 137.788 -0.102275C141.478 -0.117795 144.836 0.148461 148.2 1.7999C148.318 1.85662 148.436 1.91334 148.557 1.97178C150.359 2.84804 151.912 3.84086 153.4 5.1999C153.63 5.40564 153.63 5.40564 153.865 5.61553C157.192 8.75146 159.832 13.6362 160.019 18.2621C160.026 18.8098 160.028 19.3572 160.027 19.9049C160.027 20.1155 160.028 20.3261 160.028 20.543C160.03 21.2509 160.03 21.9588 160.029 22.6667C160.03 23.1785 160.031 23.6903 160.032 24.202C160.034 25.4626 160.034 26.7231 160.035 27.9836C160.035 29.4936 160.037 31.0036 160.039 32.5136C160.043 36.1633 160.045 39.8131 160.047 43.4628C160.048 45.1901 160.049 46.9173 160.05 48.6445C160.053 54.5588 160.056 60.4732 160.058 66.3876C160.058 66.7588 160.058 67.1301 160.058 67.5013C160.058 67.7774 160.058 67.7774 160.058 68.0591C160.059 68.9918 160.059 69.9245 160.059 70.8572C160.059 71.0423 160.059 71.2274 160.059 71.4181C160.061 77.4172 160.065 83.4163 160.072 89.4154C160.079 95.7604 160.083 102.105 160.083 108.45C160.084 109.147 160.084 109.844 160.084 110.541C160.084 110.713 160.084 110.885 160.084 111.061C160.084 113.819 160.087 116.578 160.091 119.336C160.096 122.11 160.097 124.884 160.095 127.658C160.094 129.305 160.095 130.951 160.099 132.598C160.102 133.83 160.101 135.062 160.098 136.294C160.098 136.79 160.099 137.287 160.101 137.783C160.119 141.874 159.652 145.329 157.8 149C157.695 149.209 157.591 149.419 157.483 149.634C155.474 153.339 152.307 156.094 148.6 158C148.417 158.096 148.235 158.193 148.047 158.292C145.533 159.534 142.708 160.031 139.926 160.027C139.716 160.027 139.507 160.028 139.291 160.028C138.584 160.03 137.878 160.029 137.172 160.029C136.662 160.03 136.153 160.031 135.643 160.032C134.386 160.033 133.129 160.034 131.872 160.035C130.367 160.035 128.862 160.037 127.356 160.039C123.717 160.043 120.078 160.045 116.44 160.047C114.718 160.048 112.996 160.049 111.274 160.05C105.378 160.053 99.4814 160.056 93.5852 160.058C93.2151 160.058 92.8449 160.058 92.4748 160.058C92.2912 160.058 92.1077 160.058 91.9186 160.058C90.9886 160.058 90.0587 160.059 89.1287 160.059C88.8519 160.059 88.8519 160.059 88.5695 160.059C82.5884 160.061 76.6074 160.065 70.6264 160.072C64.3009 160.079 57.9755 160.083 51.65 160.083C50.9552 160.083 50.2603 160.083 49.5654 160.084C49.3088 160.084 49.3088 160.084 49.047 160.084C46.2973 160.084 43.5476 160.087 40.798 160.091C38.032 160.095 35.2661 160.097 32.5002 160.095C30.8585 160.094 29.217 160.095 27.5754 160.099C26.347 160.102 25.1187 160.101 23.8903 160.098C23.3953 160.098 22.9002 160.099 22.4052 160.101C16.7507 160.126 11.588 159.024 7.20002 155.2C6.94672 154.986 6.94672 154.986 6.6883 154.769C2.9387 151.527 0.355945 146.607 -0.0452897 141.639C-0.11855 140.115 -0.106661 138.59 -0.10022 137.064C-0.101 136.55 -0.102128 136.036 -0.103574 135.522C-0.106139 134.41 -0.105775 133.298 -0.103418 132.186C-0.0999227 130.532 -0.101049 128.878 -0.103052 127.224C-0.106481 124.269 -0.105388 121.315 -0.10238 118.36C-0.0997657 115.774 -0.0987309 113.189 -0.0992432 110.604C-0.0992753 110.432 -0.0993078 110.26 -0.0993409 110.083C-0.0994736 109.386 -0.0996148 108.688 -0.0997666 107.991C-0.10117 101.456 -0.0980767 94.92 -0.0928406 88.3845C-0.0882167 82.5823 -0.0871412 76.7801 -0.0891877 70.9779C-0.0897081 69.4916 -0.0902253 68.0053 -0.0907075 66.519C-0.090767 66.336 -0.0908262 66.153 -0.0908875 65.9645C-0.0924114 61.1108 -0.0911272 56.2571 -0.088968 51.4035C-0.0887384 50.881 -0.08851 50.3586 -0.0882828 49.8362C-0.0881318 49.4897 -0.0879788 49.1431 -0.0878236 48.7966C-0.0866934 46.2129 -0.086957 43.6292 -0.0878693 41.0454C-0.0888921 38.1072 -0.0877143 35.1689 -0.0836899 32.2306C-0.0814973 30.5876 -0.0809306 28.9445 -0.0827485 27.3014C-0.0839193 26.0732 -0.0819375 24.8449 -0.0787476 23.6166C-0.0779405 23.1208 -0.0781369 22.6251 -0.0794526 22.1293C-0.0951612 15.6544 1.62561 10.2717 6.20002 5.5249C9.88812 1.99024 14.9055 -0.0732922 20.0035 -0.0515506Z" fill="#563D7C"/>
<path d="M45 31.6C53.2582 31.5835 61.5165 31.567 70.025 31.55C73.9212 31.5391 73.9212 31.5391 77.8962 31.528C81.0937 31.5244 81.0937 31.5244 82.5956 31.5237C83.6336 31.523 84.6717 31.52 85.7098 31.5156C96.996 31.4688 96.996 31.4688 101.8 32.4C102.071 32.4495 102.071 32.4495 102.347 32.4999C108.336 33.5943 114.269 36.354 117.85 41.4391C121.529 47.2217 122.583 54.524 121.109 61.2144C119.684 67.1777 115.94 71.4427 110.813 74.6415C110.151 75.0432 109.48 75.4281 108.8 75.8C108.903 75.8391 109.007 75.8781 109.113 75.9184C112.514 77.2134 115.663 78.5579 118.4 81C118.606 81.1568 118.813 81.3135 119.025 81.475C123.403 85.4722 125.893 91.7577 126.2 97.6C126.521 104.972 125.241 112.105 120.16 117.765C119.714 118.25 119.257 118.725 118.8 119.2C118.626 119.393 118.626 119.393 118.448 119.591C114.593 123.747 108.378 126.117 102.988 127.325C102.817 127.364 102.646 127.403 102.47 127.443C98.6506 128.258 94.8963 128.487 91.0005 128.468C90.4873 128.468 89.9742 128.468 89.461 128.468C88.2376 128.469 87.0142 128.466 85.7908 128.462C84.3718 128.458 82.9528 128.457 81.5337 128.457C77.7975 128.454 74.0612 128.445 70.325 128.438C61.9678 128.425 53.6105 128.413 45 128.4C45 96.456 45 64.512 45 31.6Z" fill="#FEFEFE"/>
<path d="M66.4 85.4C72.866 85.369 72.866 85.369 79.4625 85.3375C81.4937 85.3238 81.4937 85.3238 83.5659 85.3099C85.2372 85.3054 85.2372 85.3054 86.0231 85.3045C86.5645 85.303 87.1057 85.2999 87.6471 85.2944C90.8254 85.2635 93.7718 85.3349 96.8 86.4C97.0359 86.4819 97.2718 86.5638 97.5148 86.6483C100.538 87.7549 102.436 89.7759 103.884 92.5703C104.764 94.6516 104.901 96.8825 104.888 99.1125C104.892 99.3547 104.896 99.5969 104.9 99.8464C104.898 103.1 103.782 105.818 101.6 108.2C99.9499 109.747 97.7674 110.656 95.6 111.2C95.4199 111.251 95.2398 111.302 95.0542 111.355C92.4063 112.006 89.6954 111.877 86.9871 111.861C86.3328 111.857 85.6785 111.857 85.0242 111.857C83.1203 111.854 81.2164 111.845 79.3125 111.837C75.0514 111.825 70.7903 111.813 66.4 111.8C66.4 103.088 66.4 94.376 66.4 85.4Z" fill="#563D7C"/>
<path d="M66.4 48.2001C72.0533 48.176 72.0533 48.176 74.869 48.1699C76.3848 48.1666 77.9006 48.1624 79.4163 48.1548C80.7468 48.1481 82.0773 48.1447 83.4078 48.1432C83.9128 48.1421 84.4179 48.1399 84.9229 48.1366C89.6698 48.1072 94.6168 48.2185 98.3375 51.6251C100.643 54.1105 101.148 57.0267 101.058 60.2938C101.001 61.449 100.776 62.5071 100.4 63.6001C100.316 63.8607 100.316 63.8607 100.231 64.1266C99.3574 66.5902 97.6173 68.2137 95.2899 69.3454C94.538 69.6701 93.7852 69.9661 93 70.2001C92.834 70.2513 92.668 70.3024 92.4969 70.3551C89.9455 71.0178 87.3364 70.875 84.7203 70.8587C84.1907 70.8576 83.6611 70.8567 83.1315 70.8561C81.8871 70.8543 80.6427 70.8493 79.3983 70.8433C77.84 70.8359 76.2817 70.8326 74.7235 70.8294C71.949 70.8236 69.1745 70.8115 66.4 70.8001C66.4 63.3421 66.4 55.8841 66.4 48.2001Z" fill="#563D7C"/>
</g>
<defs>
<clipPath id="clip0_214_128">
<rect width="160" height="160" fill="white"/>
</clipPath>
</defs>
</svg>
