<svg width="160" height="160" viewBox="0 0 160 160" fill="none" xmlns="http://www.w3.org/2000/svg">
<g clip-path="url(#clip0_214_151)">
<path d="M9.45318 0C56.0141 0 102.575 0 150.547 0C150.547 0.482723 150.543 0.94398 150.498 1.42121C150.493 1.48107 150.488 1.54092 150.482 1.60259C150.465 1.80214 150.447 2.00164 150.429 2.20114C150.416 2.34698 150.403 2.49283 150.39 2.63867C150.354 3.04096 150.318 3.44321 150.282 3.84545C150.242 4.28465 150.203 4.72389 150.164 5.16313C150.095 5.93782 150.026 6.7125 149.956 7.48716C149.881 8.32631 149.806 9.16547 149.731 10.0046C149.726 10.058 149.721 10.1113 149.716 10.1663C149.692 10.4388 149.668 10.7114 149.643 10.9839C149.465 12.9797 149.286 14.9755 149.108 16.9712C148.927 18.9889 148.747 21.0067 148.566 23.0244C148.558 23.1195 148.558 23.1195 148.549 23.2166C148.48 23.9947 148.41 24.7727 148.341 25.5508C148.233 26.7557 148.125 27.9606 148.017 29.1655C148.005 29.3022 147.993 29.4389 147.981 29.5756C147.791 31.6953 147.602 33.815 147.412 35.9347C146.698 43.9229 145.984 51.9113 145.014 62.7881C144.935 63.6697 144.856 64.5513 144.778 65.4329C144.525 68.2676 144.272 71.1023 144.019 73.937C143.593 78.7107 143.167 83.4844 142.74 88.258C142.718 88.5048 142.696 88.7516 142.674 88.9984C142.349 92.6467 142.023 96.2949 141.697 99.9431C141.676 100.183 141.654 100.423 141.633 100.663C141.504 102.107 141.375 103.552 141.246 104.996C140.891 108.978 140.535 112.959 140.18 116.941C139.996 119.002 139.812 121.063 139.628 123.125C139.62 123.216 139.612 123.307 139.604 123.401C139.522 124.313 139.441 125.225 139.359 126.138C139.319 126.588 139.279 127.038 139.239 127.488C139.231 127.576 139.223 127.665 139.215 127.756C139.089 129.17 138.962 130.583 138.836 131.997C138.711 133.402 138.586 134.807 138.46 136.213C138.386 137.048 138.311 137.884 138.237 138.719C138.187 139.278 138.137 139.836 138.087 140.395C138.058 140.713 138.03 141.032 138.002 141.35C137.976 141.64 137.95 141.93 137.924 142.219C137.91 142.373 137.897 142.526 137.883 142.679C137.842 143.142 137.796 143.602 137.734 144.062C137.665 144.082 137.595 144.101 137.524 144.121C134.167 145.045 130.811 145.972 127.456 146.904C125.098 147.56 122.74 148.214 120.381 148.866C118.164 149.479 115.947 150.092 113.731 150.708C113.675 150.723 113.619 150.739 113.562 150.755C112.812 150.963 112.062 151.172 111.312 151.38C110.051 151.731 108.79 152.081 107.529 152.432C107.456 152.452 107.382 152.472 107.307 152.494C104.873 153.17 102.438 153.844 100.004 154.517C97.6123 155.178 95.2215 155.841 92.8311 156.505C90.1681 157.246 87.5043 157.983 84.8401 158.719C84.616 158.781 84.392 158.843 84.168 158.905C83.8856 158.983 83.6032 159.061 83.3207 159.139C82.7354 159.3 82.1506 159.463 81.5675 159.632C81.4767 159.658 81.3859 159.685 81.2924 159.712C81.1323 159.758 80.9724 159.805 80.8128 159.853C80.7442 159.873 80.6755 159.893 80.6048 159.913C80.5476 159.93 80.4904 159.947 80.4314 159.965C79.9283 160.055 79.4905 159.992 79.0046 159.852C78.9183 159.828 78.9183 159.828 78.8303 159.803C78.6391 159.75 78.4483 159.696 78.2575 159.641C78.1202 159.603 77.9829 159.565 77.8456 159.526C77.5502 159.444 77.2551 159.361 76.96 159.277C76.4871 159.143 76.014 159.011 75.5408 158.878C74.9634 158.717 74.3861 158.555 73.809 158.392C72.378 157.99 70.9459 157.592 69.5136 157.195C69.0777 157.074 68.6418 156.953 68.206 156.832C66.184 156.27 64.1615 155.71 62.1387 155.151C59.5566 154.438 56.9752 153.722 54.3946 153.003C54.316 152.981 54.2373 152.959 54.1563 152.937C53.7604 152.826 53.3645 152.716 52.9686 152.606C52.8906 152.584 52.8125 152.562 52.732 152.54C52.5746 152.496 52.4172 152.452 52.2598 152.408C50.5204 151.924 48.7808 151.44 47.0411 150.957C46.9323 150.927 46.9323 150.927 46.8213 150.896C44.5315 150.26 42.2414 149.625 39.9511 148.991C37.5526 148.326 35.1544 147.661 32.7564 146.994C32.6482 146.964 32.6482 146.964 32.5379 146.933C32.4656 146.913 32.3934 146.893 32.3189 146.873C32.2103 146.842 32.2103 146.842 32.0995 146.812C31.9529 146.771 31.8063 146.73 31.6597 146.689C30.5556 146.383 29.4515 146.076 28.3473 145.77C27.8586 145.634 27.3698 145.498 26.8811 145.363C26.4145 145.233 25.9479 145.104 25.4813 144.975C25.1932 144.895 24.905 144.815 24.6169 144.735C24.4839 144.698 24.3508 144.661 24.2177 144.624C23.5651 144.443 22.9132 144.261 22.2657 144.062C22.141 143.126 22.0476 142.189 21.9646 141.248C21.9508 141.092 21.9368 140.937 21.9229 140.781C21.8848 140.354 21.8469 139.927 21.8091 139.5C21.7678 139.034 21.7262 138.568 21.6846 138.102C21.6117 137.283 21.5388 136.464 21.4661 135.646C21.3879 134.764 21.3095 133.882 21.2309 133C21.226 132.944 21.221 132.889 21.2159 132.831C21.1904 132.545 21.165 132.26 21.1396 131.975C20.9603 129.961 20.7812 127.948 20.6022 125.934C20.4108 123.781 20.2192 121.628 20.0276 119.475C20.0217 119.409 20.0159 119.344 20.0099 119.276C19.9325 118.407 19.8551 117.538 19.7777 116.668C19.6865 115.643 19.5953 114.618 19.504 113.593C19.4732 113.247 19.4423 112.9 19.4114 112.553C19.2407 110.635 19.0699 108.717 18.8992 106.798C18.2413 99.4048 17.5827 92.0113 16.5986 80.9753C16.585 80.8234 16.5715 80.6714 16.5579 80.5194C16.3205 77.858 16.0832 75.1966 15.8458 72.5351C15.4611 68.2223 15.0766 63.9094 14.6921 59.5965C14.6521 59.1473 14.612 58.6981 14.572 58.2489C14.5586 58.0996 14.5453 57.9502 14.532 57.8009C14.5254 57.7271 14.5189 57.6532 14.5121 57.5771C14.4063 56.3906 14.3005 55.2042 14.1948 54.0177C14.1751 53.7968 14.1554 53.576 14.1357 53.3551C14.0769 52.6958 14.0181 52.0365 13.9594 51.3772C13.7736 49.2935 13.5879 47.2099 13.4021 45.1262C13.3958 45.0563 13.3896 44.9865 13.3832 44.9145C12.9707 40.288 12.5579 35.6615 12.1448 31.035C12.0958 30.4867 12.0469 29.9385 11.9979 29.3902C11.9926 29.3305 11.9872 29.2709 11.9818 29.2094C11.8208 27.407 11.66 25.6047 11.4992 23.8023C11.4942 23.7469 11.4893 23.6914 11.4842 23.6342C11.3866 22.5398 11.289 21.4455 11.1914 20.3511C11.1396 19.7703 11.0878 19.1895 11.036 18.6087C11.0314 18.5571 11.0268 18.5055 11.022 18.4523C10.872 16.7707 10.7218 15.0891 10.5714 13.4075C10.4295 11.8195 10.2877 10.2316 10.1463 8.64357C10.0641 7.72152 9.98177 6.79949 9.89915 5.87748C9.84478 5.27061 9.79066 4.66372 9.73675 4.05681C9.70625 3.71356 9.67564 3.37032 9.64472 3.0271C9.61674 2.71641 9.58907 2.40569 9.56166 2.09495C9.55179 1.98369 9.54181 1.87245 9.53169 1.76122C9.51796 1.61004 9.5047 1.45882 9.49146 1.30761C9.484 1.22415 9.47655 1.14069 9.46887 1.0547C9.44872 0.703672 9.45318 0.351606 9.45318 0Z" fill="#264DE4"/>
<path d="M35.7031 29.4531C64.8875 29.4531 94.0719 29.4531 124.141 29.4531C124.141 29.9638 124.139 30.4321 124.092 30.9336C124.084 31.0182 124.084 31.0182 124.076 31.1045C124.059 31.2899 124.041 31.4753 124.023 31.6608C124.011 31.7945 123.998 31.9282 123.986 32.0619C123.959 32.348 123.932 32.634 123.905 32.92C123.832 33.6896 123.76 34.4594 123.689 35.2292C123.678 35.3473 123.678 35.3473 123.667 35.4677C123.522 37.0219 123.387 38.5768 123.254 40.132C123.07 42.2855 122.879 44.438 122.678 46.5899C122.494 48.5723 122.318 50.5554 122.148 52.5391C121.97 54.6247 121.785 56.7096 121.592 58.7939C121.58 58.9199 121.568 59.0458 121.557 59.1718C121.534 59.4196 121.511 59.6674 121.488 59.9153C121.482 59.9754 121.477 60.0355 121.471 60.0975C121.46 60.2177 121.449 60.3378 121.437 60.458C121.336 61.5568 121.236 62.6557 121.138 63.7549C121.13 63.8386 121.123 63.9224 121.115 64.0087C121.013 65.1516 120.913 66.2947 120.813 67.4378C120.76 68.0389 120.708 68.64 120.655 69.241C120.642 69.3955 120.628 69.5499 120.614 69.7044C120.421 71.9115 120.223 74.1181 120.017 76.3241C119.83 78.3389 119.653 80.3544 119.48 82.3706C119.291 84.5823 119.091 86.793 118.886 89.0033C118.688 91.1367 118.498 93.2705 118.315 95.4053C118.137 97.4938 117.951 99.5814 117.756 101.668C117.567 103.698 117.388 105.728 117.215 107.759C116.999 110.282 116.77 112.804 116.536 115.325C116.517 115.53 116.498 115.735 116.479 115.94C116.467 116.071 116.455 116.202 116.443 116.333C116.349 117.347 116.258 118.361 116.172 119.375C115.823 119.508 115.478 119.636 115.12 119.741C115.043 119.763 114.967 119.786 114.889 119.809C114.809 119.831 114.73 119.854 114.648 119.878C114.565 119.902 114.482 119.926 114.397 119.951C113.841 120.111 113.284 120.258 112.722 120.394C112.21 120.522 111.702 120.666 111.194 120.809C110.9 120.892 110.606 120.973 110.312 121.055C110.195 121.087 110.078 121.12 109.961 121.152C107.852 121.738 107.852 121.738 107.676 121.787C107.558 121.82 107.441 121.852 107.323 121.885C107.036 121.965 106.749 122.044 106.462 122.123C105.787 122.309 105.115 122.502 104.443 122.7C103.824 122.883 103.205 123.049 102.577 123.201C102.141 123.31 101.713 123.446 101.283 123.577C100.833 123.714 100.383 123.833 99.9261 123.943C99.5212 124.042 99.1239 124.16 98.7256 124.282C98.0104 124.502 97.2886 124.689 96.5637 124.874C95.9557 125.03 95.3547 125.201 94.7549 125.386C94.3201 125.519 93.8835 125.633 93.4415 125.74C93.0367 125.839 92.6394 125.957 92.2412 126.079C91.526 126.299 90.8043 126.486 90.0793 126.671C89.4713 126.827 88.8704 126.998 88.2706 127.183C87.8357 127.316 87.3992 127.43 86.9571 127.537C86.5523 127.635 86.155 127.753 85.7568 127.876C85.0415 128.096 84.3197 128.283 83.5946 128.468C83.0544 128.606 82.5201 128.756 81.9873 128.921C81.801 128.976 81.6146 129.032 81.4281 129.087C81.3103 129.122 81.193 129.16 81.0762 129.199C79.9663 129.567 79.1376 129.337 78.0469 128.984C77.8409 128.922 77.6346 128.86 77.4282 128.799C77.2975 128.76 77.1669 128.721 77.0365 128.681C76.6465 128.562 76.2558 128.455 75.8594 128.359C75.3169 128.228 74.7853 128.07 74.2517 127.907C73.8521 127.786 73.4528 127.676 73.0469 127.578C72.5726 127.463 72.1071 127.33 71.6406 127.188C71.1805 127.047 70.7216 126.915 70.2539 126.802C69.7329 126.676 69.22 126.529 68.7061 126.377C67.9916 126.165 67.2743 125.971 66.5526 125.786C66.0963 125.668 65.647 125.538 65.1981 125.395C64.8205 125.282 64.4393 125.186 64.0576 125.088C63.4047 124.921 62.759 124.737 62.1147 124.54C61.7246 124.421 61.334 124.314 60.9375 124.219C60.395 124.088 59.8634 123.93 59.3298 123.766C58.9303 123.645 58.5309 123.536 58.125 123.438C57.5825 123.306 57.0509 123.149 56.5173 122.985C56.1178 122.864 55.7184 122.754 55.3125 122.656C54.77 122.525 54.2384 122.367 53.7048 122.204C53.3053 122.083 52.9059 121.973 52.5 121.875C51.9575 121.744 51.4259 121.586 50.8923 121.423C50.4928 121.301 50.0934 121.192 49.6875 121.094C49.145 120.963 48.6134 120.805 48.0798 120.641C47.581 120.49 47.0803 120.362 46.5735 120.24C46.1272 120.128 45.6886 119.99 45.2488 119.856C44.7525 119.705 44.255 119.572 43.75 119.453C43.6469 118.672 43.5602 117.891 43.495 117.106C43.4802 116.928 43.4651 116.75 43.4499 116.572C43.4278 116.312 43.4059 116.053 43.384 115.793C43.3243 115.084 43.2635 114.376 43.2025 113.667C43.1962 113.593 43.1899 113.52 43.1834 113.444C43.0469 111.858 42.9013 110.273 42.7541 108.689C42.5382 106.365 42.3302 104.041 42.132 101.716C41.9944 100.102 41.8523 98.4876 41.702 96.8741C41.6947 96.7961 41.6874 96.7181 41.6799 96.6378C41.6088 95.8748 41.5371 95.112 41.4649 94.3491C41.4385 94.0705 41.4123 93.7918 41.386 93.5131C41.3679 93.3215 41.3496 93.1299 41.3313 92.9383C41.3204 92.8229 41.3096 92.7074 41.2987 92.5919C41.2892 92.4925 41.2798 92.3931 41.27 92.2907C41.2532 92.0722 41.2485 91.8595 41.25 91.6406C43.5079 91.6388 45.7658 91.6375 48.0238 91.6366C48.2901 91.6365 48.5564 91.6364 48.8227 91.6363C48.8757 91.6363 48.9287 91.6363 48.9833 91.6363C49.8428 91.6359 50.7024 91.6353 51.5619 91.6346C52.4432 91.6339 53.3246 91.6334 54.2059 91.6333C54.7012 91.6332 55.1965 91.6329 55.6918 91.6324C56.1574 91.6318 56.623 91.6317 57.0886 91.6318C57.26 91.6318 57.4314 91.6316 57.6029 91.6313C57.8358 91.6309 58.0688 91.631 58.3017 91.6312C58.3705 91.631 58.4393 91.6308 58.5101 91.6305C58.9755 91.6317 58.9755 91.6317 59.0625 91.7188C59.0788 91.8298 59.0903 91.9415 59.0998 92.0533C59.1061 92.1258 59.1124 92.1983 59.1189 92.2729C59.1256 92.3533 59.1322 92.4337 59.1391 92.5165C59.1464 92.6009 59.1537 92.6854 59.1612 92.7724C59.1771 92.9578 59.1929 93.1431 59.2085 93.3284C59.2468 93.7823 59.2861 94.2361 59.3253 94.69C59.3392 94.8512 59.353 95.0125 59.3669 95.1738C59.4625 96.2874 59.5623 97.4006 59.6624 98.5139C59.6924 98.8471 59.7222 99.1804 59.752 99.5137C59.8331 100.42 59.9143 101.326 59.9974 102.232C60.0275 102.559 60.0572 102.886 60.0869 103.213C60.1003 103.36 60.1139 103.507 60.1277 103.654C60.194 104.364 60.2579 105.067 60.2344 105.781C60.2985 105.791 60.3627 105.8 60.4288 105.81C60.7383 105.866 61.0394 105.943 61.3428 106.025C61.4751 106.061 61.6074 106.096 61.7398 106.131C61.8114 106.15 61.8829 106.169 61.9567 106.189C62.2029 106.254 62.4495 106.318 62.6962 106.381C63.5649 106.604 64.4307 106.832 65.2916 107.083C65.9544 107.274 66.6229 107.443 67.2914 107.613C68.052 107.807 68.8063 108.017 69.5584 108.242C70.1761 108.424 70.7984 108.582 71.4241 108.735C71.918 108.856 72.4074 108.988 72.8955 109.131C73.5754 109.33 74.2599 109.508 74.9463 109.683C75.6906 109.872 76.4314 110.07 77.168 110.288C78.0135 110.538 78.0135 110.538 78.8623 110.776C78.92 110.793 78.9778 110.809 79.0372 110.826C79.7178 111.01 80.3026 110.948 80.9766 110.767C81.0445 110.749 81.1124 110.731 81.1824 110.713C81.6656 110.586 82.1447 110.447 82.6229 110.303C83.0413 110.177 83.4625 110.069 83.8867 109.966C84.4309 109.833 84.97 109.688 85.5078 109.531C86.1105 109.356 86.7154 109.198 87.3251 109.049C87.7934 108.933 88.2547 108.802 88.7162 108.662C89.2069 108.515 89.7025 108.393 90.1999 108.271C90.6187 108.168 91.0325 108.055 91.4453 107.93C91.9897 107.765 92.5381 107.625 93.0905 107.49C93.5093 107.387 93.9231 107.273 94.3359 107.148C94.8803 106.984 95.4287 106.844 95.9811 106.709C96.4538 106.592 96.9196 106.46 97.3854 106.319C97.9031 106.164 98.4263 106.034 98.9514 105.907C99.0146 105.892 99.0777 105.876 99.1428 105.861C99.199 105.847 99.2551 105.834 99.313 105.82C99.4595 105.784 99.4595 105.784 99.6094 105.703C99.6462 105.516 99.6462 105.516 99.6594 105.281C99.6709 105.137 99.6709 105.137 99.6826 104.991C99.6865 104.937 99.6904 104.884 99.6945 104.829C99.7173 104.52 99.7428 104.211 99.7678 103.902C99.7763 103.796 99.7763 103.796 99.7849 103.687C99.8612 102.738 99.9478 101.79 100.033 100.842C100.064 100.503 100.094 100.164 100.125 99.8255C100.135 99.7101 100.145 99.5948 100.156 99.4794C100.161 99.422 100.166 99.3646 100.171 99.3054C100.192 99.0717 100.213 98.838 100.234 98.6043C100.3 97.8749 100.365 97.1455 100.431 96.416C100.435 96.3623 100.44 96.3086 100.445 96.2532C100.489 95.7662 100.532 95.2793 100.576 94.7923C100.605 94.4664 100.634 94.1406 100.663 93.8147C100.668 93.7609 100.673 93.7071 100.678 93.6517C100.743 92.9273 100.808 92.2029 100.873 91.4785C100.909 91.0816 100.945 90.6847 100.98 90.2878C101.005 90.0101 101.03 89.7325 101.055 89.4549C101.154 88.353 101.252 87.251 101.343 86.1484C101.351 86.0622 101.358 85.9761 101.365 85.8873C101.398 85.4921 101.43 85.0968 101.462 84.7015C101.473 84.5641 101.484 84.4266 101.495 84.2892C101.5 84.2296 101.504 84.17 101.509 84.1085C101.547 83.6614 101.629 83.2604 101.719 82.8125C81.5062 82.8125 61.2937 82.8125 40.4688 82.8125C40.0214 78.2495 40.0214 78.2495 39.8877 76.7188C39.872 76.5403 39.8562 76.3618 39.8404 76.1833C39.8155 75.9014 39.7906 75.6194 39.7657 75.3374C39.7012 74.6054 39.6356 73.8736 39.5697 73.1418C39.2183 69.2392 39.2183 69.2392 39.0537 67.3194C39.0402 67.1616 39.0266 67.0037 39.013 66.8459C38.9945 66.632 38.9763 66.4181 38.9581 66.2042C38.9528 66.1426 38.9474 66.0809 38.9419 66.0174C38.9177 65.7281 38.9062 65.4471 38.9062 65.1562C60.1242 65.1562 81.3422 65.1562 103.203 65.1562C103.229 64.718 103.255 64.2797 103.281 63.8281C103.311 63.4784 103.341 63.1292 103.375 62.7798C103.394 62.5812 103.412 62.3826 103.431 62.184C103.441 62.0796 103.451 61.9752 103.461 61.8707C103.514 61.3063 103.567 60.7418 103.619 60.1773C103.625 60.1187 103.63 60.0602 103.636 59.9998C103.759 58.6723 103.872 57.3441 103.984 56.0156C104.155 54.004 104.334 51.9935 104.523 49.9835C104.538 49.829 104.552 49.6746 104.567 49.5201C104.584 49.3339 104.601 49.1478 104.619 48.9617C104.677 48.3444 104.721 47.7282 104.766 47.1094C82.4906 47.1094 60.2156 47.1094 37.2656 47.1094C36.9305 43.3711 36.5953 39.6328 36.25 35.7812C35.9847 32.8682 35.9847 32.8682 35.7171 29.9554C35.7048 29.7883 35.7031 29.6206 35.7031 29.4531Z" fill="#FEFEFE"/>
<path d="M80 11.7969C99.0266 11.7969 118.053 11.7969 137.656 11.7969C137.656 12.2487 137.647 12.6628 137.593 13.1055C137.505 13.8788 137.444 14.6539 137.383 15.4297C137.321 16.2127 137.258 16.9947 137.169 17.7753C137.095 18.4504 137.046 19.1277 136.992 19.8047C136.93 20.5876 136.868 21.3695 136.779 22.1499C136.691 22.95 136.635 23.7536 136.573 24.5561C136.564 24.6758 136.555 24.7955 136.545 24.9152C136.542 24.9668 136.538 25.0185 136.534 25.0717C136.505 25.4426 136.462 25.8108 136.416 26.18C136.3 27.1482 136.219 28.1197 136.132 29.0909C136.113 29.3044 136.094 29.518 136.075 29.7315C136.029 30.2484 135.982 30.7653 135.936 31.2822C135.899 31.7028 135.861 32.1233 135.824 32.5439C135.816 32.6341 135.816 32.6341 135.808 32.7262C135.797 32.8484 135.786 32.9706 135.775 33.0929C135.673 34.2357 135.571 35.3785 135.469 36.5213C135.382 37.4992 135.294 38.477 135.207 39.4549C135.105 40.5939 135.003 41.733 134.901 42.8721C134.891 42.9938 134.88 43.1156 134.869 43.2373C134.861 43.3272 134.861 43.3272 134.853 43.4188C134.815 43.8383 134.778 44.2577 134.74 44.6771C134.694 45.1892 134.649 45.7012 134.603 46.2133C134.58 46.4739 134.557 46.7345 134.533 46.9951C134.447 47.9592 134.362 48.9222 134.313 49.889C134.287 50.3267 134.236 50.761 134.185 51.1963C134.101 51.9427 134.034 52.688 133.984 53.4375C133.93 54.2608 133.851 55.0786 133.758 55.8984C133.688 56.5358 133.636 57.1727 133.594 57.8125C133.54 58.6358 133.46 59.4536 133.368 60.2734C133.297 60.9108 133.245 61.5477 133.203 62.1875C133.149 63.0108 133.069 63.8286 132.977 64.6484C132.897 65.376 132.843 66.1037 132.795 66.834C132.744 67.5859 132.665 68.3332 132.581 69.082C132.516 69.6713 132.47 70.2572 132.442 70.8493C132.425 71.1621 132.388 71.4716 132.349 71.7822C132.267 72.446 132.215 73.1103 132.167 73.7772C132.091 74.8401 132 75.8986 131.879 76.9575C131.8 77.6712 131.748 78.3852 131.701 79.1018C131.651 79.8334 131.575 80.5604 131.493 81.2891C131.422 81.9264 131.37 82.5633 131.328 83.2031C131.274 84.0264 131.194 84.8442 131.102 85.6641C131.032 86.3014 130.98 86.9383 130.938 87.5781C130.883 88.4014 130.804 89.2192 130.711 90.0391C130.641 90.6764 130.589 91.3133 130.547 91.9531C130.493 92.7752 130.414 93.5917 130.321 94.4103C130.236 95.177 130.178 95.9444 130.129 96.7142C130.12 96.843 130.12 96.843 130.112 96.9745C130.107 97.0498 130.102 97.125 130.098 97.2026C130.077 97.4348 130.039 97.6609 130 97.8906C129.987 98.0777 129.975 98.2649 129.966 98.4521C129.941 98.8966 129.903 99.3379 129.854 99.7803C129.768 100.542 129.709 101.306 129.648 102.07C129.586 102.853 129.524 103.635 129.435 104.416C129.361 105.091 129.311 105.768 129.258 106.445C129.196 107.228 129.133 108.01 129.044 108.791C128.97 109.466 128.921 110.143 128.867 110.82C128.805 111.603 128.743 112.385 128.654 113.166C128.566 113.966 128.51 114.769 128.448 115.572C128.439 115.691 128.43 115.811 128.42 115.931C128.417 115.982 128.413 116.034 128.409 116.087C128.383 116.415 128.348 116.741 128.308 117.067C128.207 117.893 128.131 118.721 128.058 119.551C128.044 119.705 128.03 119.859 128.016 120.013C127.979 120.426 127.943 120.84 127.906 121.254C127.867 121.689 127.828 122.125 127.79 122.56C127.725 123.29 127.66 124.021 127.595 124.751C127.52 125.593 127.445 126.436 127.37 127.278C127.298 128.091 127.225 128.905 127.153 129.718C127.122 130.063 127.092 130.408 127.061 130.752C127.025 131.159 126.988 131.565 126.952 131.971C126.939 132.12 126.926 132.268 126.913 132.416C126.841 133.225 126.773 134.034 126.719 134.844C126.576 134.883 126.576 134.883 126.43 134.923C125.978 135.048 125.525 135.173 125.073 135.298C124.991 135.321 124.908 135.344 124.823 135.367C123.688 135.681 122.554 135.997 121.421 136.318C120.547 136.566 119.672 136.81 118.794 137.044C117.909 137.28 117.026 137.524 116.143 137.769C116.062 137.791 115.982 137.813 115.899 137.836C114.878 138.118 113.858 138.405 112.84 138.698C112.211 138.879 111.579 139.05 110.947 139.219C110.047 139.46 109.149 139.708 108.252 139.956C108.172 139.978 108.091 140 108.008 140.023C106.988 140.306 105.97 140.592 104.953 140.885C104.288 141.076 103.62 141.256 102.952 141.434C102.33 141.6 101.712 141.775 101.094 141.953C100.405 142.151 99.7157 142.344 99.0234 142.529C98.2181 142.744 97.4144 142.965 96.6113 143.188C96.5517 143.205 96.4921 143.222 96.4307 143.239C96.126 143.324 95.8213 143.408 95.5166 143.493C94.9457 143.652 94.3747 143.811 93.8037 143.97C93.7472 143.985 93.6906 144.001 93.6323 144.017C92.5117 144.329 91.3908 144.639 90.2697 144.949C89.3238 145.21 88.3779 145.472 87.4324 145.735C82.6282 147.071 82.6282 147.071 80.9521 147.524C80.83 147.558 80.83 147.558 80.7054 147.592C80.5972 147.621 80.5972 147.621 80.4868 147.65C80.4258 147.667 80.3649 147.683 80.3022 147.7C80.1562 147.734 80.1562 147.734 80 147.734C80 141.676 80 135.617 80 129.375C80.5672 129.22 81.1344 129.066 81.7188 128.906C82.0915 128.804 82.4643 128.701 82.8369 128.599C82.9318 128.572 83.0268 128.546 83.1246 128.519C83.666 128.37 84.2069 128.219 84.7474 128.066C85.5373 127.844 86.3288 127.631 87.1235 127.426C87.5786 127.309 88.0271 127.178 88.475 127.035C88.8458 126.925 89.22 126.829 89.5947 126.733C90.2283 126.571 90.8572 126.397 91.4844 126.211C92.1874 126.003 92.8935 125.812 93.6038 125.63C93.9812 125.532 94.3551 125.431 94.7266 125.312C95.1734 125.17 95.625 125.053 96.0791 124.937C96.7127 124.774 97.3416 124.6 97.9688 124.414C98.6718 124.206 99.3779 124.015 100.088 123.833C100.466 123.735 100.839 123.634 101.211 123.516C101.658 123.373 102.109 123.256 102.563 123.14C103.197 122.977 103.826 122.803 104.453 122.617C105.156 122.409 105.862 122.218 106.573 122.036C107.028 121.918 107.477 121.789 107.925 121.646C108.314 121.529 108.708 121.429 109.102 121.328C109.655 121.186 110.202 121.036 110.746 120.863C111.174 120.733 111.606 120.619 112.037 120.502C112.678 120.328 113.317 120.15 113.957 119.971C114.445 119.833 114.933 119.697 115.422 119.561C115.519 119.534 115.519 119.534 115.618 119.507C115.777 119.463 115.935 119.419 116.094 119.375C116.226 117.931 116.358 116.488 116.489 115.044C116.494 114.99 116.499 114.936 116.504 114.881C116.758 112.1 117.009 109.32 117.246 106.538C117.42 104.505 117.601 102.472 117.791 100.44C117.973 98.4762 118.147 96.5114 118.315 94.5459C118.504 92.3397 118.702 90.1345 118.906 87.9297C119.109 85.7428 119.305 83.5555 119.492 81.3672C119.681 79.1594 119.879 76.9525 120.083 74.7461C120.272 72.7023 120.458 70.6583 120.635 68.6133C120.644 68.5027 120.654 68.3921 120.663 68.2815C120.678 68.1167 120.692 67.952 120.706 67.7872C120.72 67.6241 120.734 67.4611 120.748 67.298C120.753 67.2445 120.758 67.1911 120.762 67.136C120.867 65.9193 120.975 64.7027 121.084 63.4863C121.089 63.4336 121.093 63.3808 121.098 63.3264C121.222 61.9387 121.349 60.5512 121.477 59.1638C121.49 59.0231 121.503 58.8824 121.516 58.7416C121.523 58.6714 121.529 58.6012 121.536 58.5288C121.563 58.2418 121.589 57.9549 121.616 57.6679C121.629 57.5234 121.642 57.379 121.656 57.2345C121.869 54.9284 122.073 52.6216 122.27 50.3141C122.428 48.4788 122.592 46.6444 122.763 44.8104C122.928 43.0481 123.081 41.2851 123.232 39.5215C123.523 36.1643 123.832 32.8087 124.141 29.4531C94.9563 29.4531 65.7719 29.4531 35.7031 29.4531C35.7031 29.4273 35.7031 29.4016 35.7031 29.375C50.3211 29.375 64.9391 29.375 80 29.375C80 23.5742 80 17.7734 80 11.7969Z" fill="#2965F0"/>
<path d="M41.25 91.6407C43.508 91.6389 45.7659 91.6375 48.0238 91.6367C48.2901 91.6366 48.5564 91.6365 48.8227 91.6364C48.8757 91.6364 48.9287 91.6364 48.9833 91.6363C49.8429 91.636 50.7024 91.6354 51.562 91.6347C52.4433 91.6339 53.3246 91.6335 54.2059 91.6333C54.7012 91.6332 55.1965 91.633 55.6918 91.6324C56.1574 91.6319 56.623 91.6317 57.0886 91.6319C57.26 91.6318 57.4315 91.6317 57.6029 91.6314C57.8358 91.631 58.0688 91.6311 58.3017 91.6313C58.3705 91.6311 58.4393 91.6308 58.5102 91.6306C58.9755 91.6318 58.9755 91.6318 59.0625 91.7188C59.0789 91.8298 59.0903 91.9416 59.0998 92.0534C59.1061 92.1259 59.1125 92.1983 59.119 92.273C59.1256 92.3534 59.1323 92.4337 59.1391 92.5166C59.1464 92.601 59.1537 92.6855 59.1612 92.7725C59.1771 92.9578 59.1929 93.1432 59.2086 93.3285C59.2469 93.7824 59.2861 94.2362 59.3253 94.69C59.3392 94.8513 59.353 95.0126 59.3669 95.1739C59.4626 96.2875 59.5623 97.4007 59.6624 98.5139C59.6924 98.8472 59.7222 99.1805 59.752 99.5137C59.8331 100.42 59.9143 101.326 59.9975 102.232C60.0275 102.559 60.0572 102.886 60.0869 103.213C60.1004 103.36 60.114 103.507 60.1277 103.654C60.194 104.365 60.2579 105.067 60.2344 105.781C60.2986 105.791 60.3627 105.8 60.4288 105.81C60.7384 105.866 61.0394 105.943 61.3428 106.025C61.4751 106.061 61.6075 106.096 61.7398 106.131C61.8114 106.15 61.883 106.17 61.9567 106.189C62.203 106.254 62.4495 106.318 62.6963 106.381C63.5649 106.604 64.4307 106.832 65.2916 107.083C65.9544 107.275 66.6229 107.443 67.2914 107.613C68.052 107.807 68.8063 108.017 69.5585 108.242C70.1762 108.425 70.7985 108.582 71.4241 108.735C71.918 108.856 72.4074 108.988 72.8955 109.131C73.5754 109.33 74.2599 109.508 74.9463 109.683C75.7677 109.892 76.5834 110.115 77.396 110.356C77.8864 110.501 78.3778 110.64 78.8721 110.772C78.9311 110.787 78.9902 110.803 79.051 110.82C79.3925 110.909 79.7277 110.972 80.0782 111.016C80.0266 111.041 79.975 111.067 79.9219 111.094C79.9477 117.152 79.9735 123.211 80 129.453C78.7464 129.185 78.7464 129.185 78.2227 129.033C78.1027 128.999 77.9826 128.965 77.8626 128.931C77.7726 128.906 77.7726 128.906 77.6808 128.88C77.3866 128.796 77.0917 128.715 76.7969 128.633C76.6797 128.6 76.5625 128.568 76.4453 128.535C76.3583 128.511 76.3583 128.511 76.2696 128.486C74.6875 128.047 73.1055 127.607 71.5235 127.168C71.4364 127.144 71.4364 127.144 71.3477 127.119C71.2305 127.087 71.1134 127.054 70.9963 127.022C70.7024 126.94 70.4085 126.858 70.1145 126.777C69.549 126.621 68.9849 126.462 68.4229 126.294C67.8127 126.112 67.1971 125.952 66.5803 125.794C66.1149 125.673 65.6561 125.541 65.1981 125.395C64.8205 125.282 64.4393 125.186 64.0576 125.088C63.4047 124.921 62.759 124.738 62.1147 124.54C61.7246 124.421 61.334 124.314 60.9375 124.219C60.395 124.088 59.8635 123.93 59.3299 123.767C58.9303 123.645 58.5309 123.536 58.125 123.438C57.5825 123.306 57.051 123.149 56.5174 122.985C56.1178 122.864 55.7184 122.755 55.3125 122.656C54.77 122.525 54.2385 122.367 53.7049 122.204C53.3053 122.083 52.9059 121.973 52.5 121.875C51.9575 121.744 51.426 121.586 50.8924 121.423C50.4928 121.301 50.0934 121.192 49.6875 121.094C49.145 120.963 48.6135 120.805 48.0799 120.642C47.581 120.49 47.0803 120.362 46.5735 120.24C46.1272 120.128 45.6887 119.99 45.2488 119.856C44.7525 119.705 44.255 119.572 43.75 119.453C43.6469 118.672 43.5602 117.891 43.495 117.106C43.4802 116.928 43.4651 116.75 43.4499 116.572C43.4279 116.312 43.4059 116.053 43.384 115.794C43.3243 115.085 43.2635 114.376 43.2025 113.667C43.1962 113.593 43.1899 113.52 43.1834 113.444C43.047 111.858 42.9013 110.274 42.7541 108.689C42.5383 106.365 42.3302 104.041 42.132 101.716C41.9944 100.102 41.8524 98.4876 41.702 96.8742C41.6947 96.7962 41.6875 96.7182 41.68 96.6378C41.6088 95.8749 41.5372 95.112 41.4649 94.3492C41.4386 94.0705 41.4123 93.7918 41.3861 93.5131C41.368 93.3215 41.3497 93.13 41.3314 92.9384C41.3205 92.8229 41.3096 92.7075 41.2987 92.592C41.2893 92.4926 41.2798 92.3932 41.2701 92.2908C41.2532 92.0722 41.2485 91.8596 41.25 91.6407Z" fill="#EAEAEA"/>
<path d="M35.7031 29.4531C50.2953 29.4531 64.8875 29.4531 79.9219 29.4531C79.9219 35.2797 79.9219 41.1063 79.9219 47.1094C65.8453 47.1094 51.7687 47.1094 37.2656 47.1094C36.9305 43.3711 36.5953 39.6328 36.25 35.7812C35.9847 32.8682 35.9847 32.8682 35.7171 29.9554C35.7048 29.7883 35.7031 29.6206 35.7031 29.4531Z" fill="#EAEAEA"/>
<path d="M38.9062 65.1562C60.1242 65.1562 81.3422 65.1562 103.203 65.1562C103.203 65.182 103.203 65.2078 103.203 65.2344C95.5203 65.2344 87.8375 65.2344 79.9219 65.2344C79.9219 71.0352 79.9219 76.8359 79.9219 82.8125C66.9023 82.8125 53.8828 82.8125 40.4688 82.8125C40.0214 78.2495 40.0214 78.2495 39.8877 76.7188C39.872 76.5403 39.8562 76.3618 39.8404 76.1833C39.8155 75.9014 39.7906 75.6194 39.7657 75.3374C39.7012 74.6054 39.6356 73.8736 39.5697 73.1418C39.2183 69.2392 39.2183 69.2392 39.0537 67.3194C39.0402 67.1616 39.0266 67.0037 39.013 66.8459C38.9945 66.632 38.9763 66.4181 38.9581 66.2042C38.9528 66.1426 38.9474 66.0809 38.9419 66.0174C38.9177 65.7281 38.9062 65.4471 38.9062 65.1562Z" fill="#EAEAEB"/>
<path d="M40.4688 82.8125C60.6813 82.8125 80.8938 82.8125 101.719 82.8125C101.693 83.0703 101.667 83.3281 101.641 83.5938C101.625 83.7558 101.611 83.9178 101.596 84.0799C101.588 84.1679 101.58 84.256 101.572 84.3467C101.564 84.4405 101.556 84.5344 101.547 84.631C101.533 84.7857 101.519 84.9404 101.505 85.0951C101.491 85.2601 101.476 85.425 101.461 85.59C101.43 85.9392 101.399 86.2884 101.368 86.6376C101.33 87.0642 101.291 87.4908 101.253 87.9174C101.187 88.663 101.12 89.4086 101.053 90.1541C101.048 90.2076 101.044 90.261 101.039 90.3161C101.015 90.585 100.99 90.8538 100.966 91.1226C100.923 91.6118 100.879 92.1009 100.835 92.5901C100.811 92.8628 100.786 93.1355 100.762 93.4082C100.752 93.5173 100.742 93.6263 100.732 93.7354C100.674 94.3896 100.674 94.3896 100.659 94.5532C100.649 94.6623 100.64 94.7713 100.63 94.8803C100.605 95.1532 100.581 95.426 100.557 95.6988C100.513 96.1872 100.469 96.6755 100.425 97.1639C100.401 97.4334 100.377 97.7029 100.353 97.9724C100.346 98.0526 100.346 98.0526 100.339 98.1345C100.272 98.8838 100.204 99.6331 100.136 100.382C100.098 100.804 100.061 101.225 100.023 101.646C99.9919 101.987 99.961 102.329 99.93 102.671C99.9155 102.831 99.9011 102.992 99.8866 103.152C99.8692 103.346 99.8516 103.54 99.834 103.734C99.8261 103.822 99.8182 103.91 99.8101 104.001C99.7985 104.129 99.7985 104.129 99.7867 104.26C99.7713 104.458 99.7593 104.655 99.7507 104.853C99.7468 104.933 99.7468 104.933 99.7428 105.016C99.7357 105.167 99.7299 105.318 99.7242 105.469C99.7121 105.546 99.7 105.624 99.6875 105.703C99.4801 105.841 99.3783 105.889 99.1461 105.944C99.0849 105.958 99.0237 105.973 98.9606 105.988C98.8943 106.004 98.8281 106.019 98.7598 106.035C98.2105 106.168 97.6663 106.311 97.124 106.47C96.4262 106.673 95.7238 106.857 95.0195 107.036C94.3289 107.212 93.6409 107.392 92.9589 107.6C92.483 107.743 92.0014 107.861 91.5187 107.979C91.0999 108.082 90.6862 108.195 90.2734 108.32C89.7948 108.465 89.3139 108.592 88.8281 108.711C88.3488 108.828 87.8744 108.953 87.4023 109.097C86.7858 109.284 86.1626 109.438 85.537 109.591C85.0208 109.719 84.511 109.859 84.0024 110.014C83.5178 110.159 83.0281 110.28 82.5365 110.4C82.0434 110.521 81.5569 110.658 81.0727 110.812C80.7047 110.925 80.3942 110.966 80 111.016C80 101.734 80 92.4531 80 82.8906C66.9547 82.8906 53.9094 82.8906 40.4688 82.8906C40.4688 82.8648 40.4688 82.8391 40.4688 82.8125Z" fill="#2965F0"/>
<path d="M80 47.1094C88.1727 47.1094 96.3453 47.1094 104.766 47.1094C104.766 48.3397 104.766 48.3397 104.723 48.7856C104.709 48.9376 104.709 48.9376 104.694 49.0927C104.684 49.2006 104.673 49.3086 104.662 49.4165C104.651 49.533 104.64 49.6495 104.63 49.766C104.606 50.0141 104.583 50.2622 104.559 50.5102C104.501 51.1095 104.445 51.7089 104.389 52.3083C104.376 52.4457 104.363 52.583 104.35 52.7204C104.224 54.0666 104.107 55.4136 103.994 56.761C103.838 58.6052 103.677 60.4487 103.507 62.2917C103.491 62.4595 103.476 62.6273 103.461 62.7952C103.432 63.1045 103.404 63.4138 103.375 63.7231C103.362 63.8601 103.362 63.8601 103.35 63.9997C103.342 64.084 103.334 64.1682 103.326 64.2549C103.316 64.3639 103.316 64.3639 103.305 64.4751C103.279 64.7033 103.241 64.9298 103.203 65.1562C95.5461 65.1562 87.8891 65.1562 80 65.1562C80 59.2008 80 53.2453 80 47.1094Z" fill="#2965F1"/>
</g>
<defs>
<clipPath id="clip0_214_151">
<rect width="160" height="160" fill="white"/>
</clipPath>
</defs>
</svg>
