<svg width="160" height="160" viewBox="0 0 160 160" fill="none" xmlns="http://www.w3.org/2000/svg">
<path d="M134.5 15.5H28.5V130.5H134.5V15.5Z" fill="white"/>
<path d="M11 0C57.53 0 104.06 0 152 0C152 1.12938 152 1.12938 151.966 1.51038C151.959 1.59805 151.951 1.68572 151.943 1.77605C151.935 1.86907 151.926 1.96209 151.917 2.05792C151.908 2.15983 151.9 2.26173 151.89 2.36672C151.86 2.70793 151.83 3.04908 151.799 3.39024C151.777 3.6383 151.755 3.88637 151.733 4.13443C151.685 4.67506 151.637 5.21566 151.589 5.75624C151.516 6.5646 151.445 7.373 151.373 8.18142C151.251 9.55629 151.129 10.9311 151.006 12.3059C150.882 13.6939 150.759 15.0819 150.636 16.4698C150.628 16.5573 150.62 16.6447 150.612 16.7348C150.572 17.1804 150.533 17.626 150.493 18.0716C150.208 21.2861 149.922 24.5007 149.636 27.7152C149.353 30.8906 149.07 34.066 148.788 37.2414C148.779 37.3399 148.771 37.4384 148.762 37.5399C148.655 38.739 148.548 39.938 148.442 41.1371C148.28 42.9537 148.119 44.7704 147.957 46.587C147.939 46.79 147.921 46.9929 147.903 47.1959C147.63 50.2729 147.356 53.3499 147.083 56.4269C147.037 56.9431 146.991 57.4594 146.945 57.9756C146.931 58.1288 146.931 58.1288 146.917 58.2851C146.068 67.8325 145.22 77.38 144.184 89.0455C144.169 89.221 144.153 89.3964 144.138 89.5719C143.85 92.8146 143.562 96.0572 143.275 99.2999C143.216 99.959 143.158 100.618 143.099 101.277C143.092 101.358 143.085 101.439 143.077 101.523C142.794 104.721 142.51 107.92 142.226 111.118C142.124 112.267 142.022 113.415 141.92 114.563C141.91 114.674 141.91 114.674 141.9 114.788C141.834 115.529 141.768 116.27 141.703 117.011C141.671 117.372 141.639 117.734 141.606 118.096C141.6 118.167 141.594 118.237 141.587 118.31C141.497 119.331 141.406 120.353 141.316 121.374C141.215 122.511 141.114 123.649 141.013 124.786C140.959 125.393 140.905 125.999 140.851 126.606C140.617 129.24 140.384 131.875 140.152 134.51C140.107 135.02 140.063 135.529 140.018 136.039C140.008 136.146 140.008 136.146 139.999 136.255C139.973 136.541 139.948 136.827 139.923 137.113C139.85 137.947 139.776 138.781 139.703 139.615C139.653 140.193 139.602 140.771 139.551 141.348C139.53 141.586 139.509 141.823 139.488 142.06C139.46 142.385 139.431 142.71 139.403 143.034C139.39 143.176 139.39 143.176 139.378 143.32C139.335 143.803 139.282 144.282 139.209 144.761C138.095 145.126 136.965 145.421 135.831 145.717C135.625 145.771 135.418 145.825 135.212 145.879C134.772 145.995 134.332 146.11 133.892 146.225C132.839 146.5 131.786 146.777 130.732 147.053C130.375 147.147 130.017 147.24 129.66 147.334C127.645 147.863 125.632 148.395 123.619 148.93C122.859 149.131 122.1 149.333 121.341 149.535C121.257 149.557 121.173 149.579 121.087 149.602C118.981 150.161 116.874 150.717 114.767 151.274C114.575 151.324 114.384 151.375 114.193 151.425C113.232 151.679 112.271 151.933 111.311 152.186C109.493 152.666 107.674 153.146 105.856 153.626C105.665 153.677 105.475 153.727 105.284 153.777C102.235 154.583 99.1857 155.389 96.1368 156.196C94.0198 156.757 91.9027 157.316 89.7853 157.876C89.6282 157.917 89.6282 157.917 89.4678 157.959C88.4466 158.229 87.4254 158.499 86.4042 158.768C86.0305 158.867 85.6568 158.965 85.2831 159.064C85.111 159.109 84.9389 159.155 84.7668 159.2C84.606 159.243 84.4453 159.285 84.2845 159.328C84.1326 159.368 83.9806 159.407 83.8286 159.447C83.4749 159.54 83.1231 159.636 82.773 159.741C82.7071 159.761 82.6412 159.78 82.5733 159.8C82.3973 159.852 82.2218 159.905 82.0463 159.959C81.2886 160.092 80.5653 159.875 79.835 159.675C79.7414 159.65 79.6479 159.625 79.5515 159.599C79.2408 159.515 78.9303 159.431 78.6198 159.346C78.3975 159.286 78.1753 159.227 77.9529 159.167C77.352 159.005 76.7512 158.842 76.1504 158.679C75.58 158.525 75.0093 158.371 74.4386 158.217C73.073 157.848 71.7077 157.479 70.3424 157.109C69.6502 156.921 68.958 156.734 68.2658 156.547C68.1605 156.518 68.0552 156.49 67.9468 156.46C67.7379 156.404 67.529 156.348 67.3202 156.291C65.9946 155.932 64.6691 155.574 63.3438 155.215C60.3672 154.408 57.3896 153.605 54.4117 152.804C51.0979 151.912 47.7848 151.018 44.4735 150.117C41.7089 149.365 38.943 148.617 36.1763 147.872C35.4695 147.682 34.7628 147.491 34.0562 147.3C33.489 147.147 32.9218 146.994 32.3546 146.841C32.2449 146.811 32.1352 146.782 32.0222 146.751C30.7044 146.396 29.3855 146.046 28.0635 145.707C27.635 145.597 27.2069 145.486 26.7787 145.374C26.3442 145.261 25.9089 145.153 25.4732 145.045C25.2591 144.989 25.0451 144.934 24.8311 144.878C24.7364 144.856 24.6416 144.833 24.544 144.81C24.4593 144.788 24.3747 144.765 24.2874 144.741C24.1785 144.714 24.1785 144.714 24.0673 144.686C23.7884 144.488 23.7617 144.18 23.692 143.858C23.6568 143.595 23.6276 143.337 23.6056 143.074C23.5986 142.998 23.5917 142.921 23.5845 142.843C23.5614 142.587 23.5392 142.331 23.517 142.075C23.5004 141.889 23.4838 141.703 23.467 141.517C23.421 141.004 23.3759 140.491 23.3309 139.977C23.2818 139.42 23.232 138.862 23.1823 138.304C23.0951 137.325 23.0084 136.347 22.9221 135.368C22.7938 133.913 22.6647 132.459 22.5354 131.004C22.3177 128.554 22.1006 126.104 21.8839 123.655C21.6677 121.211 21.4512 118.767 21.2343 116.323C21.2276 116.247 21.2208 116.171 21.2138 116.092C21.1382 115.24 21.0625 114.387 20.9869 113.535C20.847 111.959 20.7072 110.384 20.5675 108.808C20.5605 108.73 20.5535 108.651 20.5463 108.57C20.3237 106.06 20.1012 103.551 19.8788 101.041C19.8716 100.96 19.8644 100.879 19.857 100.795C19.7915 100.056 19.7259 99.3162 19.6604 98.5766C19.1621 92.9533 18.6634 87.33 18.1638 81.7068C18.157 81.6301 18.1502 81.5534 18.1432 81.4743C17.952 79.3229 17.7608 77.1714 17.5696 75.0199C17.502 74.2588 17.4343 73.4977 17.3667 72.7366C17.3464 72.5089 17.3262 72.2811 17.306 72.0534C17.1986 70.845 17.0912 69.6365 16.9838 68.4281C16.9704 68.2778 16.9571 68.1275 16.9437 67.9772C16.9371 67.9029 16.9305 67.8285 16.9237 67.7519C16.8838 67.3026 16.8438 66.8533 16.8039 66.404C16.4106 61.9788 16.0175 57.5536 15.6247 53.1284C15.599 52.8392 15.5733 52.5499 15.5476 52.2607C15.4147 50.7632 15.2818 49.2658 15.1488 47.7683C15.1426 47.6986 15.1365 47.629 15.1301 47.5572C15.068 46.8584 15.006 46.1596 14.944 45.4607C14.3365 38.6176 13.7285 31.7745 13.1191 24.9315C12.9835 23.4086 12.8479 21.8857 12.7125 20.3627C12.7039 20.2666 12.6954 20.1704 12.6866 20.0714C12.6028 19.1297 12.5191 18.188 12.4353 17.2464C12.2646 15.3268 12.0937 13.4073 11.9224 11.4878C11.8039 10.1602 11.6857 8.83251 11.5678 7.50483C11.506 6.80891 11.4441 6.11301 11.3817 5.41714C11.3259 4.79424 11.2705 4.17131 11.2154 3.54835C11.1957 3.32582 11.1758 3.10331 11.1557 2.88082C11.1287 2.58059 11.1022 2.28031 11.0758 1.98002C11.068 1.89486 11.0602 1.8097 11.0522 1.72196C11.002 1.14124 11 0.588284 11 0ZM37.3755 28.912C37.4339 29.9767 37.4936 31.0347 37.5869 32.0957C37.5978 32.2224 37.6087 32.3491 37.62 32.4796C37.6498 32.8261 37.6801 33.1725 37.7103 33.5189C37.7433 33.8966 37.7759 34.2744 37.8085 34.6522C37.8729 35.3965 37.9377 36.1407 38.0025 36.885C38.0561 37.5008 38.1096 38.1167 38.163 38.7326C38.1707 38.8215 38.1784 38.9105 38.1864 39.0021C38.2021 39.1833 38.2178 39.3645 38.2335 39.5457C38.4255 41.7597 38.6183 43.9736 38.8111 46.1875C38.8625 46.7776 38.9139 47.3676 38.9653 47.9577C39.3801 52.7213 39.7959 57.4849 40.2127 62.2483C40.2477 62.6486 40.2828 63.0488 40.3178 63.449C40.3265 63.5483 40.3352 63.6475 40.3441 63.7497C40.4884 65.3988 40.6325 67.0479 40.7764 68.697C40.9272 70.424 41.0782 72.151 41.2294 73.8779C41.3131 74.8346 41.3968 75.7913 41.4802 76.748C41.5501 77.5497 41.6202 78.3513 41.6905 79.1529C41.7262 79.5599 41.7618 79.9669 41.7972 80.374C41.8295 80.7457 41.8621 81.1174 41.8949 81.4891C41.9123 81.6872 41.9294 81.8852 41.9465 82.0833C41.9621 82.2593 41.9621 82.2593 41.978 82.4389C41.9868 82.5401 41.9957 82.6413 42.0048 82.7455C42.0342 83.0069 42.0841 83.2657 42.135 83.5237C62.3242 83.5237 82.5134 83.5237 103.314 83.5237C103.249 83.9875 103.183 84.4513 103.116 84.9291C103.082 85.2414 103.049 85.5526 103.021 85.8653C103.013 85.949 103.005 86.0328 102.997 86.119C102.971 86.3939 102.946 86.6689 102.921 86.9438C102.902 87.1432 102.883 87.3425 102.865 87.5419C102.815 88.079 102.765 88.6161 102.716 89.1533C102.663 89.7166 102.611 90.2799 102.559 90.8433C102.471 91.7878 102.383 92.7324 102.296 93.6771C102.195 94.7694 102.094 95.8616 101.992 96.9539C101.895 98.0061 101.797 99.0583 101.699 100.11C101.658 100.558 101.616 101.005 101.575 101.453C101.526 101.979 101.477 102.504 101.429 103.03C101.411 103.223 101.393 103.417 101.375 103.61C101.351 103.873 101.326 104.136 101.302 104.399C101.291 104.514 101.291 104.514 101.28 104.632C101.25 104.96 101.232 105.279 101.232 105.609C101.176 105.621 101.119 105.632 101.061 105.643C99.1898 106.016 97.325 106.415 95.4604 106.818C95.0422 106.908 94.624 106.998 94.2057 107.089C93.4158 107.259 92.6259 107.43 91.836 107.6C90.6799 107.85 89.5238 108.099 88.3677 108.349C88.1953 108.386 88.023 108.423 87.8507 108.46C87.7242 108.488 87.7242 108.488 87.5952 108.515C87.1014 108.622 86.6075 108.729 86.1137 108.835C83.0347 109.5 83.0347 109.5 81.5 109.826C81.5 109.958 81.5 110.091 81.5 110.227C81.4167 110.205 81.3334 110.182 81.2476 110.159C78.2485 109.35 75.2391 108.582 72.2289 107.817C71.1976 107.554 70.1664 107.292 69.1353 107.029C68.8855 106.965 68.6357 106.902 68.3859 106.838C67.1608 106.526 65.9359 106.214 64.7127 105.894C64.6202 105.87 64.5276 105.846 64.4323 105.821C64.01 105.71 63.5878 105.6 63.1658 105.488C63.0214 105.45 62.8771 105.412 62.7327 105.374C62.6099 105.342 62.487 105.309 62.3604 105.276C62.0675 105.197 62.0675 105.197 61.7679 105.208C61.7637 105.102 61.7594 104.996 61.755 104.887C61.6907 103.435 61.5573 101.991 61.4205 100.545C61.3989 100.313 61.3773 100.082 61.3558 99.8509C61.2767 99.0033 61.1969 98.1559 61.1172 97.3084C60.8503 94.4604 60.8503 94.4604 60.5781 91.5548C54.7536 91.5548 48.9292 91.5548 42.9283 91.5548C43.0113 92.9958 43.0113 92.9958 43.1253 94.4333C43.1346 94.5388 43.1439 94.6442 43.1535 94.7529C43.1843 95.0995 43.2154 95.4461 43.2465 95.7927C43.2688 96.0438 43.2911 96.295 43.3134 96.5461C43.3674 97.1531 43.4216 97.76 43.4759 98.3669C43.5201 98.8599 43.5641 99.3529 43.6081 99.8459C43.6175 99.9516 43.6175 99.9516 43.6272 100.059C43.6399 100.203 43.6527 100.346 43.6655 100.489C43.7848 101.827 43.9045 103.164 44.0243 104.501C44.1339 105.725 44.243 106.95 44.352 108.174C44.4641 109.433 44.5765 110.692 44.6892 111.951C44.7524 112.657 44.8154 113.363 44.8782 114.069C44.9371 114.731 44.9964 115.393 45.056 116.056C45.0778 116.299 45.0995 116.543 45.1211 116.786C45.1504 117.117 45.1802 117.448 45.2102 117.78C45.2187 117.877 45.2272 117.974 45.236 118.075C45.2441 118.163 45.2522 118.251 45.2605 118.342C45.2707 118.457 45.2707 118.457 45.2812 118.574C45.2995 118.769 45.2995 118.769 45.4072 118.961C45.6428 119.039 45.8735 119.105 46.1137 119.166C46.1883 119.185 46.2629 119.205 46.3398 119.225C46.5906 119.29 46.8417 119.354 47.0928 119.419C47.2705 119.465 47.4482 119.511 47.6258 119.557C48.0075 119.657 48.3893 119.755 48.7712 119.854C49.3788 120.01 49.9861 120.168 50.5934 120.326C51.2132 120.487 51.833 120.648 52.453 120.808C54.16 121.251 55.8656 121.698 57.5706 122.149C57.9312 122.244 58.2919 122.339 58.6525 122.434C58.7256 122.453 58.7987 122.473 58.874 122.493C59.0235 122.532 59.173 122.571 59.3225 122.611C59.5506 122.671 59.7786 122.731 60.0067 122.791C61.1623 123.096 62.3181 123.401 63.4739 123.705C63.778 123.785 64.0821 123.865 64.3862 123.945C65.3236 124.192 66.261 124.439 67.1986 124.685C67.7253 124.823 68.2519 124.961 68.7786 125.099C68.8839 125.127 68.9892 125.155 69.0977 125.183C70.5611 125.568 72.0229 125.958 73.4837 126.352C74.2883 126.569 75.0933 126.785 75.8983 127.001C76.5557 127.177 77.2126 127.355 77.8691 127.534C78.2752 127.645 78.6818 127.753 79.0886 127.861C79.2765 127.912 79.4643 127.963 79.6518 128.015C81.0142 128.397 81.0142 128.397 82.3924 128.197C82.5835 128.147 82.7747 128.097 82.966 128.048C83.3469 127.949 83.7258 127.843 84.1052 127.738C84.276 127.692 84.4468 127.645 84.6176 127.598C84.9845 127.498 85.3514 127.397 85.7182 127.296C86.3073 127.133 86.8967 126.972 87.4861 126.81C88.1049 126.641 88.7237 126.471 89.3424 126.301C91.3055 125.763 93.2695 125.228 95.2337 124.694C95.8073 124.538 96.3809 124.382 96.9545 124.226C98.5108 123.802 100.067 123.379 101.624 122.956C107.503 121.356 107.503 121.356 113.382 119.753C113.703 119.665 114.024 119.577 114.345 119.49C114.715 119.389 115.085 119.288 115.455 119.187C115.589 119.15 115.723 119.113 115.857 119.077C116.039 119.027 116.221 118.977 116.403 118.928C116.504 118.9 116.606 118.872 116.71 118.844C117.007 118.758 117.3 118.661 117.593 118.559C117.795 117.487 117.895 116.407 117.998 115.321C118.008 115.215 118.018 115.108 118.029 114.998C118.391 111.212 118.719 107.422 119.055 103.633C119.168 102.36 119.281 101.087 119.394 99.8136C119.437 99.3358 119.479 98.8581 119.521 98.3804C119.532 98.2612 119.543 98.1419 119.554 98.019C119.673 96.6724 119.793 95.3258 119.912 93.9792C119.923 93.8566 119.934 93.734 119.945 93.6077C120.122 91.6157 120.299 89.6238 120.475 87.6318C120.658 85.5727 120.841 83.5135 121.024 81.4544C121.136 80.1916 121.248 78.9288 121.36 77.6659C121.437 76.8004 121.513 75.935 121.591 75.0696C121.635 74.5728 121.679 74.0761 121.723 73.5793C121.898 71.5892 122.084 69.6026 122.33 67.62C122.354 67.425 122.354 67.425 122.378 67.2261C122.392 67.1134 122.407 67.0007 122.421 66.8846C122.453 66.5428 122.451 66.1985 122.451 65.8552C101.248 65.8552 80.0444 65.8552 58.1983 65.8552C58.0347 63.8013 57.8711 61.7473 57.7025 59.6311C57.3426 55.3575 56.9827 51.084 56.6118 46.6809C90.0368 46.6312 90.0368 46.6312 124.137 46.5805C124.726 39.6733 124.726 39.6733 125.327 32.6264C125.474 31.2351 125.474 31.2351 125.624 29.8155C125.624 29.5174 125.624 29.2192 125.624 28.912C96.5023 28.912 67.3802 28.912 37.3755 28.912Z" fill="#E44C25"/>
</svg>
