<svg width="160" height="160" viewBox="0 0 160 160" fill="none" xmlns="http://www.w3.org/2000/svg">
<g clip-path="url(#clip0_214_133)">
<path d="M0 0C52.8 0 105.6 0 160 0C160 52.8 160 105.6 160 160C107.2 160 54.4 160 0 160C0 107.2 0 54.4 0 0Z" fill="#F6DE1D"/>
<path d="M121.438 72.6155C121.786 72.6172 122.134 72.6155 122.482 72.6135C128.812 72.6071 134.546 74.5696 139.092 79.0235C140.129 80.0659 141.028 81.1698 141.85 82.3879C142.026 82.6487 142.208 82.9059 142.39 83.1629C142.976 84.0192 142.976 84.0192 143.125 84.375C142.945 84.8673 142.743 85.0954 142.293 85.3546C142.186 85.418 142.079 85.4814 141.968 85.5467C141.85 85.6144 141.733 85.6822 141.611 85.752C140.48 86.4228 139.37 87.1192 138.271 87.8418C136.945 88.7121 135.614 89.5746 134.277 90.4297C134.029 90.589 134.029 90.589 133.775 90.7515C132.893 91.315 132.893 91.315 132.5 91.5625C132.361 91.652 132.223 91.7414 132.08 91.8336C131.719 92.0313 131.719 92.0313 131.39 91.9544C131.011 91.6528 130.82 91.3361 130.576 90.918C130.144 90.2058 129.679 89.598 129.107 88.9935C128.906 88.75 128.906 88.75 128.906 88.4375C128.816 88.3966 128.726 88.3557 128.633 88.3136C128.26 88.1137 127.977 87.8817 127.656 87.6074C125.447 85.8635 122.697 85.7381 120 85.9375C118.188 86.2613 116.695 87.2629 115.625 88.75C114.587 90.5132 114.555 92.681 114.969 94.6619C116.122 97.6821 119.374 99.2393 122.143 100.496C122.77 100.775 123.401 101.047 124.032 101.317C124.435 101.489 124.836 101.662 125.238 101.836C125.762 102.062 126.287 102.289 126.811 102.515C127.972 103.016 129.127 103.53 130.276 104.058C130.521 104.171 130.767 104.283 131.013 104.394C137.545 107.357 143.718 111.506 146.406 118.438C147.257 120.89 147.556 123.324 147.549 125.909C147.549 126.307 147.553 126.704 147.556 127.102C147.563 128.704 147.419 130.162 147.031 131.719C147.001 131.848 146.971 131.976 146.94 132.109C145.722 137.088 142.46 141.114 138.125 143.75C136.44 144.766 134.675 145.47 132.812 146.094C132.633 146.155 132.454 146.216 132.269 146.279C131.11 146.641 129.936 146.857 128.74 147.061C128.587 147.087 128.434 147.113 128.276 147.14C121.917 148.166 115.001 147.544 109.062 145C108.89 144.927 108.89 144.927 108.714 144.852C106.083 143.717 103.715 142.207 101.562 140.313C101.407 140.178 101.252 140.043 101.091 139.904C100.039 138.977 99.1358 137.991 98.2812 136.875C98.1658 136.729 98.0504 136.583 97.9315 136.433C97.2629 135.57 96.6583 134.683 96.0938 133.75C96.0334 133.651 95.9731 133.552 95.9109 133.449C95.6331 132.98 95.4281 132.563 95.3125 132.031C97.6431 130.646 99.986 129.283 102.336 127.931C102.913 127.598 103.49 127.263 104.066 126.928C105.202 126.268 106.34 125.618 107.5 125C107.549 125.072 107.599 125.145 107.65 125.219C108.548 126.527 109.434 127.797 110.54 128.94C110.781 129.219 110.781 129.219 110.781 129.531C110.87 129.57 110.959 129.608 111.051 129.647C111.467 129.877 111.75 130.156 112.09 130.488C115.475 133.585 119.829 134.098 124.219 133.906C126.703 133.695 129.359 132.753 131.006 130.811C132.266 129.117 132.527 127.216 132.344 125.156C131.92 123.104 130.575 121.643 128.906 120.469C126.124 118.655 122.965 117.398 119.922 116.094C112.658 112.981 104.646 109.335 101.406 101.563C100.318 98.8233 99.7332 96.0385 99.7709 93.0911C99.7754 92.7034 99.7741 92.3161 99.772 91.9284C99.7776 87.5178 101.235 83.3993 104.062 80C104.181 79.856 104.299 79.712 104.421 79.5636C108.627 74.6914 115.158 72.5797 121.438 72.6155Z" fill="black"/>
<path d="M72.0312 73.4375C77.0328 73.4375 82.0344 73.4375 87.1875 73.4375C87.2013 80.2105 87.2128 86.9834 87.2194 93.7564C87.2202 94.5581 87.221 95.3599 87.2218 96.1617C87.222 96.3212 87.2222 96.4808 87.2223 96.6453C87.225 99.2209 87.23 101.796 87.2357 104.372C87.2416 107.02 87.245 109.668 87.2463 112.315C87.2472 113.946 87.2498 115.576 87.2549 117.207C87.2583 118.329 87.2592 119.451 87.2584 120.573C87.258 121.217 87.2586 121.862 87.262 122.507C87.2809 126.281 87.2179 130.151 85.9375 133.75C85.872 133.945 85.8066 134.14 85.7391 134.341C84.9656 136.577 83.9291 138.696 82.3438 140.469C82.2348 140.598 82.1258 140.727 82.0135 140.861C78.5952 144.831 73.268 146.936 68.125 147.344C67.6134 147.365 67.1026 147.369 66.5906 147.37C66.4496 147.371 66.3086 147.371 66.1633 147.372C65.8669 147.372 65.5704 147.373 65.2739 147.373C64.8286 147.373 64.3833 147.376 63.938 147.379C61.6528 147.386 59.4491 147.255 57.2363 146.631C57.0928 146.591 56.9493 146.551 56.8014 146.509C53.3429 145.5 50.2977 143.853 47.6562 141.406C47.5715 141.328 47.4867 141.25 47.3994 141.17C45.4677 139.374 44.0268 137.357 42.7777 135.042C42.5088 134.529 42.5088 134.529 42.1875 134.062C42.1875 133.908 42.1875 133.753 42.1875 133.594C42.4767 133.368 42.4767 133.368 42.8882 133.129C43.1187 132.993 43.1187 132.993 43.354 132.854C43.5233 132.757 43.6927 132.659 43.8672 132.559C44.1347 132.401 44.4022 132.244 44.6696 132.087C44.8568 131.977 45.0442 131.867 45.2317 131.757C46.1695 131.208 47.0984 130.645 48.0263 130.079C48.3006 129.912 48.5752 129.746 48.8499 129.58C49.746 129.037 50.6375 128.489 51.5222 127.928C51.7699 127.773 51.7699 127.773 52.0226 127.614C52.3338 127.419 52.6438 127.221 52.9523 127.021C53.0899 126.935 53.2274 126.849 53.3691 126.761C53.4886 126.684 53.608 126.608 53.7311 126.529C54.0625 126.406 54.0625 126.406 54.3959 126.506C54.7174 126.741 54.857 126.927 55.0464 127.275C55.1084 127.386 55.1705 127.497 55.2344 127.611C55.2989 127.729 55.3633 127.847 55.4297 127.969C56.0382 129.04 56.6716 130.02 57.5 130.938C57.6106 131.061 57.7212 131.184 57.8351 131.311C59.4766 133.047 61.4235 133.896 63.8057 133.98C65.9943 134.003 68.1292 133.662 69.8438 132.188C71.5997 130.264 71.9225 127.777 71.9185 125.278C71.9193 125.054 71.9202 124.83 71.9213 124.606C71.9237 123.993 71.9243 123.379 71.9245 122.766C71.9251 122.104 71.9274 121.441 71.9296 120.779C71.9331 119.632 71.9354 118.486 71.937 117.339C71.9393 115.681 71.9432 114.023 71.9477 112.366C71.9548 109.676 71.9605 106.986 71.9653 104.296C71.9701 101.683 71.9754 99.0708 71.9817 96.4582C71.982 96.2971 71.9824 96.136 71.9828 95.97C71.9848 95.1617 71.9867 94.3534 71.9887 93.5451C72.0048 86.8426 72.0185 80.1401 72.0312 73.4375Z" fill="#010100"/>
</g>
<defs>
<clipPath id="clip0_214_133">
<rect width="160" height="160" fill="white"/>
</clipPath>
</defs>
</svg>
