<svg width="160" height="160" viewBox="0 0 160 160" fill="none" xmlns="http://www.w3.org/2000/svg">
<path d="M29.0625 20.9375C39.0656 20.9375 49.0688 20.9375 59.375 20.9375C59.4781 32.1781 59.5813 43.4188 59.6875 55C63.2853 50.3745 63.2853 50.3745 66.8176 45.7019C67.9526 44.1839 69.1035 42.6782 70.2539 41.1719C71.9129 38.9996 73.5597 36.8188 75.1953 34.6289C76.8472 32.4183 78.522 30.2277 80.2284 28.0589C80.3895 27.8535 80.5506 27.6481 80.7166 27.4365C80.975 27.1256 80.975 27.1256 81.2386 26.8083C81.7521 26.1057 82.1155 25.4835 82.5024 24.7145C83.4687 22.9541 84.494 21.3086 86.4813 20.6565C89.079 20.2207 91.7095 20.3645 94.3311 20.4492C95.1805 20.4614 96.0298 20.4659 96.8793 20.4707C98.8786 20.4861 100.877 20.527 102.875 20.5774C105.153 20.6335 107.431 20.6608 109.709 20.6859C114.39 20.738 119.07 20.8258 123.75 20.9375C123.45 21.3902 123.149 21.8428 122.848 22.2952C122.681 22.5473 122.513 22.7993 122.341 23.059C121.863 23.7684 121.364 24.4518 120.834 25.1233C120.569 25.4613 120.569 25.4613 120.298 25.806C120.025 26.1515 120.025 26.1515 119.746 26.5039C119.356 27.0018 118.965 27.4998 118.575 27.998C118.296 28.3552 118.296 28.3552 118.01 28.7195C117.151 29.8232 116.316 30.9449 115.481 32.0667C114.394 33.5216 113.289 34.9626 112.188 36.4063C110.88 38.1207 109.572 39.835 108.281 41.5625C106.815 43.5246 105.327 45.4694 103.841 47.4162C102.38 49.3308 100.933 51.2544 99.4922 53.1836C97.8178 55.4243 96.1147 57.64 94.3918 59.8436C93.0838 61.5191 91.8004 63.2111 90.5302 64.9153C88.9583 67.0221 87.3607 69.1091 85.7594 71.1936C84.7294 72.5398 83.729 73.8863 82.8125 75.3125C85.2117 78.5243 87.6324 81.7185 90.0705 84.9008C92.7332 88.3783 95.3864 91.8624 98.0078 95.3711C99.7041 97.6411 101.429 99.8862 103.174 102.119C104.373 103.654 105.551 105.202 106.714 106.764C107.759 108.163 108.823 109.549 109.883 110.938C111.561 113.136 113.228 115.343 114.883 117.559C116.556 119.797 118.257 122.012 119.979 124.213C121.335 125.949 122.663 127.704 123.979 129.47C124.959 130.782 125.951 132.084 126.953 133.379C130.938 138.543 130.938 138.543 130.938 139.063C126.042 139.194 121.148 139.293 116.252 139.354C113.978 139.383 111.705 139.422 109.431 139.487C107.448 139.543 105.465 139.579 103.481 139.592C102.431 139.599 101.385 139.619 100.336 139.657C93.9673 139.88 93.9673 139.88 92.0364 138.513C90.7007 137.206 89.7228 135.729 88.8167 134.102C88.3064 133.208 87.7075 132.43 87.0703 131.621C86.8528 131.329 86.6353 131.037 86.4111 130.736C85.3658 129.337 84.3023 127.951 83.2422 126.563C81.5638 124.364 79.8973 122.157 78.2422 119.941C76.546 117.671 74.8207 115.426 73.0759 113.194C72.1038 111.949 71.1404 110.699 70.1953 109.434C69.8601 108.985 69.5249 108.537 69.1896 108.088C68.8447 107.627 68.5 107.165 68.1554 106.703C67.4767 105.795 66.7952 104.89 66.1133 103.984C65.891 103.686 65.6687 103.388 65.4396 103.08C65.2305 102.803 65.0214 102.526 64.8059 102.241C64.6176 101.99 64.4293 101.739 64.2353 101.48C63.9951 101.212 63.9951 101.212 63.75 100.938C63.5438 100.938 63.3375 100.938 63.125 100.938C62.63 101.533 62.1713 102.127 61.7188 102.754C61.5927 102.925 61.4666 103.096 61.3367 103.272C60.0108 104.967 60.0108 104.967 59.6005 106.995C59.597 107.275 59.5935 107.555 59.5899 107.844C59.5892 108.15 59.5886 108.457 59.5879 108.772C59.5847 109.095 59.5816 109.419 59.5784 109.752C59.5687 110.822 59.5634 111.892 59.5581 112.963C59.5523 113.704 59.5462 114.445 59.5398 115.187C59.5237 117.139 59.5113 119.092 59.4997 121.045C59.4872 123.037 59.4713 125.029 59.4556 127.021C59.4253 130.931 59.3993 134.84 59.375 138.75C55.7656 138.75 52.1563 138.75 48.4375 138.75C47.601 135.209 47.601 135.209 47.3075 133.967C46.8523 132.039 46.3969 130.112 45.9409 128.185C45.6612 127.003 45.3818 125.822 45.1024 124.64C45.0449 124.397 44.9873 124.153 44.928 123.902C44.0821 120.324 43.2437 116.743 42.4096 113.161C41.8611 110.807 41.3105 108.453 40.7593 106.1C40.6979 105.838 40.6366 105.576 40.5734 105.305C38.9748 98.479 37.2989 91.6827 35.4753 84.9129C29.5713 62.9289 27.987 43.6132 29.0625 20.9375Z" fill="#3BBDAD"/>
<path d="M82.1875 75.3125C82.3938 75.3125 82.6 75.3125 82.8125 75.3125C83.3916 76.0237 83.9351 76.7387 84.4727 77.4805C84.8146 77.9445 85.1568 78.4084 85.4993 78.8721C85.764 79.2319 85.764 79.2319 86.0341 79.599C86.8489 80.6992 87.6817 81.7853 88.5156 82.8711C88.8567 83.3162 89.1976 83.7614 89.5386 84.2065C89.7141 84.4357 89.8896 84.6648 90.0705 84.9008C92.7332 88.3783 95.3864 91.8624 98.0078 95.3711C99.7041 97.641 101.429 99.8862 103.174 102.119C104.373 103.654 105.551 105.202 106.714 106.764C107.759 108.163 108.823 109.549 109.883 110.938C111.561 113.136 113.228 115.343 114.883 117.559C116.556 119.797 118.257 122.012 119.979 124.213C121.335 125.949 122.663 127.704 123.979 129.47C124.959 130.782 125.951 132.084 126.953 133.379C130.938 138.543 130.938 138.543 130.938 139.062C126.042 139.194 121.148 139.293 116.252 139.354C113.978 139.383 111.705 139.422 109.431 139.487C107.448 139.543 105.465 139.579 103.481 139.592C102.431 139.599 101.385 139.619 100.336 139.657C93.9673 139.88 93.9673 139.88 92.0364 138.513C90.7007 137.206 89.7228 135.729 88.8166 134.102C88.3064 133.208 87.7075 132.43 87.0703 131.621C86.8528 131.329 86.6353 131.037 86.4111 130.736C85.3658 129.337 84.3023 127.951 83.2422 126.562C81.5638 124.364 79.8973 122.157 78.2422 119.941C76.5459 117.671 74.8206 115.426 73.0759 113.194C71.8828 111.666 70.7093 110.125 69.5532 108.569C68.8702 107.654 68.1745 106.75 67.478 105.845C67.2506 105.549 67.0231 105.252 66.7888 104.947C66.3309 104.352 65.8721 103.757 65.4121 103.162C65.202 102.889 64.9919 102.615 64.7754 102.333C64.5855 102.087 64.3955 101.84 64.1998 101.587C63.75 100.938 63.75 100.938 63.4375 100C63.9251 99.242 64.4236 98.5565 64.9805 97.8516C65.1485 97.6333 65.3166 97.4151 65.4897 97.1902C65.858 96.7122 66.2275 96.2351 66.5982 95.759C67.618 94.4456 68.6221 93.1202 69.6289 91.7969C69.8399 91.5205 70.0509 91.244 70.2683 90.9592C71.7134 89.0656 73.1449 87.1624 74.5703 85.2539C76.6168 82.5151 78.706 79.8114 80.8163 77.1216C81.1341 76.712 81.4385 76.292 81.7349 75.8667C81.8843 75.6838 82.0336 75.5009 82.1875 75.3125Z" fill="#349B8B"/>
</svg>
