<svg width="160" height="160" viewBox="0 0 160 160" fill="none" xmlns="http://www.w3.org/2000/svg">
<path d="M81.205 0.904636C81.6581 1.05891 82.1039 1.22661 82.55 1.39995C82.9047 1.53272 83.2595 1.6652 83.6144 1.79745C83.8996 1.90465 83.8996 1.90465 84.1906 2.01401C85.1786 2.38265 86.1749 2.72846 87.17 3.07722C87.7517 3.2812 88.3331 3.48613 88.9144 3.6912C89.0838 3.75095 89.0838 3.75095 89.2566 3.81192C90.3093 4.18366 91.36 4.56088 92.41 4.93995C94.3386 5.63584 96.2688 6.32421 98.2088 6.98745C98.3214 7.026 98.4341 7.06455 98.5501 7.10427C99.119 7.29897 99.688 7.49326 100.257 7.68674C101.284 8.03712 102.302 8.39962 103.307 8.8112C103.986 9.08187 104.678 9.31358 105.37 9.54995C106.667 9.99711 107.96 10.4531 109.25 10.9199C110.857 11.5013 112.468 12.0724 114.08 12.6399C115.712 13.2146 117.343 13.7925 118.97 14.3799C120.899 15.0758 122.829 15.7642 124.769 16.4274C124.881 16.466 124.994 16.5045 125.11 16.5443C125.679 16.739 126.248 16.9333 126.817 17.1267C127.845 17.4774 128.864 17.8401 129.869 18.2519C130.537 18.5186 131.219 18.7472 131.9 18.9799C133.306 19.465 134.709 19.9587 136.11 20.4599C136.296 20.5264 136.482 20.5929 136.673 20.6614C137.45 20.9396 138.228 21.2181 139.005 21.4968C139.408 21.6415 139.812 21.7861 140.216 21.9307C140.592 22.0656 140.969 22.2008 141.346 22.3361C142.184 22.6362 143.024 22.9291 143.87 23.2062C144.595 23.4454 145.3 23.7148 146.007 24.0035C146.693 24.2764 147.392 24.5113 148.09 24.7499C150.094 25.4404 152.087 26.158 154.08 26.8799C154.089 27.2667 154.095 27.6532 154.1 28.0399C154.103 28.146 154.105 28.252 154.108 28.3612C154.114 29.0135 154.057 29.6241 153.939 30.2658C153.735 31.4558 153.604 32.6508 153.474 33.8506C153.429 34.2638 153.384 34.677 153.339 35.0901C153.258 35.8217 153.178 36.5534 153.099 37.285C152.957 38.5878 152.814 39.8905 152.671 41.1931C152.655 41.3336 152.64 41.4742 152.624 41.619C152.441 43.2743 152.248 44.9267 152.024 46.5769C151.824 48.0721 151.66 49.5712 151.495 51.0706C151.48 51.2085 151.465 51.3464 151.449 51.4884C151.323 52.6339 151.198 53.7794 151.073 54.925C150.964 55.9202 150.855 56.9154 150.745 57.9106C150.73 58.0485 150.715 58.1864 150.699 58.3286C150.537 59.7932 150.37 61.2556 150.16 62.7143C149.928 64.3288 149.751 65.9487 149.575 67.5699C149.56 67.7096 149.545 67.8493 149.529 67.9932C149.419 69.0087 149.309 70.0243 149.2 71.0399C149.076 72.1967 148.951 73.3534 148.825 74.5099C148.81 74.6498 148.795 74.7897 148.779 74.9339C148.603 76.5443 148.415 78.1505 148.184 79.7542C147.977 81.2223 147.818 82.6957 147.655 84.1693C147.64 84.307 147.625 84.4448 147.609 84.5867C147.499 85.5877 147.389 86.5888 147.28 87.5899C147.156 88.7298 147.031 89.8696 146.905 91.0093C146.89 91.1472 146.875 91.2851 146.859 91.4272C146.676 93.0815 146.482 94.7327 146.258 96.382C146.075 97.7522 145.925 99.1257 145.776 100.5C145.762 100.622 145.749 100.744 145.736 100.87C145.626 101.88 145.518 102.89 145.409 103.899C145.315 104.776 145.221 105.653 145.126 106.53C145.112 106.653 145.099 106.777 145.085 106.904C144.902 108.592 144.694 110.274 144.468 111.956C144.254 113.549 144.087 115.139 143.959 116.741C143.904 117.41 143.845 118.078 143.786 118.746C143.736 119.311 143.69 119.875 143.652 120.441C143.378 124.441 143.378 124.441 142.58 125.184C142.121 125.493 141.636 125.664 141.108 125.819C140.585 125.991 140.13 126.277 139.656 126.554C139.466 126.66 139.274 126.765 139.083 126.87C138.481 127.2 137.879 127.532 137.278 127.863C137.179 127.917 137.081 127.971 136.98 128.027C136.218 128.447 135.458 128.872 134.7 129.3C133.917 129.742 133.131 130.179 132.341 130.607C131.537 131.045 130.736 131.487 129.935 131.929C129.218 132.323 128.5 132.717 127.78 133.107C126.273 133.926 124.771 134.753 123.28 135.6C121.645 136.529 119.996 137.432 118.344 138.329C117.264 138.917 116.189 139.511 115.113 140.104C114.722 140.319 114.33 140.534 113.938 140.748C112.526 141.522 111.12 142.305 109.72 143.1C108.284 143.916 106.836 144.709 105.382 145.493C104.191 146.135 103.007 146.789 101.825 147.447C101.071 147.868 100.316 148.284 99.56 148.7C99.4272 148.773 99.2944 148.846 99.1576 148.921C98.4608 149.304 97.7632 149.686 97.0644 150.065C95.5557 150.884 94.0529 151.712 92.56 152.56C90.9247 153.489 89.2765 154.392 87.6237 155.289C86.811 155.732 86.0007 156.178 85.1903 156.625C84.4922 157.009 83.7937 157.393 83.0944 157.776C82.8725 157.897 82.8725 157.897 82.6461 158.021C82.3605 158.178 82.0748 158.334 81.789 158.49C81.6617 158.559 81.5344 158.629 81.4032 158.701C81.2339 158.794 81.2339 158.794 81.0612 158.888C80.803 159.023 80.803 159.023 80.64 159.2C79.7503 159.277 79.2635 159.125 78.51 158.66C78.3148 158.542 78.1193 158.425 77.9238 158.307C77.8204 158.245 77.717 158.182 77.6105 158.117C77.0184 157.764 76.4137 157.433 75.81 157.1C75.6962 157.037 75.5824 156.974 75.4652 156.908C74.8247 156.553 74.1824 156.201 73.5388 155.852C72.6632 155.375 71.7964 154.883 70.93 154.39C69.313 153.472 67.6822 152.582 66.0457 151.7C64.796 151.026 63.5529 150.34 62.3097 149.655C61.7806 149.363 61.2511 149.072 60.7216 148.781C60.454 148.634 60.1864 148.486 59.9188 148.339C59.2586 147.976 58.598 147.613 57.9369 147.251C56.5252 146.478 55.1196 145.695 53.72 144.9C52.2836 144.084 50.8363 143.291 49.3822 142.507C48.1912 141.865 47.0069 141.211 45.825 140.552C43.9366 139.5 42.0387 138.464 40.14 137.43C38.7124 136.652 37.2896 135.866 35.8697 135.075C35.2735 134.743 34.6767 134.411 34.08 134.08C33.3468 133.673 32.6136 133.265 31.8807 132.857C30.7522 132.23 29.6231 131.603 28.4888 130.986C26.4973 129.901 24.5155 128.801 22.5439 127.681C21.1967 126.918 19.8369 126.179 18.4724 125.448C18.3186 125.365 18.1648 125.283 18.0063 125.197C17.8697 125.124 17.7331 125.051 17.5923 124.976C17.28 124.8 17.28 124.8 17.12 124.64C17.0652 124.258 17.0197 123.879 16.9798 123.496C16.9603 123.316 16.9603 123.316 16.9403 123.132C16.9119 122.87 16.8838 122.607 16.856 122.345C16.8114 121.924 16.766 121.503 16.7203 121.083C16.6228 120.182 16.5264 119.281 16.43 118.38C16.3047 117.209 16.1788 116.039 16.0519 114.869C16.0362 114.724 16.0206 114.579 16.0044 114.43C15.7854 112.413 15.5422 110.402 15.2752 108.39C15.0671 106.809 14.8861 105.225 14.7144 103.639C14.701 103.515 14.6876 103.391 14.6738 103.264C14.5647 102.254 14.4568 101.245 14.3491 100.236C14.2548 99.3535 14.1601 98.471 14.0644 97.5887C14.0512 97.4667 14.038 97.3446 14.0243 97.2189C13.8797 95.8908 13.7261 94.5659 13.525 93.2449C13.2855 91.667 13.1131 90.0826 12.9407 88.4962C12.9257 88.3584 12.9107 88.2205 12.8952 88.0785C12.7861 87.0724 12.678 86.0662 12.57 85.0599C12.4476 83.9186 12.3246 82.7774 12.2007 81.6362C12.1855 81.4963 12.1703 81.3564 12.1547 81.2123C11.9387 79.229 11.6977 77.2509 11.4355 75.2732C11.2299 73.7091 11.05 72.1432 10.88 70.5749C10.8668 70.4532 10.8536 70.3314 10.84 70.2059C10.7325 69.2126 10.6262 68.2192 10.52 67.2258C10.4273 66.3588 10.334 65.4918 10.24 64.6249C10.2268 64.5031 10.2136 64.3812 10.2 64.2557C10.0196 62.598 9.82002 60.9443 9.60129 59.2912C9.36089 57.4742 9.14645 55.6558 8.94879 53.8337C8.92839 53.6458 8.92839 53.6458 8.90758 53.454C8.81104 52.5627 8.71546 51.6713 8.62004 50.7799C8.52327 49.8765 8.42614 48.973 8.32827 48.0696C8.29014 47.7162 8.25256 47.3627 8.21503 47.0092C8.11081 46.0391 7.99817 45.0731 7.84328 44.1095C7.64716 42.8793 7.51665 41.6433 7.38441 40.4049C7.33842 39.9744 7.29182 39.544 7.24508 39.1136C7.12935 38.047 7.01458 36.9803 6.8999 35.9136C6.80238 35.0067 6.70444 34.0999 6.6059 33.1931C6.56001 32.7692 6.51475 32.3453 6.46951 31.9213C6.44147 31.6628 6.41341 31.4043 6.38531 31.1458C6.37292 31.0281 6.36053 30.9104 6.34777 30.7892C6.29559 30.3143 6.23169 29.8949 6.08004 29.4399C6.06876 29.0018 6.06507 28.5679 6.07004 28.1299C6.07076 28.01 6.07148 27.8901 6.07223 27.7665C6.07411 27.471 6.07698 27.1755 6.08004 26.8799C8.52464 25.9886 10.9771 25.1245 13.4413 24.2891C14.4492 23.9463 15.4464 23.5903 16.4318 23.1869C17.0729 22.931 17.7267 22.7125 18.38 22.4899C20.0164 21.927 21.6436 21.3408 23.27 20.7499C25.4028 19.9753 27.542 19.2231 29.6916 18.4963C30.6675 18.1648 31.6311 17.8199 32.5851 17.4298C33.2421 17.1672 33.911 16.9398 34.58 16.7099C34.7336 16.6568 34.8872 16.6036 35.0455 16.5489C35.9031 16.2524 36.7616 15.9582 37.6203 15.6648C38.0773 15.5086 38.5342 15.3522 38.9912 15.1958C39.3225 15.0825 39.6539 14.9698 39.9854 14.8571C40.9981 14.5115 42.0006 14.1526 42.9911 13.7473C43.6393 13.4884 44.2998 13.2658 44.96 13.0399C45.2826 12.9286 45.6051 12.8171 45.9275 12.7056C46.1034 12.6448 46.2792 12.5839 46.4603 12.5213C47.5748 12.1342 48.6875 11.7423 49.8 11.3499C49.9179 11.3084 50.0357 11.2669 50.1571 11.2241C51.6237 10.7068 53.0869 10.1818 54.5439 9.63784C55.4703 9.29355 56.4047 8.98002 57.3457 8.67807C57.8006 8.52115 58.2425 8.35302 58.6882 8.17245C59.4971 7.84521 60.3149 7.5534 61.14 7.26995C61.2936 7.21679 61.4472 7.16363 61.6055 7.10885C62.4631 6.81239 63.3216 6.51821 64.1803 6.22481C64.6373 6.06863 65.0942 5.91219 65.5512 5.75577C65.8825 5.64254 66.2139 5.5298 66.5454 5.4171C67.5582 5.07149 68.5606 4.71258 69.5511 4.30729C70.1993 4.04843 70.8598 3.82583 71.52 3.59995C71.839 3.48986 72.158 3.37964 72.4769 3.26932C72.6523 3.20866 72.8277 3.148 73.0084 3.08549C74.0595 2.72032 75.1091 2.35087 76.1585 1.98089C76.4059 1.89369 76.6534 1.80658 76.9009 1.71956C77.25 1.59677 77.5991 1.47371 77.9482 1.35057C78.0538 1.31346 78.1595 1.27635 78.2684 1.23811C79.3068 0.870989 80.0975 0.618304 81.205 0.904636Z" fill="#DD0031"/>
<path d="M81.805 1.1651C81.9205 1.20494 82.0359 1.24477 82.1549 1.2858C82.5304 1.41582 82.9052 1.54792 83.28 1.6801C83.5373 1.76969 83.7947 1.85919 84.052 1.94858C85.4771 2.44501 86.8982 2.95178 88.3112 3.48186C89.2347 3.82782 90.1666 4.14067 91.1056 4.44198C91.5606 4.59891 92.0025 4.76703 92.4481 4.9476C93.257 5.27484 94.0749 5.56666 94.9 5.8501C95.0536 5.90326 95.2072 5.95643 95.3654 6.0112C96.2231 6.30766 97.0815 6.60184 97.9403 6.89524C98.3973 7.05142 98.8542 7.20786 99.3111 7.36428C99.6424 7.47752 99.9739 7.59025 100.305 7.70296C101.316 8.04785 102.316 8.40607 103.305 8.81065C103.985 9.08138 104.678 9.31349 105.37 9.5501C106.667 9.99727 107.96 10.4532 109.25 10.9201C110.857 11.5014 112.468 12.0725 114.08 12.6401C115.712 13.2147 117.343 13.7926 118.97 14.3801C120.899 15.076 122.829 15.7644 124.769 16.4276C124.881 16.4662 124.994 16.5047 125.11 16.5444C125.679 16.7391 126.248 16.9334 126.817 17.1269C127.845 17.4775 128.864 17.8402 129.869 18.2521C130.537 18.5188 131.219 18.7473 131.9 18.9801C133.306 19.4652 134.709 19.9588 136.11 20.4601C136.296 20.5266 136.482 20.593 136.673 20.6615C137.45 20.9397 138.228 21.2183 139.005 21.497C139.408 21.6417 139.812 21.7863 140.216 21.9308C140.592 22.0658 140.969 22.2009 141.346 22.3363C142.184 22.6364 143.024 22.9292 143.87 23.2064C144.595 23.4456 145.3 23.7149 146.007 24.0036C146.693 24.2766 147.392 24.5114 148.09 24.7501C150.094 25.4406 152.087 26.1582 154.08 26.8801C154.089 27.2668 154.095 27.6533 154.1 28.0401C154.103 28.1461 154.105 28.2521 154.108 28.3614C154.114 29.0137 154.057 29.6242 153.939 30.266C153.735 31.456 153.604 32.6509 153.474 33.8508C153.429 34.264 153.384 34.6771 153.339 35.0902C153.258 35.8219 153.178 36.5535 153.098 37.2852C152.957 38.588 152.814 39.8906 152.671 41.1932C152.655 41.3338 152.64 41.4743 152.624 41.6191C152.441 43.2744 152.248 44.9268 152.024 46.5771C151.824 48.0723 151.66 49.5714 151.495 51.0707C151.48 51.2086 151.465 51.3465 151.449 51.4886C151.323 52.634 151.198 53.7796 151.073 54.9251C150.964 55.9204 150.855 56.9156 150.745 57.9107C150.73 58.0487 150.715 58.1866 150.699 58.3287C150.537 59.7933 150.37 61.2558 150.16 62.7145C149.928 64.3289 149.751 65.9488 149.575 67.5701C149.56 67.7098 149.545 67.8494 149.529 67.9933C149.419 69.0089 149.309 70.0245 149.2 71.0401C149.076 72.1968 148.951 73.3535 148.825 74.5101C148.802 74.7199 148.802 74.7199 148.779 74.934C148.603 76.5445 148.415 78.1507 148.184 79.7543C147.977 81.2225 147.818 82.6959 147.655 84.1695C147.64 84.3072 147.625 84.4449 147.609 84.5868C147.499 85.5878 147.389 86.589 147.28 87.5901C147.155 88.73 147.031 89.8698 146.905 91.0095C146.89 91.1474 146.875 91.2853 146.859 91.4274C146.676 93.0816 146.481 94.7329 146.258 96.3822C146.075 97.7524 145.925 99.1259 145.776 100.5C145.762 100.622 145.749 100.744 145.736 100.87C145.626 101.88 145.518 102.89 145.409 103.9C145.315 104.777 145.221 105.653 145.126 106.53C145.112 106.654 145.099 106.777 145.085 106.904C144.902 108.592 144.694 110.274 144.468 111.956C144.254 113.549 144.087 115.139 143.959 116.741C143.904 117.41 143.845 118.078 143.785 118.746C143.736 119.311 143.69 119.875 143.652 120.441C143.378 124.441 143.378 124.441 142.58 125.184C142.121 125.493 141.636 125.664 141.108 125.819C140.585 125.991 140.129 126.277 139.656 126.554C139.466 126.66 139.274 126.765 139.083 126.87C138.481 127.201 137.879 127.532 137.277 127.863C137.179 127.917 137.081 127.971 136.98 128.027C136.218 128.447 135.458 128.872 134.7 129.3C133.917 129.742 133.131 130.179 132.341 130.608C131.537 131.045 130.736 131.487 129.935 131.929C129.217 132.324 128.5 132.717 127.78 133.108C126.273 133.926 124.771 134.753 123.28 135.6C121.645 136.529 119.996 137.432 118.344 138.33C117.264 138.917 116.189 139.511 115.113 140.104C114.721 140.319 114.33 140.534 113.938 140.748C112.526 141.522 111.12 142.305 109.72 143.1C108.284 143.916 106.836 144.709 105.382 145.493C104.191 146.135 103.007 146.789 101.825 147.448C101.071 147.868 100.316 148.284 99.56 148.7C99.3608 148.81 99.3608 148.81 99.1575 148.922C98.4607 149.304 97.7631 149.686 97.0644 150.065C95.5557 150.884 94.0529 151.712 92.56 152.56C90.9246 153.489 89.2765 154.392 87.6237 155.29C86.9413 155.661 86.2606 156.035 85.58 156.41C85.4513 156.481 85.3226 156.552 85.19 156.625C84.7933 156.843 84.3966 157.062 84 157.28C83.4067 157.607 82.8134 157.934 82.22 158.26C82.0136 158.374 82.0136 158.374 81.803 158.49C81.6762 158.56 81.5494 158.629 81.4187 158.701C81.2507 158.794 81.2507 158.794 81.0793 158.888C80.8814 158.996 80.6814 159.099 80.48 159.2C80.3744 159.147 80.2688 159.095 80.16 159.04C80.1072 150.117 80.0544 141.194 80 132C82.5344 132 85.0688 132 87.68 132C87.7856 131.789 87.8912 131.578 88 131.36C88.3253 131.034 88.6534 130.723 88.9937 130.414C95.1918 124.695 95.1918 124.695 97.961 117.056C97.9727 116.002 97.9046 114.964 97.76 113.92C96.1929 115.024 94.6282 116.131 93.0695 117.247C92.8013 117.439 92.5329 117.631 92.2644 117.822C91.1804 118.595 90.0993 119.371 89.02 120.15C88.8967 120.239 88.7734 120.328 88.6464 120.42C88.53 120.504 88.4137 120.588 88.2937 120.674C88.1907 120.749 88.0877 120.823 87.9815 120.9C87.7648 121.058 87.5519 121.221 87.3416 121.388C87.04 121.6 87.04 121.6 86.72 121.6C86.5911 120.542 86.4773 119.448 86.72 118.4C87.2084 117.781 87.7889 117.477 88.4797 117.132C89.0591 116.821 89.5789 116.426 90.11 116.04C90.3415 115.876 90.5732 115.712 90.805 115.549C91.7775 114.858 92.7432 114.159 93.7094 113.459C94.3517 112.995 94.9952 112.532 95.64 112.07C95.8962 111.887 95.8962 111.887 96.1575 111.699C96.64 111.36 96.64 111.36 97.1737 111.093C97.6524 110.674 97.6698 110.594 97.7287 109.993C97.7372 109.715 97.7408 109.438 97.74 109.16C97.7433 109.018 97.7466 108.876 97.75 108.729C97.7575 108.38 97.7607 108.03 97.76 107.68C96.4289 108.491 95.1811 109.389 93.9302 110.316C92.3262 111.502 90.7042 112.661 89.06 113.79C88.8673 113.923 88.8673 113.923 88.6708 114.058C88.5505 114.14 88.4302 114.222 88.3062 114.307C88.2006 114.379 88.0949 114.451 87.986 114.526C87.6793 114.721 87.3676 114.884 87.04 115.04C87.04 115.146 87.04 115.251 87.04 115.36C86.9344 115.36 86.8288 115.36 86.72 115.36C86.5475 114.292 86.3961 113.212 86.72 112.16C87.3401 111.317 88.3081 110.825 89.2012 110.314C89.8148 109.954 90.3841 109.537 90.96 109.12C91.1842 108.962 91.4086 108.804 91.6331 108.646C92.3559 108.136 93.0733 107.619 93.79 107.1C93.9092 107.014 94.0284 106.928 94.1512 106.839C94.7243 106.425 95.2967 106.01 95.8681 105.593C96.0721 105.445 96.276 105.298 96.48 105.15C96.5731 105.082 96.6661 105.014 96.762 104.943C97.4037 104.48 97.4037 104.48 97.76 104.48C97.76 103.424 97.76 102.368 97.76 101.28C96.246 102.345 94.7373 103.416 93.2386 104.502C92.3095 105.174 91.3737 105.837 90.4346 106.495C89.8673 106.894 89.3045 107.298 88.7475 107.711C88.6369 107.793 88.5263 107.875 88.4123 107.96C88.202 108.117 87.9922 108.274 87.783 108.432C87.0748 108.96 87.0748 108.96 86.72 108.96C86.478 106.293 86.478 106.293 87.0031 105.484C87.424 105.153 87.8514 104.898 88.32 104.64C88.6552 104.41 88.9885 104.176 89.32 103.94C89.4975 103.818 89.6752 103.697 89.8531 103.576C90.4107 103.194 90.961 102.804 91.51 102.41C91.6033 102.343 91.6966 102.276 91.7928 102.208C91.9817 102.072 92.1706 101.937 92.3595 101.801C92.7198 101.543 93.0801 101.285 93.4412 101.027C93.6235 100.896 93.805 100.765 93.9853 100.631C94.4997 100.254 95.0153 99.9189 95.576 99.6142C96.8767 98.8912 96.8767 98.8912 97.7562 97.7371C97.9995 96.7817 97.9532 95.8103 97.9219 94.8326C97.9209 94.5186 97.9208 94.2047 97.9217 93.8907C97.9207 93.2346 97.9105 92.5794 97.8931 91.9235C97.8714 91.0898 97.8686 90.2574 97.8723 89.4235C97.8738 88.7754 97.867 88.1276 97.8577 87.4796C97.8539 87.1728 97.852 86.8658 97.8523 86.5589C97.8463 84.4516 97.4715 83.0794 96.2 81.3878C95.9239 81.0183 95.674 80.6331 95.4218 80.2471C95.2479 79.9915 95.0735 79.7363 94.8987 79.4814C94.7071 79.1995 94.5154 78.9176 94.3237 78.6357C94.0287 78.203 93.7334 77.7704 93.4378 77.338C93.1475 76.9129 92.8581 76.4871 92.5687 76.0614C92.4345 75.8659 92.4345 75.8659 92.2976 75.6665C92.2163 75.5466 92.135 75.4268 92.0512 75.3033C91.9793 75.198 91.9073 75.0928 91.8332 74.9843C91.68 74.7201 91.68 74.7201 91.68 74.4001C90.3635 75.0966 89.112 75.8573 87.84 76.6401C85.3056 76.6401 82.7712 76.6401 80.16 76.6401C80.16 51.6657 80.16 26.6913 80.16 0.960104C80.7964 0.747976 81.1995 0.949663 81.805 1.1651Z" fill="#C3002F"/>
<path d="M67.8399 74.3999C68.4655 74.6936 69.0335 74.9762 69.5919 75.3878C71.3833 76.6871 73.0684 76.6972 75.2231 76.6824C75.5786 76.6842 75.9342 76.6864 76.2898 76.6889C77.0318 76.6924 77.7735 76.6907 78.5155 76.6852C79.4586 76.6788 80.4011 76.6868 81.3442 76.6991C82.0777 76.7067 82.811 76.706 83.5445 76.703C83.8918 76.7026 84.2391 76.7049 84.5864 76.71C86.9629 76.7396 88.5421 76.3537 90.4609 74.9143C91.1465 74.3999 91.1465 74.3999 91.6799 74.3999C91.9041 74.6521 91.9041 74.6521 92.1375 75.0106C92.2257 75.1443 92.3139 75.278 92.4048 75.4158C92.5466 75.6363 92.5466 75.6363 92.6912 75.8612C92.8395 76.0876 92.8395 76.0876 92.9909 76.3186C93.3088 76.8047 93.6244 77.2923 93.9399 77.7799C94.149 78.1002 94.3581 78.4204 94.5674 78.7405C95.6318 80.3705 95.6318 80.3705 96.0153 80.9793C96.3207 81.454 96.3207 81.454 96.7034 81.9318C97.9253 83.5406 97.9876 85.0123 97.9849 86.9868C97.9884 87.3022 97.9921 87.6176 97.996 87.9331C98.0024 88.5903 98.0032 89.2473 98.0004 89.9046C97.9976 90.7432 98.0123 91.5805 98.0317 92.4188C98.0441 93.0689 98.0455 93.7186 98.0437 94.3687C98.0445 94.6777 98.0491 94.9866 98.0577 95.2955C98.1156 97.6296 98.1156 97.6296 97.5224 98.3806C96.9544 98.9146 96.3219 99.3138 95.6392 99.6852C95.2826 99.8827 94.9584 100.115 94.6318 100.359C94.4313 100.499 94.2307 100.64 94.0299 100.78C92.9609 101.53 91.9004 102.292 90.8429 103.059C89.8594 103.771 88.8688 104.472 87.8746 105.169C87.3546 105.516 87.3546 105.516 86.8799 105.92C86.855 106.146 86.8399 106.373 86.8293 106.601C86.8226 106.737 86.8159 106.874 86.809 107.015C86.8027 107.158 86.7964 107.302 86.7899 107.45C86.7796 107.666 86.7796 107.666 86.769 107.887C86.752 108.245 86.7357 108.602 86.7199 108.96C88.3773 107.792 90.0315 106.62 91.6799 105.44C92.0432 105.18 92.4065 104.92 92.7699 104.66C92.8601 104.595 92.9503 104.531 93.0431 104.464C93.5731 104.086 94.1046 103.709 94.6374 103.335C94.7592 103.249 94.8809 103.164 95.0063 103.075C95.2428 102.909 95.4795 102.743 95.7164 102.577C96.1903 102.244 96.6508 101.911 97.0993 101.544C97.4399 101.28 97.4399 101.28 97.7599 101.28C97.8887 102.337 98.0071 103.434 97.7599 104.48C97.26 105.1 96.6783 105.417 95.9782 105.763C95.4839 106.023 95.0476 106.358 94.5999 106.69C94.4119 106.825 94.2235 106.96 94.0349 107.095C93.9384 107.164 93.8419 107.233 93.7424 107.304C93.2033 107.689 92.6614 108.069 92.1199 108.45C91.0099 109.231 89.9078 110.023 88.8101 110.822C88.6972 110.904 88.5844 110.985 88.4681 111.07C88.3614 111.149 88.2547 111.228 88.1448 111.309C87.8399 111.52 87.8399 111.52 87.2856 111.797C86.8173 112.216 86.8089 112.321 86.7512 112.922C86.7427 113.215 86.7391 113.507 86.7399 113.8C86.7366 113.95 86.7333 114.099 86.7299 114.254C86.7224 114.623 86.7192 114.991 86.7199 115.36C86.8255 115.36 86.9311 115.36 87.0399 115.36C87.0399 115.254 87.0399 115.149 87.0399 115.04C87.4309 114.739 87.8233 114.458 88.2299 114.18C88.4816 114.005 88.7333 113.83 88.9849 113.656C89.1143 113.566 89.2436 113.477 89.3768 113.385C89.9571 112.984 90.5336 112.577 91.1099 112.17C91.2766 112.052 91.2766 112.052 91.4466 111.933C92.2889 111.338 93.1251 110.735 93.9599 110.13C94.8233 109.505 95.6874 108.882 96.5599 108.27C96.7233 108.155 96.8866 108.04 97.0549 107.922C97.4399 107.68 97.4399 107.68 97.7599 107.68C97.9338 108.696 98.0804 109.72 97.7599 110.72C97.1325 111.553 96.1669 112.048 95.2788 112.563C94.6667 112.927 94.0963 113.343 93.5199 113.76C93.2957 113.918 93.0714 114.076 92.8468 114.234C92.1241 114.744 91.4067 115.261 90.6899 115.78C90.5707 115.866 90.4515 115.952 90.3287 116.041C89.7556 116.455 89.1833 116.87 88.6118 117.287C88.4079 117.435 88.2039 117.582 87.9999 117.73C87.9069 117.798 87.8138 117.866 87.718 117.937C87.0762 118.4 87.0762 118.4 86.7199 118.4C86.7199 119.456 86.7199 120.512 86.7199 121.6C88.2339 120.535 89.7426 119.464 91.2413 118.378C92.1704 117.706 93.1063 117.043 94.0453 116.385C94.6126 115.986 95.1755 115.582 95.7324 115.169C95.8431 115.087 95.9537 115.005 96.0676 114.92C96.2779 114.763 96.4877 114.606 96.6969 114.448C97.4051 113.92 97.4051 113.92 97.7599 113.92C98.3616 117.228 97.9705 119.732 96.0733 122.544C93.8928 125.679 91.3513 128.431 88.5446 131.014C88.0469 131.455 88.0469 131.455 87.6799 132C85.6132 132.03 83.5465 132.052 81.4795 132.066C80.5197 132.073 79.5601 132.082 78.6004 132.096C77.6739 132.11 76.7476 132.118 75.8211 132.121C75.4679 132.124 75.1147 132.128 74.7615 132.135C74.2661 132.145 73.7713 132.146 73.2758 132.145C73.1303 132.15 72.9847 132.154 72.8347 132.159C72.2175 132.151 71.8333 132.129 71.3504 131.723C71.067 131.4 70.8143 131.066 70.5599 130.72C70.3933 130.545 70.2236 130.374 70.0495 130.207C69.9655 130.126 69.8815 130.045 69.795 129.961C69.665 129.837 69.665 129.837 69.5324 129.711C65.7476 126.044 65.7476 126.044 64.7349 124.212C64.4162 123.641 64.0353 123.163 63.6149 122.663C61.2969 119.803 61.2611 117.457 61.5999 113.92C62.0258 114.123 62.4115 114.345 62.7962 114.618C62.9549 114.73 62.9549 114.73 63.1168 114.845C63.2867 114.966 63.2867 114.966 63.4599 115.09C63.5794 115.175 63.6988 115.259 63.8218 115.347C64.8053 116.046 65.7833 116.753 66.7608 117.461C68.7027 118.866 70.6668 120.239 72.6399 121.6C72.6399 120.544 72.6399 119.488 72.6399 118.4C72.3759 118.294 72.1119 118.189 71.8399 118.08C71.4985 117.853 71.1691 117.623 70.8399 117.38C70.6415 117.236 70.4429 117.091 70.2443 116.947C70.1399 116.871 70.0355 116.795 69.928 116.717C69.3592 116.306 68.7842 115.903 68.2099 115.5C67.3321 114.882 66.46 114.257 65.5937 113.622C64.8505 113.085 64.0993 112.559 63.3478 112.034C63.1281 111.879 62.9096 111.724 62.6924 111.566C62.3759 111.337 62.3759 111.337 61.9218 111.08C61.4066 110.504 61.5143 109.903 61.5499 109.16C61.5536 109.018 61.5572 108.876 61.5609 108.729C61.5703 108.379 61.5834 108.03 61.5999 107.68C62.3331 107.924 62.9009 108.339 63.5099 108.8C63.7244 108.96 63.939 109.12 64.1537 109.279C64.2617 109.36 64.3697 109.441 64.481 109.524C64.9598 109.878 65.4443 110.225 65.9299 110.57C66.0216 110.635 66.1133 110.7 66.2077 110.768C66.3926 110.899 66.5776 111.031 66.7625 111.162C67.2288 111.494 67.6943 111.827 68.1599 112.16C68.3451 112.292 68.5304 112.424 68.7156 112.557C70.0237 113.491 71.3318 114.426 72.6399 115.36C72.6399 114.304 72.6399 113.248 72.6399 112.16C72.3759 112.054 72.1119 111.949 71.8399 111.84C71.5135 111.605 71.1941 111.361 70.8799 111.11C70.0115 110.426 69.1209 109.787 68.2081 109.163C67.6668 108.793 67.1329 108.412 66.5999 108.03C65.6271 107.332 64.6502 106.641 63.6717 105.952C63.4571 105.8 63.2435 105.648 63.031 105.494C62.7242 105.275 62.7242 105.275 62.393 105.103C62.0695 104.918 61.8396 104.766 61.5999 104.48C61.4657 103.923 61.4934 103.398 61.5299 102.83C61.535 102.681 61.54 102.532 61.5453 102.378C61.5584 102.012 61.5768 101.646 61.5999 101.28C62.0524 101.494 62.4498 101.735 62.8537 102.03C62.9701 102.115 63.0864 102.199 63.2063 102.286C63.3913 102.422 63.3913 102.422 63.5799 102.56C63.8403 102.749 64.1007 102.939 64.3612 103.128C64.4899 103.222 64.6187 103.316 64.7513 103.412C65.2589 103.781 65.769 104.146 66.2799 104.51C66.4618 104.639 66.6437 104.769 66.8256 104.899C66.9141 104.962 67.0026 105.025 67.0938 105.09C67.3594 105.28 67.6245 105.47 67.8893 105.661C69.4545 106.788 71.0452 107.876 72.6399 108.96C72.8485 107.209 72.8485 107.209 72.2518 105.621C71.6207 105.055 70.8859 104.647 70.1509 104.231C69.4983 103.845 68.8982 103.391 68.2899 102.94C68.0479 102.764 67.8056 102.589 67.5631 102.414C67.4473 102.33 67.3315 102.246 67.2122 102.16C66.7294 101.811 66.2449 101.465 65.7599 101.12C64.8613 100.479 63.9651 99.8354 63.0699 99.1899C62.9426 99.0982 62.8152 99.0065 62.684 98.9121C62.5661 98.827 62.4483 98.7419 62.3268 98.6543C62.1685 98.5401 62.1685 98.5401 62.0069 98.4236C61.7599 98.2399 61.7599 98.2399 61.5999 98.0799C61.5787 97.6356 61.568 97.1952 61.564 96.7506C61.5622 96.6111 61.5604 96.4716 61.5585 96.3279C61.5407 94.8637 61.5332 93.3993 61.5263 91.935C61.5228 91.2408 61.5161 90.5467 61.5067 89.8525C61.4953 89.0141 61.4894 88.1758 61.4875 87.3372C61.4858 87.0184 61.4822 86.6995 61.4766 86.3806C61.4255 83.2973 61.4255 83.2973 62.7199 81.9199C62.8677 81.711 63.0113 81.4991 63.1499 81.284C63.2162 81.1847 63.2824 81.0853 63.3507 80.9829C63.4179 80.8816 63.4851 80.7804 63.5543 80.6762C63.6278 80.5658 63.7013 80.4554 63.7771 80.3417C64.0082 79.9945 64.2391 79.6472 64.4699 79.2999C64.6236 79.0691 64.7772 78.8382 64.9309 78.6074C65.0061 78.4943 65.0814 78.3812 65.159 78.2647C65.308 78.0407 65.4572 77.8168 65.6063 77.5928C65.9466 77.0816 66.2863 76.57 66.6244 76.0572C66.7386 75.8845 66.8529 75.7117 66.9706 75.5337C67.1192 75.3079 67.1192 75.3079 67.2709 75.0776C67.5199 74.7199 67.5199 74.7199 67.8399 74.3999Z" fill="#FEFDFD"/>
<path d="M81.28 28.48C82.336 28.48 83.392 28.48 84.48 28.48C84.48 34.9744 84.48 41.4688 84.48 48.16C85.4304 47.6848 86.3808 47.2096 87.36 46.72C87.4128 40.7536 87.4656 34.7872 87.52 28.64C88.3648 28.64 89.2096 28.64 90.08 28.64C91.8071 32.6699 91.8071 32.6699 92.3425 34.1962C92.516 34.6552 92.7331 35.0818 92.96 35.5162C93.1976 35.9969 93.3878 36.4941 93.58 36.9944C93.7284 37.3616 93.8853 37.721 94.0482 38.0819C94.4694 39.0236 94.8488 39.9815 95.23 40.94C95.3382 41.2104 95.3382 41.2104 95.4485 41.4862C95.9775 42.8123 95.9775 42.8123 96.16 43.36C96.688 43.4128 97.216 43.4656 97.76 43.52C97.76 43.4144 97.76 43.3088 97.76 43.2C104.391 42.6983 104.391 42.6983 106.473 42.6174C107.505 42.5745 108.532 42.4986 109.561 42.4162C111.104 42.2951 112.646 42.1814 114.189 42.0744C114.384 42.0608 114.578 42.0472 114.778 42.0333C115.573 41.9778 116.369 41.9224 117.164 41.8679C117.756 41.8273 118.348 41.7859 118.939 41.7444C119.12 41.7322 119.3 41.72 119.486 41.7075C119.652 41.6957 119.818 41.6839 119.989 41.6718C120.207 41.6567 120.207 41.6567 120.43 41.6414C120.825 41.6102 120.825 41.6102 121.28 41.44C121.587 41.4161 121.894 41.4003 122.202 41.3894C122.381 41.3827 122.56 41.3759 122.744 41.369C122.931 41.3628 123.118 41.3565 123.31 41.35C123.593 41.3396 123.593 41.3396 123.882 41.329C124.348 41.3121 124.814 41.2957 125.28 41.28C125.3 42.0225 125.249 42.6621 125.06 43.38C124.999 43.6182 124.999 43.6182 124.936 43.8612C124.8 44.32 124.8 44.32 124.65 44.6689C124.437 45.2335 124.311 45.8078 124.186 46.3962C124.159 46.5188 124.132 46.6413 124.104 46.7676C124.019 47.1582 123.934 47.5491 123.85 47.94C123.206 50.9155 123.206 50.9155 122.828 52.25C122.643 52.9186 122.488 53.5943 122.33 54.27C121.939 55.9326 121.939 55.9326 121.743 56.7019C121.716 56.809 121.689 56.9161 121.661 57.0264C121.581 57.3363 121.496 57.645 121.412 57.9537C121.312 58.4126 121.266 58.7492 121.263 59.2062C121.225 59.9294 121.181 60.3392 120.8 60.96C119.809 61.5583 118.665 61.8147 117.556 62.1083C117.057 62.259 116.633 62.4714 116.176 62.7168C115.469 63.0603 114.707 63.2718 113.96 63.51C112.811 63.884 111.686 64.2688 110.579 64.755C109.743 65.0985 108.886 65.3829 108.032 65.6775C107.375 65.9048 106.723 66.1336 106.08 66.4C105.265 66.7306 104.439 67.0266 103.61 67.32C103.468 67.3709 103.325 67.4219 103.178 67.4744C103.044 67.5216 102.909 67.5688 102.771 67.6175C102.649 67.6603 102.528 67.7032 102.403 67.7473C102.08 67.84 102.08 67.84 101.6 67.84C101.6 67.9456 101.6 68.0512 101.6 68.16C101.47 68.2043 101.339 68.2485 101.205 68.2942C100.711 68.4621 100.217 68.6307 99.7231 68.7996C99.5112 68.872 99.2993 68.9441 99.0873 69.016C97.8677 69.4298 96.6686 69.8705 95.4832 70.376C94.8055 70.6573 94.1145 70.8942 93.42 71.13C92.3478 71.4999 91.2859 71.8799 90.24 72.32C90.081 72.3858 89.922 72.4516 89.7582 72.5194C88.9029 72.8739 88.0511 73.2352 87.2 73.6C85.2464 73.6 83.2928 73.6 81.28 73.6C81.28 58.7104 81.28 43.8208 81.28 28.48Z" fill="#FEFDFD"/>
<path d="M69.28 28.6399C70.1248 28.6399 70.9696 28.6399 71.84 28.6399C71.84 34.6591 71.84 40.6783 71.84 46.8799C72.3152 47.0383 72.3152 47.0383 72.8 47.1999C73.4864 47.5167 74.1728 47.8335 74.88 48.1599C74.88 41.7183 74.88 35.2767 74.88 28.6399C75.936 28.6399 76.992 28.6399 78.08 28.6399C78.08 43.4767 78.08 58.3135 78.08 73.5999C73.12 73.5999 73.12 73.5999 71.36 72.7999C71.0362 72.6909 70.7098 72.589 70.38 72.4999C69.569 72.2622 68.8052 71.9718 68.03 71.6399C66.7318 71.0854 65.405 70.641 64.0598 70.2144C63.2454 69.9523 62.4937 69.6634 61.7372 69.2645C61.2471 69.026 60.7332 68.8871 60.21 68.7399C59.3846 68.496 58.6167 68.2171 57.84 67.8399C57.1078 67.4863 56.3785 67.2106 55.6 66.9799C54.4348 66.6345 53.3078 66.215 52.1753 65.7749C51.0323 65.3324 49.8798 64.9239 48.7174 64.5353C48.2048 64.3607 47.7445 64.1991 47.2806 63.9168C46.698 63.5723 46.0765 63.411 45.43 63.2199C44.3959 62.9041 43.3942 62.5681 42.4088 62.1186C42.017 61.9593 41.6582 61.8459 41.2513 61.7411C40.5538 61.5496 39.9761 61.3479 39.36 60.9599C39.028 60.2807 38.9655 59.628 38.9127 58.8865C38.8596 58.3561 38.7174 57.8539 38.58 57.3399C38.525 57.1267 38.4705 56.9133 38.4163 56.6999C38.3879 56.5883 38.3594 56.4767 38.3302 56.3618C38.2314 55.9652 38.1371 55.5678 38.0438 55.1699C38.0099 55.0256 37.9761 54.8814 37.9412 54.7328C37.8764 54.4557 37.8121 54.1786 37.7482 53.9014C37.5663 53.1252 37.3605 52.3609 37.135 51.5961C36.7107 50.1292 36.4 48.6393 36.08 47.1468C36.0006 46.7777 35.9205 46.4087 35.84 46.0399C35.8141 45.9208 35.7881 45.8016 35.7614 45.6789C35.5517 44.7364 35.2898 43.8186 34.9975 42.898C34.8669 42.3444 34.86 41.8467 34.88 41.2799C35.1105 41.2979 35.1105 41.2979 35.3456 41.3163C38.6523 41.5741 41.9595 41.808 45.27 42.0099C47.5354 42.1482 49.7985 42.2928 52.06 42.4855C52.7363 42.543 53.4129 42.5926 54.09 42.6393C54.2833 42.6528 54.4766 42.6663 54.6758 42.6802C55.0436 42.7056 55.4116 42.7304 55.7796 42.7543C56.7709 42.8237 57.7322 42.9498 58.7104 43.1229C59.5757 43.259 60.4468 43.317 61.32 43.3799C61.5932 43.4006 61.5932 43.4006 61.8719 43.4218C62.3145 43.4552 62.7572 43.4879 63.2 43.5199C63.2291 43.4137 63.2582 43.3075 63.2881 43.198C63.5061 42.4322 63.731 41.795 64.16 41.1199C64.3141 40.7277 64.4599 40.3369 64.6 39.9399C64.92 39.0576 65.2717 38.2049 65.68 37.3599C66.1315 36.4247 66.5057 35.4765 66.8594 34.5005C67.1237 33.7796 67.4361 33.1112 67.7931 32.433C68.1664 31.6516 68.4505 30.8347 68.7469 30.0218C68.9167 29.5582 69.0966 29.0983 69.28 28.6399Z" fill="#FEFDFD"/>
<path d="M40.32 64.1599C40.5702 64.2349 40.8203 64.3099 41.0705 64.3849C41.2098 64.4267 41.3491 64.4684 41.4926 64.5115C42.1592 64.7118 42.8251 64.9142 43.49 65.1199C43.6211 65.1595 43.7522 65.1991 43.8872 65.2399C44.0783 65.2993 44.0783 65.2993 44.2732 65.3599C44.4427 65.4119 44.4427 65.4119 44.6156 65.4649C44.96 65.5999 44.96 65.5999 45.3171 65.8353C45.7871 66.0949 46.2232 66.1818 46.7437 66.2955C48.6293 66.7721 49.7874 67.8536 51.1007 69.2105C51.2389 69.3533 51.2389 69.3533 51.38 69.4989C52.051 70.1955 52.7113 70.9018 53.37 71.6099C54.0343 72.3235 54.7019 73.0333 55.3788 73.735C55.6457 74.0153 55.9054 74.301 56.1654 74.5876C56.9775 75.4966 56.9775 75.4966 58.0867 75.8884C58.5445 75.8105 58.9305 75.694 59.36 75.5199C59.604 75.4399 59.8482 75.3605 60.0925 75.2818C60.2663 75.2203 60.2663 75.2203 60.4435 75.1576C61.0707 74.9506 61.7138 74.8224 62.36 74.6899C62.4918 74.6616 62.6236 74.6332 62.7594 74.604C63.3952 74.4714 63.9866 74.3614 64.64 74.3999C63.9021 75.6182 63.089 76.7692 62.2507 77.9196C60.2634 80.3096 60.2634 80.3096 59.3155 83.067C59.3137 83.2736 59.3119 83.4803 59.3101 83.6932C59.3097 83.9226 59.3094 84.1521 59.309 84.3816C59.3075 84.6228 59.3059 84.8641 59.3042 85.1053C59.2998 85.7608 59.2974 86.4163 59.2953 87.0718C59.2928 87.7566 59.2885 88.4415 59.2844 89.1263C59.2769 90.4233 59.271 91.7204 59.2657 93.0174C59.2596 94.494 59.2517 95.9706 59.2437 97.4471C59.2271 100.485 59.2128 103.522 59.2 106.56C58.7452 106.339 58.371 106.11 57.9813 105.786C57.8721 105.696 57.7629 105.606 57.6504 105.513C57.5348 105.416 57.4192 105.32 57.3 105.22C57.1797 105.12 57.0593 105.02 56.9353 104.917C56.0772 104.203 55.2279 103.48 54.3827 102.751C53.6929 102.156 52.9912 101.578 52.2844 101.004C51.785 100.595 51.2921 100.178 50.8 99.7599C50.0243 99.1007 49.2403 98.453 48.4507 97.8105C47.946 97.3955 47.4477 96.9734 46.95 96.5499C46.3507 96.0401 45.7476 95.5378 45.13 95.0499C44.3862 94.4606 43.6663 93.8459 42.9498 93.224C42.8626 93.1486 42.7755 93.0732 42.6857 92.9955C42.599 92.9179 42.5123 92.8402 42.4229 92.7602C42.0762 92.4646 42.0762 92.4646 41.6429 92.2071C40.9169 91.7187 40.4062 91.3417 40.1601 90.4797C40.1033 89.7833 40.1019 89.1064 40.1202 88.4089C40.1207 88.1439 40.1205 87.8789 40.1195 87.6138C40.119 86.8977 40.1293 86.1821 40.1416 85.4661C40.1526 84.7166 40.1536 83.9671 40.1557 83.2175C40.1612 81.7997 40.1756 80.3821 40.1933 78.9643C40.213 77.3496 40.2226 75.735 40.2315 74.1202C40.2499 70.8 40.2808 67.48 40.32 64.1599Z" fill="#FEFDFD"/>
<path d="M119.04 64.32C119.089 67.7734 119.125 71.2267 119.148 74.6803C119.158 76.2841 119.173 77.8876 119.197 79.4912C119.218 80.8894 119.231 82.2874 119.236 83.6858C119.238 84.4259 119.245 85.1655 119.26 85.9054C119.274 86.6031 119.278 87.3001 119.275 87.9979C119.276 88.2528 119.28 88.5078 119.288 88.7627C119.344 90.6334 119.344 90.6334 118.834 91.3154C118.271 91.8994 117.63 92.3474 116.96 92.8C116.758 92.9653 116.559 93.1333 116.364 93.3062C115.439 94.091 114.509 94.8661 113.568 95.6312C113.077 96.0352 112.594 96.4471 112.11 96.86C111.384 97.4792 110.644 98.0754 109.89 98.66C109.091 99.2801 108.332 99.9278 107.586 100.612C107.043 101.102 106.475 101.559 105.907 102.019C105.399 102.433 104.899 102.855 104.4 103.28C103.605 103.956 102.802 104.62 101.992 105.277C101.638 105.569 101.293 105.867 100.95 106.17C100.48 106.56 100.48 106.56 100.16 106.56C100.161 106.436 100.162 106.312 100.162 106.185C100.181 103.162 100.19 100.14 100.189 97.1172C100.188 95.6554 100.191 94.1938 100.201 92.7321C100.21 91.4569 100.213 90.1819 100.209 88.9068C100.206 88.2325 100.207 87.5585 100.216 86.8842C100.357 83.1549 100.357 83.1549 98.6706 79.9583C98.5285 79.8136 98.3864 79.669 98.24 79.52C98.0543 79.2664 97.8723 79.01 97.6988 78.7481C97.5526 78.542 97.4064 78.3359 97.26 78.13C97.1004 77.9042 96.9408 77.6783 96.7813 77.4525C96.5529 77.1293 96.3244 76.8062 96.0955 76.4834C95.8896 76.1928 95.6847 75.9015 95.48 75.61C95.3637 75.4452 95.2474 75.2804 95.1275 75.1106C94.88 74.72 94.88 74.72 94.88 74.4C96.8409 74.6965 98.7539 75.0513 100.64 75.68C101.572 75.7763 101.572 75.7763 102.379 75.3645C102.519 75.2167 102.659 75.069 102.803 74.9168C102.921 74.795 102.921 74.795 103.042 74.6708C103.212 74.4949 103.38 74.3175 103.548 74.1388C103.814 73.8544 104.085 73.5744 104.356 73.2952C105.032 72.6004 105.701 71.8995 106.368 71.1969C106.931 70.604 107.497 70.0146 108.068 69.4296C108.332 69.1566 108.591 68.8794 108.85 68.6016C110.085 67.3146 111.27 66.7603 112.96 66.24C113.386 66.0858 113.808 65.923 114.23 65.76C114.66 65.5989 115.09 65.4393 115.52 65.28C115.7 65.2129 115.7 65.2129 115.884 65.1445C116.252 65.0082 116.621 64.8738 116.99 64.74C117.103 64.6979 117.216 64.6558 117.333 64.6125C117.929 64.3986 118.41 64.3009 119.04 64.32Z" fill="#FEFDFD"/>
<path d="M62.09 27.9901C62.215 27.999 62.3401 28.0078 62.4689 28.0169C64.0093 28.1347 65.5239 28.3414 67.04 28.6401C66.8625 29.103 66.6841 29.5657 66.5056 30.0282C66.4556 30.1586 66.4057 30.289 66.3542 30.4234C66.0494 31.2115 65.7134 31.964 65.3194 32.712C65.0631 33.2365 64.8519 33.7766 64.64 34.3201C64.3234 35.1304 63.9773 35.9102 63.5769 36.6826C62.9919 37.8627 62.4931 39.087 61.9762 40.2982C61.857 40.5749 61.7347 40.8506 61.6 41.1201C60.2818 41.15 58.9868 41.048 57.6762 40.9238C57.3186 40.89 56.9609 40.8573 56.6031 40.8248C54.848 40.6625 54.848 40.6625 54.259 40.5594C53.5957 40.454 52.9336 40.4134 52.2637 40.3707C51.9694 40.3508 51.675 40.3309 51.3806 40.311C50.9215 40.2805 50.4624 40.2502 50.0032 40.2205C46.7183 40.0065 46.7183 40.0065 45.12 39.6801C45.3913 39.0445 45.8168 38.5404 46.2533 38.0127C46.3789 37.8605 46.3789 37.8605 46.507 37.7052C47.6192 36.3686 48.7778 35.0749 49.96 33.8001C50.0735 33.6775 50.187 33.5548 50.3039 33.4285C53.8592 29.6202 56.7742 27.613 62.09 27.9901Z" fill="#FEFDFD"/>
<path d="M92.48 28.6399C93.8584 28.5574 95.2357 28.4954 96.6159 28.4576C97.2574 28.4394 97.8971 28.4149 98.5376 28.3744C103.076 28.0948 103.076 28.0948 104.636 29.411C105.415 30.1155 106.086 30.9111 106.717 31.7495C107.063 32.1888 107.439 32.5715 107.84 32.9599C108.124 33.2438 108.408 33.5276 108.691 33.8118C108.906 34.026 109.123 34.2383 109.34 34.4499C109.724 34.8432 110.086 35.2478 110.45 35.6599C111.001 36.278 111.575 36.8246 112.207 37.3574C112.559 37.67 112.828 38.0324 113.12 38.3999C113.413 38.6569 113.712 38.9039 114.017 39.1468C114.091 39.2171 114.164 39.2875 114.24 39.3599C114.24 39.4655 114.24 39.5711 114.24 39.6799C111.738 40.0512 109.242 40.3023 106.72 40.4899C106.211 40.5286 105.703 40.5676 105.194 40.6068C104.86 40.6325 104.526 40.658 104.192 40.6834C102.918 40.7811 101.646 40.8946 100.375 41.0219C99.4985 41.1062 98.6401 41.1324 97.76 41.1199C96.8225 39.0106 96.8225 39.0106 96.6497 38.6216C96.5409 38.3769 96.4319 38.1322 96.3228 37.8877C95.8185 36.7566 95.3264 35.6204 94.8337 34.4843C94.427 33.5474 94.0157 32.6128 93.6 31.6799C93.4285 31.2939 93.2588 30.9072 93.09 30.5199C93.0085 30.3343 92.927 30.1487 92.8431 29.9574C92.6672 29.5093 92.5661 29.1104 92.48 28.6399Z" fill="#FEFCFD"/>
<path d="M110.4 101.28C110.709 102.771 110.907 104.263 111.02 105.78C111.028 105.893 111.037 106.006 111.046 106.123C111.24 109.086 110.784 111.391 108.84 113.699C107.776 114.904 106.637 116.026 105.46 117.12C105.342 117.23 105.224 117.34 105.103 117.453C103.904 118.563 102.683 119.647 101.427 120.692C101.335 120.769 101.244 120.845 101.149 120.924C100.519 121.44 100.519 121.44 100.16 121.44C100.104 119.953 100.062 118.467 100.036 116.979C100.023 116.288 100.006 115.598 99.9789 114.907C99.792 110.068 99.792 110.068 100.674 108.948C101.154 108.481 101.67 108.14 102.266 107.838C102.709 107.6 103.072 107.279 103.45 106.95C103.589 106.837 103.729 106.724 103.872 106.608C104.683 105.942 105.474 105.255 106.268 104.571C106.563 104.317 106.859 104.063 107.156 103.81C107.253 103.727 107.35 103.644 107.45 103.558C107.641 103.395 107.832 103.231 108.023 103.068C108.64 102.54 109.248 102.005 109.847 101.458C110.08 101.28 110.08 101.28 110.4 101.28Z" fill="#FEFBFC"/>
<path d="M48.96 101.28C49.28 101.28 49.28 101.28 49.6288 101.618C49.6993 101.691 49.7698 101.764 49.8424 101.84C50.2775 102.28 50.7514 102.676 51.22 103.08C51.3262 103.172 51.4325 103.264 51.5419 103.358C52.2819 103.995 53.0332 104.617 53.7919 105.232C54.5069 105.819 55.2061 106.425 55.9075 107.028C56.4766 107.518 57.0476 108.005 57.62 108.49C57.7478 108.599 57.7478 108.599 57.8781 108.71C58.366 109.125 58.366 109.125 58.9029 109.471C59.2 109.76 59.2 109.76 59.277 110.267C59.2749 110.581 59.2749 110.581 59.2727 110.901C59.2728 111.017 59.2729 111.133 59.273 111.252C59.2725 111.633 59.2676 112.015 59.2625 112.397C59.2613 112.662 59.2604 112.926 59.2598 113.191C59.2574 113.888 59.2511 114.585 59.244 115.282C59.2374 115.993 59.2345 116.704 59.2313 117.415C59.2244 118.81 59.2135 120.205 59.2 121.6C59.0586 121.477 58.9172 121.355 58.7716 121.228C58.3128 120.834 57.8469 120.45 57.377 120.069C56.0303 118.974 54.7265 117.836 53.45 116.66C53.3433 116.562 53.2365 116.464 53.1265 116.362C50.4608 113.886 48.4653 111.687 48.3248 107.924C48.2903 105.702 48.5513 103.461 48.96 101.28Z" fill="#FEFCFC"/>
<path d="M61.4401 83.6799C61.4929 83.6799 61.5457 83.6799 61.6001 83.6799C61.5953 83.8554 61.5906 84.0308 61.5857 84.2115C61.5427 85.8731 61.5162 87.5343 61.5051 89.1965C61.499 90.0509 61.4872 90.9045 61.4624 91.7586C61.1271 95.6052 61.1271 95.6052 62.4265 99.0181C63.047 99.538 63.7 99.8907 64.4532 100.181C64.8944 100.358 65.247 100.609 65.6201 100.9C65.7989 101.024 65.7989 101.024 65.9813 101.15C68.0066 102.553 70.0117 103.985 72.0001 105.44C72.1167 105.513 72.2333 105.587 72.3535 105.663C72.6401 105.92 72.6401 105.92 72.7127 106.253C72.7094 106.378 72.706 106.503 72.7026 106.632C72.7005 106.767 72.6984 106.903 72.6963 107.043C72.6909 107.184 72.6856 107.325 72.6801 107.47C72.6772 107.613 72.6743 107.756 72.6713 107.903C72.6638 108.255 72.6532 108.608 72.6401 108.96C71.8124 108.698 71.179 108.19 70.4901 107.68C70.2311 107.491 69.9722 107.301 69.7132 107.112C69.5854 107.018 69.4577 106.924 69.3261 106.828C68.8203 106.458 68.3106 106.093 67.8001 105.73C67.619 105.601 67.438 105.472 67.2569 105.342C66.8942 105.084 66.5312 104.826 66.1682 104.567C65.0593 103.778 63.9571 102.98 62.8617 102.172C62.446 101.866 62.0297 101.566 61.6001 101.28C61.6001 102.336 61.6001 103.392 61.6001 104.48C61.8641 104.586 62.1281 104.691 62.4001 104.8C62.7144 105.02 62.7144 105.02 63.0301 105.28C63.6431 105.77 64.2701 106.236 64.9101 106.69C65.0054 106.758 65.1008 106.825 65.1991 106.895C65.3951 107.034 65.5911 107.173 65.7872 107.312C66.259 107.647 66.7295 107.983 67.2001 108.32C67.3865 108.453 67.573 108.586 67.7594 108.719C68.1351 108.988 68.5105 109.256 68.8857 109.526C68.9791 109.592 69.0725 109.659 69.1687 109.728C69.3556 109.862 69.5415 109.998 69.7264 110.135C70.1912 110.476 70.6459 110.772 71.1632 111.028C71.7584 111.339 72.2109 111.627 72.6401 112.16C72.8872 113.206 72.7688 114.303 72.6401 115.36C72.2142 115.156 71.8285 114.935 71.4438 114.662C71.2851 114.55 71.2851 114.55 71.1232 114.435C70.9533 114.314 70.9533 114.314 70.7801 114.19C70.6606 114.105 70.5412 114.02 70.4182 113.933C69.4347 113.234 68.4567 112.526 67.4792 111.819C65.5373 110.414 63.5732 109.041 61.6001 107.68C61.6001 108.683 61.6001 109.686 61.6001 110.72C61.8113 110.826 62.0225 110.931 62.2401 111.04C62.4284 111.171 62.6134 111.306 62.7951 111.446C62.8986 111.525 63.0022 111.604 63.1088 111.686C63.2728 111.811 63.2728 111.811 63.4401 111.94C64.3514 112.632 65.2755 113.287 66.2338 113.913C66.7907 114.287 67.3307 114.681 67.8701 115.08C68.7667 115.743 69.6696 116.396 70.5801 117.04C70.6937 117.121 70.8074 117.201 70.9246 117.284C71.0324 117.361 71.1402 117.437 71.2513 117.515C71.3525 117.588 71.4537 117.66 71.5579 117.735C71.8595 117.946 71.8595 117.946 72.3157 118.113C72.6401 118.4 72.6401 118.4 72.7012 118.736C72.7192 119.17 72.7096 119.596 72.6901 120.03C72.6865 120.18 72.6828 120.331 72.6791 120.486C72.6697 120.857 72.6565 121.229 72.6401 121.6C71.7927 121.338 71.1561 120.799 70.4601 120.27C69.3932 119.471 68.3145 118.696 67.2101 117.95C66.2227 117.281 65.2575 116.597 64.3094 115.874C63.4201 115.203 62.5081 114.565 61.6001 113.92C61.6001 115.715 61.6001 117.51 61.6001 119.36C61.5473 119.36 61.4945 119.36 61.4401 119.36C61.4401 107.586 61.4401 95.8111 61.4401 83.6799Z" fill="#DE0E3B"/>
<path d="M97.76 104.48C97.886 106.411 97.9422 108.331 97.9356 110.266C97.9353 110.531 97.9351 110.796 97.9349 111.061C97.9343 111.748 97.9327 112.434 97.931 113.12C97.9293 113.825 97.9286 114.53 97.9278 115.235C97.9261 116.61 97.9234 117.985 97.92 119.36C97.8672 119.36 97.8144 119.36 97.76 119.36C97.76 117.565 97.76 115.77 97.76 113.92C96.1931 115.024 94.6281 116.131 93.0694 117.247C92.8013 117.439 92.5328 117.631 92.2643 117.822C91.1804 118.594 90.0993 119.371 89.02 120.15C88.8967 120.239 88.7734 120.328 88.6464 120.42C88.53 120.504 88.4136 120.588 88.2937 120.674C88.1907 120.749 88.0876 120.823 87.9815 120.9C87.7648 121.058 87.5519 121.221 87.3416 121.388C87.04 121.6 87.04 121.6 86.72 121.6C86.591 120.542 86.4773 119.448 86.72 118.4C87.2084 117.781 87.7889 117.477 88.4797 117.132C89.0591 116.821 89.5789 116.425 90.11 116.04C90.3415 115.876 90.5732 115.712 90.805 115.549C91.7775 114.858 92.7432 114.159 93.7093 113.459C94.3517 112.995 94.9952 112.531 95.64 112.07C95.8107 111.948 95.9815 111.825 96.1575 111.699C96.64 111.36 96.64 111.36 97.1737 111.093C97.6524 110.674 97.6698 110.594 97.7287 109.992C97.7372 109.715 97.7408 109.438 97.74 109.16C97.7433 109.018 97.7466 108.876 97.75 108.729C97.7575 108.379 97.7607 108.03 97.76 107.68C96.4289 108.491 95.1811 109.389 93.9302 110.316C92.3261 111.501 90.7042 112.661 89.06 113.79C88.9315 113.878 88.8031 113.967 88.6708 114.058C88.5505 114.14 88.4302 114.222 88.3062 114.307C88.2005 114.379 88.0949 114.451 87.986 114.526C87.6792 114.72 87.3676 114.883 87.04 115.04C87.04 115.146 87.04 115.251 87.04 115.36C86.9344 115.36 86.8288 115.36 86.72 115.36C86.5475 114.292 86.396 113.212 86.72 112.16C87.3401 111.317 88.3081 110.825 89.2011 110.314C89.8148 109.954 90.3841 109.537 90.96 109.12C91.1842 108.962 91.4085 108.804 91.6331 108.646C92.3558 108.136 93.0732 107.619 93.79 107.1C93.9092 107.014 94.0284 106.928 94.1512 106.839C94.7243 106.425 95.2967 106.01 95.8681 105.593C96.072 105.445 96.276 105.298 96.48 105.15C96.573 105.082 96.6661 105.013 96.762 104.943C97.4037 104.48 97.4037 104.48 97.76 104.48Z" fill="#C50935"/>
<path d="M97.6 83.52C97.7056 83.52 97.8112 83.52 97.92 83.52C97.92 90.384 97.92 97.248 97.92 104.32C97.8672 104.32 97.8144 104.32 97.76 104.32C97.76 103.317 97.76 102.314 97.76 101.28C96.246 102.345 94.7373 103.416 93.2386 104.502C92.3095 105.174 91.3737 105.837 90.4346 106.495C89.8673 106.894 89.3044 107.298 88.7475 107.711C88.5815 107.834 88.5815 107.834 88.4123 107.96C88.202 108.117 87.9922 108.274 87.783 108.432C87.0748 108.96 87.0748 108.96 86.72 108.96C86.478 106.293 86.478 106.293 87.0031 105.484C87.4239 105.153 87.8514 104.898 88.32 104.64C88.6552 104.409 88.9885 104.176 89.32 103.94C89.4974 103.818 89.6751 103.697 89.8531 103.576C90.4107 103.194 90.961 102.803 91.51 102.41C91.6033 102.343 91.6966 102.276 91.7927 102.208C91.9817 102.072 92.1706 101.937 92.3595 101.801C92.7198 101.543 93.0801 101.284 93.4412 101.027C93.6235 100.896 93.8049 100.764 93.9851 100.631C94.4998 100.253 95.0147 99.9199 95.5779 99.6185C96.8875 98.8975 96.8875 98.8975 97.7514 97.7266C97.98 96.7302 97.9126 95.7211 97.8656 94.7075C97.8605 94.3838 97.8566 94.0601 97.8539 93.7364C97.8436 92.8899 97.817 92.0447 97.7867 91.1987C97.7588 90.3333 97.7465 89.4676 97.7328 88.6019C97.7037 86.9074 97.6574 85.2138 97.6 83.52Z" fill="#C50C38"/>
<path d="M61.6 98.24C62.4174 98.5007 63.0396 98.9953 63.72 99.5C63.9791 99.6897 64.2383 99.8793 64.4975 100.069C64.6284 100.165 64.7593 100.26 64.8941 100.359C65.4715 100.779 66.0555 101.19 66.64 101.6C67.3453 102.096 68.0489 102.594 68.7488 103.097C68.8734 103.187 68.998 103.277 69.1264 103.369C69.3733 103.548 69.6193 103.728 69.8643 103.91C70.3802 104.291 70.8817 104.654 71.4525 104.949C71.9764 105.24 72.2944 105.428 72.64 105.92C72.8429 106.924 72.7409 107.949 72.64 108.96C71.8124 108.698 71.1789 108.19 70.49 107.68C70.2311 107.491 69.9721 107.301 69.7131 107.112C69.5854 107.018 69.4577 106.924 69.326 106.828C68.8202 106.458 68.3106 106.093 67.8 105.73C67.619 105.601 67.4379 105.472 67.2569 105.342C66.8941 105.084 66.5312 104.826 66.1681 104.567C65.165 103.854 64.1652 103.135 63.17 102.41C63.0683 102.336 62.9665 102.263 62.8616 102.187C61.6281 101.284 61.6281 101.284 61.5455 100.801C61.548 100.683 61.5506 100.565 61.5531 100.443C61.5547 100.315 61.5562 100.186 61.5578 100.054C61.5619 99.9207 61.5659 99.7874 61.57 99.65C61.5722 99.5148 61.5744 99.3796 61.5766 99.2403C61.5822 98.9068 61.5908 98.5734 61.6 98.24Z" fill="#DD0736"/>
<path d="M55.84 28.6399C55.9984 28.6927 56.1568 28.7455 56.32 28.7999C56.1881 28.9315 56.0561 29.0631 55.9202 29.1986C54.6789 30.4366 53.4381 31.675 52.1977 32.9139C51.56 33.5508 50.922 34.1876 50.2838 34.824C49.6682 35.4378 49.0531 36.052 48.4382 36.6665C48.2031 36.9013 47.9679 37.1359 47.7326 37.3704C47.4039 37.698 47.0756 38.026 46.7475 38.3542C46.6494 38.4518 46.5512 38.5494 46.4501 38.6499C45.9658 39.1199 45.9658 39.1199 45.6 39.6799C45.4416 39.6799 45.2832 39.6799 45.12 39.6799C45.3879 38.9811 45.9096 38.5277 46.431 38.0125C46.5325 37.911 46.634 37.8095 46.7385 37.7049C47.0737 37.37 47.41 37.0362 47.7462 36.7024C47.979 36.4702 48.2117 36.2379 48.4444 36.0056C49.0566 35.3947 49.6697 34.7847 50.283 34.1749C50.9088 33.5524 51.5338 32.9289 52.1587 32.3055C53.3849 31.0828 54.6121 29.861 55.84 28.6399Z" fill="#F8D2DA"/>
<path d="M86.72 105.92C86.8256 105.92 86.9312 105.92 87.04 105.92C87.0928 106.87 87.1456 107.821 87.2 108.8C87.0416 108.853 86.8832 108.906 86.72 108.96C86.72 107.957 86.72 106.954 86.72 105.92Z" fill="#CE3957"/>
<path d="M61.6 113.92C61.7584 113.973 61.9168 114.026 62.08 114.08C62.0272 114.186 61.9744 114.291 61.92 114.4C61.895 114.785 61.8787 115.166 61.8694 115.551C61.866 115.664 61.8627 115.778 61.8593 115.894C61.8488 116.256 61.8394 116.618 61.83 116.98C61.8231 117.225 61.8161 117.47 61.809 117.716C61.7919 118.317 61.7757 118.918 61.76 119.52C61.7072 119.52 61.6544 119.52 61.6 119.52C61.6 117.672 61.6 115.824 61.6 113.92Z" fill="#FAE1E6"/>
<path d="M61.6 101.28C61.7584 101.333 61.9168 101.386 62.08 101.44C62.0272 101.546 61.9744 101.651 61.92 101.76C61.9085 102.221 61.9051 102.679 61.91 103.14C61.9107 103.268 61.9114 103.397 61.9122 103.529C61.9141 103.846 61.9169 104.163 61.92 104.48C61.8144 104.48 61.7088 104.48 61.6 104.48C61.6 103.424 61.6 102.368 61.6 101.28Z" fill="#FADCE3"/>
<path d="M63.68 36C63.7856 36.0528 63.8912 36.1056 64 36.16C63.87 36.71 63.87 36.71 63.68 37.28C63.5216 37.3328 63.3632 37.3856 63.2 37.44C63.3584 36.9648 63.5168 36.4896 63.68 36Z" fill="#E43C5E"/>
</svg>
