<svg width="40" height="40" viewBox="0 0 40 40" fill="none" xmlns="http://www.w3.org/2000/svg">
<g clip-path="url(#clip0_34_197)">
<path d="M33.772 17.49V9.98999" stroke="white" stroke-width="2" stroke-linecap="round" stroke-linejoin="round"/>
<path d="M37.522 13.74H30.022" stroke="white" stroke-width="2" stroke-linecap="round" stroke-linejoin="round"/>
<path d="M26.26 3.72791V8.72791" stroke="white" stroke-width="2" stroke-linecap="round" stroke-linejoin="round"/>
<path d="M28.76 6.22791H23.76" stroke="white" stroke-width="2" stroke-linecap="round" stroke-linejoin="round"/>
<path d="M33.8601 23.843C31.4059 24.5312 28.8128 24.5538 26.3471 23.9084C23.8813 23.263 21.6317 21.9729 19.8294 20.1706C18.0271 18.3683 16.737 16.1187 16.0916 13.653C15.4462 11.1872 15.4688 8.59406 16.157 6.13989C13.7374 6.81335 11.5365 8.10899 9.77346 9.89776C8.01044 11.6865 6.74684 13.906 6.10853 16.3351C5.47023 18.7642 5.47948 21.3181 6.13538 23.7425C6.79128 26.1669 8.07093 28.3772 9.84688 30.1531C11.6228 31.9291 13.8331 33.2087 16.2575 33.8646C18.6819 34.5205 21.2358 34.5298 23.6649 33.8915C26.094 33.2532 28.3135 31.9896 30.1023 30.2265C31.891 28.4635 33.1867 26.2626 33.8601 23.843Z" stroke="white" stroke-width="2" stroke-linecap="round" stroke-linejoin="round"/>
</g>
<defs>
<clipPath id="clip0_34_197">
<rect width="40" height="40" fill="white"/>
</clipPath>
</defs>
</svg>
